;TYPE=PLATED
;Layer: PTH_Through_Via
;EasyEDA Pro v2.2.45.4, 2026-01-14 12:02:54
;Gerber Generator version 0.3
M48
METRIC,LZ,0000.00000
;Hole size 1 = 0.30500 METRIC
T01C0.30500
%
G05
G90
T01
X57.023Y45.974
X58.801Y91.567
X57.785Y92.964
X66.167Y83.312
X65.786Y84.963
X67.818Y73.787
X69.723Y73.533
X69.469Y61.976
X70.739Y63.373
X64.897Y52.197
X66.802Y52.324
X58.801Y44.069
X48.768Y38.862
X47.117Y39.243
X36.322Y38.862
X37.084Y40.767
X27.559Y44.196
X17.653Y50.927
X17.272Y49.276
X12.319Y58.928
X15.113Y60.96
X14.605Y72.263
X15.494Y84.074
X34.798Y94.361
X25.781Y89.789
X37.973Y93.853
X44.323Y93.218
X43.942Y98.171
X46.99Y95.885
X38.227Y44.323
X1.778Y42.926
X0.889Y47.371
X26.924Y40.513
X27.559Y46.355
X23.114Y53.975
X22.987Y51.435
X25.146Y49.022
X25.4Y49.911
X31.115Y53.594
X41.021Y55.753
X44.45Y55.118
X46.609Y51.93894
X46.355Y52.959
X46.228Y49.403
X43.434Y49.911
X47.498Y51.816
X53.467Y51.562
X53.721Y53.721
X51.435Y53.848
X51.689Y51.689
X36.322Y42.545
X35.56Y42.926
X36.195Y45.085
X34.29Y44.323
X44.323Y41.91
X15.621Y86.614
X12.7Y44.069
X33.909Y54.864
X5.207Y32.639
X6.096Y33.528
X9.525Y58.928
X19.177Y57.912
X17.018Y64.516
X16.383Y74.803
X21.336Y83.82
X18.542Y82.423
X28.321Y90.424
X38.608Y90.424
X41.021Y83.82
X48.387Y92.202
X63.119Y80.518
X66.167Y70.866
X65.659Y61.087
X61.849Y52.197
X53.467Y45.593
X32.258Y58.039
M30