;TYPE=PLATED
;Layer: PTH_Through
;EasyEDA Pro v2.2.45.4, 2026-01-14 12:02:54
;Gerber Generator version 0.3
M48
METRIC,LZ,0000.00000
;Hole size 1 = 0.30500 METRIC
T01C0.30500
;Hole size 2 = 0.91440 METRIC
T02C0.91440
;Hole size 3 = 1.00000 METRIC
T03C1.00000
;Hole size 4 = 1.04999 METRIC
T04C1.04999
;Hole size 5 = 1.08000 METRIC
T05C1.08000
;Hole size 6 = 1.10002 METRIC
T06C1.10002
;Hole size 7 = 1.20000 METRIC
T07C1.20000
%
G05
G90
T01
X57.023Y45.974
X58.801Y91.567
X57.785Y92.964
X66.167Y83.312
X65.786Y84.963
X67.818Y73.787
X69.723Y73.533
X69.469Y61.976
X70.739Y63.373
X64.897Y52.197
X66.802Y52.324
X58.801Y44.069
X48.768Y38.862
X47.117Y39.243
X36.322Y38.862
X37.084Y40.767
X27.559Y44.196
X17.653Y50.927
X17.272Y49.276
X12.319Y58.928
X15.113Y60.96
X14.605Y72.263
X15.494Y84.074
X34.798Y94.361
X25.781Y89.789
X37.973Y93.853
X44.323Y93.218
X43.942Y98.171
X46.99Y95.885
X38.227Y44.323
X1.778Y42.926
X0.889Y47.371
X26.924Y40.513
X27.559Y46.355
X23.114Y53.975
X22.987Y51.435
X25.146Y49.022
X25.4Y49.911
X31.115Y53.594
X41.021Y55.753
X44.45Y55.118
X46.609Y51.93894
X46.355Y52.959
X46.228Y49.403
X43.434Y49.911
X47.498Y51.816
X53.467Y51.562
X53.721Y53.721
X51.435Y53.848
X51.689Y51.689
X36.322Y42.545
X35.56Y42.926
X36.195Y45.085
X34.29Y44.323
X44.323Y41.91
X15.621Y86.614
X12.7Y44.069
X33.909Y54.864
X5.207Y32.639
X6.096Y33.528
X9.525Y58.928
X19.177Y57.912
X17.018Y64.516
X16.383Y74.803
X21.336Y83.82
X18.542Y82.423
X28.321Y90.424
X38.608Y90.424
X41.021Y83.82
X48.387Y92.202
X63.119Y80.518
X66.167Y70.866
X65.659Y61.087
X61.849Y52.197
X53.467Y45.593
X32.258Y58.039
T02
X58.674Y65.913
X55.174Y65.913
T03
X56.78899Y72.771
X59.28898Y72.771
X21.35599Y73.025
X23.85598Y73.025
T04
X61.722Y35.814
X59.182Y35.814
X56.642Y35.814
X54.102Y35.814
X51.562Y35.814
X49.022Y35.814
X46.482Y35.814
X43.942Y35.814
X41.402Y35.814
X38.862Y35.814
X36.322Y35.814
X33.782Y35.814
X31.242Y35.814
X28.702Y35.814
X26.162Y35.814
X23.622Y35.814
X21.082Y35.814
X18.542Y35.814
X16.002Y35.814
X13.462Y35.814
X10.922Y35.814
X8.382Y35.814
X61.722Y12.954
X59.182Y12.954
X56.642Y12.954
X54.102Y12.954
X51.562Y12.954
X49.022Y12.954
X46.482Y12.954
X43.942Y12.954
X41.402Y12.954
X38.862Y12.954
X36.322Y12.954
X33.782Y12.954
X31.242Y12.954
X28.702Y12.954
X26.162Y12.954
X23.622Y12.954
X21.082Y12.954
X18.542Y12.954
X16.002Y12.954
X13.462Y12.954
X10.922Y12.954
X8.382Y12.954
T05
X65.659Y39.497
X4.84646Y39.22271
X17.80046Y7.89325
X31.26246Y87.11128
X50.56646Y47.5843
X43.70846Y45.59185
X21.10246Y53.38985
X28.59546Y48.34939
X40.27946Y49.79485
X55.39246Y86.0294
X61.74246Y9.3724
T06
X58.674Y54.864
X58.674Y57.404
X61.214Y54.864
X61.214Y57.404
X21.717Y63.246
X21.717Y65.786
X24.257Y63.246
X24.257Y65.786
X4.699Y67.691
X7.239Y67.691
X4.699Y65.151
X7.239Y65.151
X4.699Y62.611
X7.239Y62.611
X4.699Y60.071
X7.239Y60.071
X4.699Y57.531
X7.239Y57.531
X4.699Y54.991
X7.239Y54.991
X4.699Y52.451
X7.239Y52.451
X4.699Y49.911
X7.239Y49.911
X4.699Y47.371
X7.239Y47.371
X4.699Y44.831
X7.239Y44.831
X44.49702Y69.342
X34.49701Y69.342
T07
X61.595Y39.37
X59.055Y39.37
X10.922Y39.243
X8.382Y39.243
X51.181Y57.785
X53.721Y57.785
X36.576Y52.578
X34.036Y52.578
M30