G04 Layer: TopPasteMaskLayer*
G04 EasyEDA Pro v2.2.45.4, 2026-01-14 12:02:54*
G04 Gerber Generator version 0.3*
G04 Scale: 100 percent, Rotated: No, Reflected: No*
G04 Dimensions in millimeters*
G04 Leading zeros omitted, absolute positions, 4 integers and 5 decimals*
G04 Generated by one-click*
%FSLAX45Y45*%
%MOMM*%
%AMRect*21,1,$1,$2,0,0,$3*%
%ADD10R,0.5X0.54*%
%ADD11R,0.54X0.5*%
%ADD12R,1.50625X2.37599*%
%ADD13Rect,0.5X0.54X67.5*%
%ADD14Rect,0.5X0.54X45.0*%
%ADD15Rect,0.5X0.54X22.5*%
%ADD16Rect,0.5X0.54X157.5*%
%ADD17Rect,0.5X0.54X135.0*%
%ADD18Rect,0.5011X0.54X112.5*%
%ADD19Rect,0.5X0.54X112.5*%
%ADD20R,0.9X0.8*%
%ADD21R,1.5X0.81999*%
%ADD22Rect,0.81999X1.5X67.5*%
%ADD23Rect,0.81999X1.5X45.0*%
%ADD24Rect,0.81999X1.5X22.5*%
%ADD25R,0.81999X1.5*%
%ADD26Rect,0.81999X1.5X157.5*%
%ADD27Rect,0.81999X1.5X135.0*%
%ADD28Rect,0.81999X1.5X112.5*%
%ADD29R,1.1X0.6*%
%ADD30R,0.5X0.28001*%
%ADD31R,0.28001X0.5*%
%ADD32R,1.3X0.3*%
%ADD33C,10.0*%
G75*


G04 PolygonModel Start*
G36*
G01X2727124Y5729801D02*
G01X2683063Y5729801D01*
G01X2636248Y5691294D01*
G01X2636248Y5622547D01*
G01X2646248Y5612547D01*
G01X2763944Y5612547D01*
G01X2773944Y5622547D01*
G01X2773944Y5691294D01*
G01X2727124Y5729801D01*
G37*
G36*
G01X2727124Y5801799D02*
G01X2683063Y5801799D01*
G01X2636248Y5840306D01*
G01X2636248Y5909053D01*
G01X2646248Y5919053D01*
G01X2763944Y5919053D01*
G01X2773944Y5909053D01*
G01X2773944Y5840306D01*
G01X2727124Y5801799D01*
G37*
G36*
G01X2460424Y5717101D02*
G01X2416363Y5717101D01*
G01X2369548Y5678594D01*
G01X2369548Y5609847D01*
G01X2379548Y5599847D01*
G01X2497244Y5599847D01*
G01X2507244Y5609847D01*
G01X2507244Y5678594D01*
G01X2460424Y5717101D01*
G37*
G36*
G01X2460424Y5789099D02*
G01X2416363Y5789099D01*
G01X2369548Y5827606D01*
G01X2369548Y5896353D01*
G01X2379548Y5906353D01*
G01X2497244Y5906353D01*
G01X2507244Y5896353D01*
G01X2507244Y5827606D01*
G01X2460424Y5789099D01*
G37*
G36*
G01X3528200Y8827300D02*
G01X3482200Y8827300D01*
G01X3478200Y8831301D01*
G01X3478200Y8881364D01*
G01X3482200Y8885365D01*
G01X3528200Y8885365D01*
G01X3532200Y8881364D01*
G01X3532200Y8831301D01*
G01X3528200Y8827300D01*
G37*
G36*
G01X3528200Y8800300D02*
G01X3482200Y8800300D01*
G01X3478200Y8796299D01*
G01X3478200Y8746236D01*
G01X3482200Y8742236D01*
G01X3528200Y8742236D01*
G01X3532200Y8746236D01*
G01X3532200Y8796299D01*
G01X3528200Y8800300D01*
G37*
G36*
G01X4849000Y5309400D02*
G01X4803000Y5309400D01*
G01X4799000Y5313401D01*
G01X4799000Y5363464D01*
G01X4803000Y5367465D01*
G01X4849000Y5367465D01*
G01X4853000Y5363464D01*
G01X4853000Y5313401D01*
G01X4849000Y5309400D01*
G37*
G36*
G01X4849000Y5282400D02*
G01X4803000Y5282400D01*
G01X4799000Y5278399D01*
G01X4799000Y5228336D01*
G01X4803000Y5224336D01*
G01X4849000Y5224336D01*
G01X4853000Y5228336D01*
G01X4853000Y5278399D01*
G01X4849000Y5282400D01*
G37*
G36*
G01X4803000Y5028400D02*
G01X4849000Y5028400D01*
G01X4853000Y5024399D01*
G01X4853000Y4974336D01*
G01X4849000Y4970336D01*
G01X4803000Y4970336D01*
G01X4799000Y4974336D01*
G01X4799000Y5024399D01*
G01X4803000Y5028400D01*
G37*
G36*
G01X4803000Y5055400D02*
G01X4849000Y5055400D01*
G01X4853000Y5059401D01*
G01X4853000Y5109464D01*
G01X4849000Y5113465D01*
G01X4803000Y5113465D01*
G01X4799000Y5109464D01*
G01X4799000Y5059401D01*
G01X4803000Y5055400D01*
G37*
G36*
G01X2909100Y5044300D02*
G01X2909100Y5090300D01*
G01X2913101Y5094300D01*
G01X2963164Y5094300D01*
G01X2967165Y5090300D01*
G01X2967165Y5044300D01*
G01X2963164Y5040300D01*
G01X2913101Y5040300D01*
G01X2909100Y5044300D01*
G37*
G36*
G01X2882100Y5044300D02*
G01X2882100Y5090300D01*
G01X2878099Y5094300D01*
G01X2828036Y5094300D01*
G01X2824036Y5090300D01*
G01X2824036Y5044300D01*
G01X2828036Y5040300D01*
G01X2878099Y5040300D01*
G01X2882100Y5044300D01*
G37*
G36*
G01X2480003Y5159698D02*
G01X2480003Y5279697D01*
G01X2600002Y5279697D01*
G01X2600002Y5159698D01*
G01X2480003Y5159698D01*
G37*
G36*
G01X2477651Y5039705D02*
G01X2452652Y5039705D01*
G01X2452652Y5099705D01*
G01X2477651Y5099705D01*
G01X2477651Y5039705D01*
G37*
G36*
G01X2527651Y5039703D02*
G01X2502652Y5039703D01*
G01X2502652Y5099703D01*
G01X2527651Y5099703D01*
G01X2527651Y5039703D01*
G37*
G36*
G01X2577650Y5039705D02*
G01X2552652Y5039705D01*
G01X2552652Y5099705D01*
G01X2577650Y5099705D01*
G01X2577650Y5039705D01*
G37*
G36*
G01X2627650Y5039705D02*
G01X2602652Y5039705D01*
G01X2602652Y5099705D01*
G01X2627650Y5099705D01*
G01X2627650Y5039705D01*
G37*
G36*
G01X2720000Y5157407D02*
G01X2720000Y5132408D01*
G01X2660000Y5132408D01*
G01X2660000Y5157407D01*
G01X2720000Y5157407D01*
G37*
G36*
G01X2720000Y5207406D02*
G01X2720000Y5182408D01*
G01X2660000Y5182408D01*
G01X2660000Y5207406D01*
G01X2720000Y5207406D01*
G37*
G36*
G01X2719997Y5257406D02*
G01X2719997Y5232408D01*
G01X2659997Y5232408D01*
G01X2659997Y5257406D01*
G01X2719997Y5257406D01*
G37*
G36*
G01X2720000Y5307406D02*
G01X2720000Y5282408D01*
G01X2660000Y5282408D01*
G01X2660000Y5307406D01*
G01X2720000Y5307406D01*
G37*
G36*
G01X2602499Y5399700D02*
G01X2627498Y5399700D01*
G01X2627498Y5339700D01*
G01X2602499Y5339700D01*
G01X2602499Y5399700D01*
G37*
G36*
G01X2552499Y5399700D02*
G01X2577498Y5399700D01*
G01X2577498Y5339700D01*
G01X2552499Y5339700D01*
G01X2552499Y5399700D01*
G37*
G36*
G01X2502499Y5399700D02*
G01X2527498Y5399700D01*
G01X2527498Y5339700D01*
G01X2502499Y5339700D01*
G01X2502499Y5399700D01*
G37*
G36*
G01X2452652Y5399702D02*
G01X2477651Y5399702D01*
G01X2477651Y5339702D01*
G01X2452652Y5339702D01*
G01X2452652Y5399702D01*
G37*
G36*
G01X2360000Y5282408D02*
G01X2360000Y5307406D01*
G01X2420000Y5307406D01*
G01X2420000Y5282408D01*
G01X2360000Y5282408D01*
G37*
G36*
G01X2359998Y5232408D02*
G01X2359998Y5257406D01*
G01X2419998Y5257406D01*
G01X2419998Y5232408D01*
G01X2359998Y5232408D01*
G37*
G36*
G01X2360000Y5182408D02*
G01X2360000Y5207406D01*
G01X2420000Y5207406D01*
G01X2420000Y5182408D01*
G01X2360000Y5182408D01*
G37*
G36*
G01X2360000Y5132408D02*
G01X2360000Y5157407D01*
G01X2420000Y5157407D01*
G01X2420000Y5132408D01*
G01X2360000Y5132408D01*
G37*

G04 Pad Start*
G54D10*
G01X3780688Y8382000D03*
G01X3864712Y8382000D03*
G01X4453788Y4940300D03*
G01X4537812Y4940300D03*
G01X4453788Y4800600D03*
G01X4537812Y4800600D03*
G01X4453788Y5384800D03*
G01X4537812Y5384800D03*
G01X5464912Y5473700D03*
G01X5380888Y5473700D03*
G01X5037988Y5473700D03*
G01X5122012Y5473700D03*
G54D11*
G01X4584700Y9630512D03*
G01X4584700Y9546488D03*
G54D12*
G01X4465955Y9042400D03*
G01X4093845Y9042400D03*
G54D13*
G01X5731077Y9182814D03*
G01X5698923Y9105186D03*
G54D14*
G01X6494007Y8424407D03*
G01X6434593Y8364993D03*
G54D15*
G01X6947614Y7445577D03*
G01X6869986Y7413423D03*
G54D10*
G01X6963512Y6337300D03*
G01X6879488Y6337300D03*
G54D16*
G01X6592014Y5292523D03*
G01X6514386Y5324677D03*
G54D17*
G01X5808207Y4466093D03*
G01X5748793Y4525507D03*
G54D19*
G01X4816677Y3974386D03*
G01X4784523Y4052014D03*
G54D11*
G01X2832100Y5253888D03*
G01X2832100Y5337912D03*
G01X2984500Y5253888D03*
G01X2984500Y5337912D03*
G54D20*
G01X2197100Y5848502D03*
G01X2197100Y5708498D03*
G01X2946400Y5848502D03*
G01X2946400Y5708498D03*
G54D11*
G01X3721100Y3920388D03*
G01X3721100Y4004412D03*
G54D13*
G01X2689023Y4266486D03*
G01X2721177Y4344114D03*
G54D14*
G01X1849893Y4974093D03*
G01X1909307Y5033507D03*
G54D15*
G01X1332786Y5978323D03*
G01X1410414Y6010477D03*
G54D10*
G01X1253388Y7251700D03*
G01X1337412Y7251700D03*
G54D16*
G01X1675686Y8347277D03*
G01X1753314Y8315123D03*
G54D17*
G01X2434093Y9135607D03*
G01X2493507Y9076193D03*
G54D19*
G01X3378914Y9591877D03*
G01X3411068Y9514250D03*
G54D21*
G01X4369410Y9650806D03*
G01X4369410Y9500794D03*
G01X3809390Y9500794D03*
G01X3809390Y9650806D03*
G54D22*
G01X5557899Y9283942D03*
G01X5500491Y9145348D03*
G01X4983101Y9359658D03*
G01X5040509Y9498252D03*
G54D23*
G01X6397834Y8554541D03*
G01X6291759Y8448466D03*
G01X5895766Y8844459D03*
G01X6001841Y8950534D03*
G54D24*
G01X6882052Y7618609D03*
G01X6743458Y7561201D03*
G01X6529148Y8078591D03*
G01X6667742Y8135999D03*
G54D25*
G01X6983806Y6514490D03*
G01X6833794Y6514490D03*
G01X6833794Y7074510D03*
G01X6983806Y7074510D03*
G54D26*
G01X6667742Y5465701D03*
G01X6529148Y5523109D03*
G01X6743458Y6040499D03*
G01X6882052Y5983091D03*
G54D27*
G01X5951041Y4587666D03*
G01X5844966Y4693741D03*
G01X6240959Y5089734D03*
G01X6347034Y4983659D03*
G54D28*
G01X4989709Y4052648D03*
G01X4932301Y4191242D03*
G01X5449691Y4405552D03*
G01X5507099Y4266958D03*
G54D21*
G01X3910990Y3912794D03*
G01X3910990Y4062806D03*
G01X4471010Y4062806D03*
G01X4471010Y3912794D03*
G54D22*
G01X2874901Y4190758D03*
G01X2932309Y4329352D03*
G01X3449699Y4115042D03*
G01X3392291Y3976448D03*
G54D23*
G01X1996866Y4831259D03*
G01X2102941Y4937334D03*
G01X2498934Y4541341D03*
G01X2392859Y4435266D03*
G54D24*
G01X1398348Y5817991D03*
G01X1536942Y5875399D03*
G01X1751252Y5358009D03*
G01X1612658Y5300601D03*
G54D25*
G01X1233094Y7074510D03*
G01X1383106Y7074510D03*
G01X1383106Y6514490D03*
G01X1233094Y6514490D03*
G54D26*
G01X1574558Y8186799D03*
G01X1713152Y8129391D03*
G01X1498842Y7612001D03*
G01X1360248Y7669409D03*
G54D27*
G01X2291259Y9039434D03*
G01X2397334Y8933359D03*
G01X2001341Y8537366D03*
G01X1895266Y8643441D03*
G54D28*
G01X3227191Y9536352D03*
G01X3284599Y9397758D03*
G01X2767209Y9183448D03*
G01X2709801Y9322042D03*
G54D29*
G01X3705390Y8566404D03*
G01X3705390Y8756396D03*
G01X3965410Y8756396D03*
G01X3965410Y8661400D03*
G01X3965410Y8566404D03*
G54D30*
G01X4395597Y5143906D03*
G01X4395597Y5193894D03*
G54D31*
G01X4408094Y5256403D03*
G01X4458106Y5256403D03*
G01X4508094Y5256403D03*
G01X4558106Y5256403D03*
G54D30*
G01X4570603Y5193894D03*
G01X4570603Y5143906D03*
G54D31*
G01X4558106Y5081397D03*
G01X4508094Y5081397D03*
G01X4458106Y5081397D03*
G01X4408094Y5081397D03*
G54D32*
G01X5022799Y5268887D03*
G01X5022799Y5218900D03*
G01X5022799Y5168913D03*
G01X5022799Y5118900D03*
G01X5022799Y5068888D03*
G01X5492801Y5068913D03*
G01X5492801Y5118900D03*
G01X5492801Y5168887D03*
G01X5492801Y5218900D03*
G01X5492801Y5268913D03*
G54D33*
G01X984267Y608525D03*
G01X7159167Y9063728D03*
G01X811867Y9110882D03*
G01X6950567Y632968D03*
G04 Pad End*

M02*

