G04 Layer: TopLayer*
G04 EasyEDA Pro v2.2.45.4, 2026-01-14 12:02:54*
G04 Gerber Generator version 0.3*
G04 Scale: 100 percent, Rotated: No, Reflected: No*
G04 Dimensions in millimeters*
G04 Leading zeros omitted, absolute positions, 4 integers and 5 decimals*
G04 Generated by one-click*
%FSLAX45Y45*%
%MOMM*%
%AMRect*21,1,$1,$2,0,0,$3*%
%ADD10C,0.2032*%
%ADD11C,0.254*%
%ADD12R,0.5X0.54*%
%ADD13R,0.54X0.5*%
%ADD14R,1.50625X2.37599*%
%ADD15Rect,0.5X0.54X67.5*%
%ADD16Rect,0.5X0.54X45.0*%
%ADD17Rect,0.5X0.54X22.5*%
%ADD18Rect,0.5035X0.54X157.5*%
%ADD19Rect,0.5X0.54X157.5*%
%ADD20Rect,0.5X0.54X135.0*%
%ADD21Rect,0.5X0.54X112.5*%
%ADD22R,0.9X0.8*%
%ADD23C,1.7*%
%ADD24R,1.6X1.6*%
%ADD25C,1.6*%
%ADD26R,2.0X2.0*%
%ADD27C,2.0*%
%ADD28R,1.7X1.7*%
%ADD29R,1.37701X1.13254*%
%ADD30R,1.5X0.81999*%
%ADD31Rect,0.81999X1.5X67.5*%
%ADD32Rect,0.81999X1.5X45.0*%
%ADD33Rect,0.81999X1.5X22.5*%
%ADD34R,0.81999X1.5*%
%ADD35Rect,0.81999X1.5X157.5*%
%ADD36Rect,0.81999X1.5X135.0*%
%ADD37Rect,0.81999X1.5X112.5*%
%ADD38R,0.54X0.56566*%
%ADD39R,0.56566X0.54*%
%ADD40R,2.49999X2.49999*%
%ADD41C,2.49999*%
%ADD42R,1.1X0.6*%
%ADD43R,0.5X0.28001*%
%ADD44R,0.28001X0.5*%
%ADD45R,1.3X0.3*%
%ADD46R,0.25001X0.6*%
%ADD47R,0.6X0.25001*%
%ADD48R,1.5X1.5*%
%ADD49C,1.524*%
%ADD50C,10.0*%
%ADD51C,0.61*%
%ADD52C,0.5*%
%ADD53C,1.0*%
%ADD54C,0.3*%
G75*


G04 Copper Start*
G36*
G01X122217Y4794437D02*
G01X107479Y4800758D01*
G01X91654Y4803357D01*
G01X75668Y4802080D01*
G01X60455Y4797004D01*
G01X46907Y4788424D01*
G01X35814Y4776842D01*
G01X35814Y4991100D01*
G01X349086Y4991100D01*
G01X350922Y4970121D01*
G01X356372Y4949779D01*
G01X365272Y4930693D01*
G01X377351Y4913442D01*
G01X392242Y4898551D01*
G01X409493Y4886472D01*
G01X428579Y4877572D01*
G01X448921Y4872122D01*
G01X469900Y4870286D01*
G01X469900Y4870286D01*
G01X490879Y4872122D01*
G01X511221Y4877572D01*
G01X530307Y4886472D01*
G01X547558Y4898551D01*
G01X562449Y4913442D01*
G01X574528Y4930693D01*
G01X583428Y4949779D01*
G01X588878Y4970121D01*
G01X590714Y4991100D01*
G01X588878Y5012079D01*
G01X583428Y5032421D01*
G01X574528Y5051507D01*
G01X562449Y5068758D01*
G01X547558Y5083649D01*
G01X530307Y5095728D01*
G01X511221Y5104628D01*
G01X490879Y5110078D01*
G01X469900Y5111914D01*
G01X448921Y5110078D01*
G01X428579Y5104628D01*
G01X409493Y5095728D01*
G01X392242Y5083649D01*
G01X377351Y5068758D01*
G01X365272Y5051507D01*
G01X356372Y5032421D01*
G01X350922Y5012079D01*
G01X349086Y4991100D01*
G01X35814Y4991100D01*
G01X35814Y5252017D01*
G01X349284Y5252017D01*
G01X350008Y5230204D01*
G01X354644Y5208877D01*
G01X363042Y5188732D01*
G01X374927Y5170426D01*
G01X389912Y5154558D01*
G01X407506Y5141645D01*
G01X427137Y5132107D01*
G01X448164Y5126258D01*
G01X469900Y5124286D01*
G01X491636Y5126258D01*
G01X512663Y5132107D01*
G01X532294Y5141645D01*
G01X549888Y5154558D01*
G01X564873Y5170426D01*
G01X576758Y5188732D01*
G01X585156Y5208877D01*
G01X589792Y5230204D01*
G01X590516Y5252017D01*
G01X587303Y5273604D01*
G01X580259Y5294261D01*
G01X569614Y5313314D01*
G01X555714Y5330141D01*
G01X555714Y5414059D01*
G01X569108Y5430153D01*
G01X579523Y5448317D01*
G01X586644Y5468007D01*
G01X590259Y5488631D01*
G01X590259Y5509569D01*
G01X586644Y5530193D01*
G01X579523Y5549883D01*
G01X569108Y5568047D01*
G01X555714Y5584141D01*
G01X555714Y5668059D01*
G01X569614Y5684886D01*
G01X580259Y5703939D01*
G01X587303Y5724596D01*
G01X590516Y5746183D01*
G01X589792Y5767996D01*
G01X585156Y5789323D01*
G01X576758Y5809468D01*
G01X564873Y5827774D01*
G01X549888Y5843642D01*
G01X532294Y5856555D01*
G01X512663Y5866093D01*
G01X491636Y5871942D01*
G01X469900Y5873914D01*
G01X448164Y5871942D01*
G01X427137Y5866093D01*
G01X407506Y5856555D01*
G01X389912Y5843642D01*
G01X374927Y5827774D01*
G01X363042Y5809468D01*
G01X354644Y5789323D01*
G01X350008Y5767996D01*
G01X349284Y5746183D01*
G01X352497Y5724596D01*
G01X359541Y5703939D01*
G01X370186Y5684886D01*
G01X384086Y5668059D01*
G01X384086Y5584141D01*
G01X370692Y5568047D01*
G01X360277Y5549883D01*
G01X353156Y5530193D01*
G01X349541Y5509569D01*
G01X349541Y5488631D01*
G01X353156Y5468007D01*
G01X360277Y5448317D01*
G01X370692Y5430153D01*
G01X384086Y5414059D01*
G01X384086Y5414059D01*
G01X384086Y5330141D01*
G01X370186Y5313314D01*
G01X359541Y5294261D01*
G01X352497Y5273604D01*
G01X349284Y5252017D01*
G01X35814Y5252017D01*
G01X35814Y6762183D01*
G01X349284Y6762183D01*
G01X352497Y6740596D01*
G01X359541Y6719939D01*
G01X370186Y6700886D01*
G01X384086Y6684059D01*
G01X384086Y6600141D01*
G01X370692Y6584047D01*
G01X360277Y6565883D01*
G01X353156Y6546193D01*
G01X349541Y6525569D01*
G01X349541Y6504631D01*
G01X353156Y6484007D01*
G01X360277Y6464317D01*
G01X370692Y6446153D01*
G01X384086Y6430059D01*
G01X384086Y6346141D01*
G01X370692Y6330047D01*
G01X360277Y6311883D01*
G01X353156Y6292193D01*
G01X349541Y6271569D01*
G01X349541Y6250631D01*
G01X353156Y6230007D01*
G01X360277Y6210317D01*
G01X370692Y6192153D01*
G01X384086Y6176059D01*
G01X384086Y6092141D01*
G01X384086Y6092141D01*
G01X370186Y6075314D01*
G01X359541Y6056261D01*
G01X352497Y6035604D01*
G01X349284Y6014017D01*
G01X350008Y5992204D01*
G01X354644Y5970877D01*
G01X363042Y5950732D01*
G01X374927Y5932426D01*
G01X389912Y5916558D01*
G01X407506Y5903645D01*
G01X427137Y5894107D01*
G01X448164Y5888258D01*
G01X469900Y5886286D01*
G01X491636Y5888258D01*
G01X512663Y5894107D01*
G01X532294Y5903645D01*
G01X549888Y5916558D01*
G01X564873Y5932426D01*
G01X576758Y5950732D01*
G01X585156Y5970877D01*
G01X589792Y5992204D01*
G01X590286Y6007100D01*
G01X603086Y6007100D01*
G01X605049Y5985411D01*
G01X610873Y5964428D01*
G01X620370Y5944830D01*
G01X633231Y5927256D01*
G01X649037Y5912276D01*
G01X667276Y5900377D01*
G01X687355Y5891946D01*
G01X708622Y5887256D01*
G01X730384Y5886460D01*
G01X751936Y5889584D01*
G01X772577Y5896526D01*
G01X791637Y5907061D01*
G01X808495Y5920847D01*
G01X822605Y5937435D01*
G01X833508Y5956286D01*
G01X893352Y5956286D01*
G01X901686Y5947952D01*
G01X901686Y5947952D01*
G01X901686Y5935409D01*
G01X893405Y5922888D01*
G01X888151Y5908825D01*
G01X886196Y5893942D01*
G01X887638Y5878999D01*
G01X892404Y5864764D01*
G01X900249Y5851966D01*
G01X910772Y5841260D01*
G01X923434Y5833195D01*
G01X937585Y5828185D01*
G01X952500Y5826486D01*
G01X967415Y5828185D01*
G01X981566Y5833195D01*
G01X994228Y5841260D01*
G01X1004751Y5851966D01*
G01X1012596Y5864764D01*
G01X1017362Y5878999D01*
G01X1018804Y5893942D01*
G01X1016849Y5908825D01*
G01X1011595Y5922888D01*
G01X1003314Y5935409D01*
G01X1003314Y5969000D01*
G01X1001583Y5982152D01*
G01X996506Y5994407D01*
G01X988431Y6004931D01*
G01X950331Y6043031D01*
G01X939807Y6051106D01*
G01X927552Y6056183D01*
G01X914400Y6057914D01*
G01X833508Y6057914D01*
G01X822605Y6076765D01*
G01X808495Y6093353D01*
G01X791637Y6107139D01*
G01X772577Y6117674D01*
G01X751936Y6124616D01*
G01X730384Y6127740D01*
G01X708622Y6126944D01*
G01X687355Y6122254D01*
G01X667276Y6113823D01*
G01X649037Y6101924D01*
G01X633231Y6086944D01*
G01X620370Y6069370D01*
G01X610873Y6049772D01*
G01X605049Y6028789D01*
G01X603086Y6007100D01*
G01X590286Y6007100D01*
G01X590516Y6014017D01*
G01X587303Y6035604D01*
G01X580259Y6056261D01*
G01X569614Y6075314D01*
G01X555714Y6092141D01*
G01X555714Y6176059D01*
G01X569108Y6192153D01*
G01X579523Y6210317D01*
G01X586644Y6230007D01*
G01X590259Y6250631D01*
G01X590259Y6261100D01*
G01X603086Y6261100D01*
G01X604922Y6240121D01*
G01X610372Y6219779D01*
G01X619272Y6200693D01*
G01X631351Y6183442D01*
G01X646242Y6168551D01*
G01X663493Y6156472D01*
G01X682579Y6147572D01*
G01X702921Y6142122D01*
G01X723900Y6140286D01*
G01X723900Y6140286D01*
G01X744879Y6142122D01*
G01X765221Y6147572D01*
G01X784307Y6156472D01*
G01X801558Y6168551D01*
G01X816449Y6183442D01*
G01X828528Y6200693D01*
G01X837428Y6219779D01*
G01X842878Y6240121D01*
G01X844714Y6261100D01*
G01X842878Y6282079D01*
G01X837428Y6302421D01*
G01X828528Y6321507D01*
G01X816449Y6338758D01*
G01X801558Y6353649D01*
G01X784307Y6365728D01*
G01X765221Y6374628D01*
G01X744879Y6380078D01*
G01X723900Y6381914D01*
G01X702921Y6380078D01*
G01X682579Y6374628D01*
G01X663493Y6365728D01*
G01X646242Y6353649D01*
G01X631351Y6338758D01*
G01X619272Y6321507D01*
G01X610372Y6302421D01*
G01X604922Y6282079D01*
G01X603086Y6261100D01*
G01X590259Y6261100D01*
G01X590259Y6271569D01*
G01X586644Y6292193D01*
G01X579523Y6311883D01*
G01X569108Y6330047D01*
G01X555714Y6346141D01*
G01X555714Y6430059D01*
G01X569108Y6446153D01*
G01X579523Y6464317D01*
G01X586644Y6484007D01*
G01X590259Y6504631D01*
G01X590259Y6515100D01*
G01X603086Y6515100D01*
G01X604922Y6494121D01*
G01X610372Y6473779D01*
G01X619272Y6454693D01*
G01X631351Y6437442D01*
G01X646242Y6422551D01*
G01X663493Y6410472D01*
G01X682579Y6401572D01*
G01X702921Y6396122D01*
G01X723900Y6394286D01*
G01X723900Y6394286D01*
G01X744879Y6396122D01*
G01X765221Y6401572D01*
G01X784307Y6410472D01*
G01X801558Y6422551D01*
G01X816449Y6437442D01*
G01X828528Y6454693D01*
G01X837428Y6473779D01*
G01X842878Y6494121D01*
G01X844714Y6515100D01*
G01X842878Y6536079D01*
G01X837428Y6556421D01*
G01X828528Y6575507D01*
G01X816449Y6592758D01*
G01X801558Y6607649D01*
G01X784307Y6619728D01*
G01X765221Y6628628D01*
G01X744879Y6634078D01*
G01X723900Y6635914D01*
G01X702921Y6634078D01*
G01X682579Y6628628D01*
G01X663493Y6619728D01*
G01X646242Y6607649D01*
G01X631351Y6592758D01*
G01X619272Y6575507D01*
G01X610372Y6556421D01*
G01X604922Y6536079D01*
G01X603086Y6515100D01*
G01X590259Y6515100D01*
G01X590259Y6525569D01*
G01X586644Y6546193D01*
G01X579523Y6565883D01*
G01X569108Y6584047D01*
G01X555714Y6600141D01*
G01X555714Y6684059D01*
G01X569614Y6700886D01*
G01X580259Y6719939D01*
G01X587303Y6740596D01*
G01X590516Y6762183D01*
G01X590286Y6769100D01*
G01X603086Y6769100D01*
G01X604922Y6748121D01*
G01X610372Y6727779D01*
G01X619272Y6708693D01*
G01X631351Y6691442D01*
G01X646242Y6676551D01*
G01X663493Y6664472D01*
G01X682579Y6655572D01*
G01X702921Y6650122D01*
G01X723900Y6648286D01*
G01X723900Y6648286D01*
G01X744879Y6650122D01*
G01X765221Y6655572D01*
G01X784307Y6664472D01*
G01X801558Y6676551D01*
G01X816449Y6691442D01*
G01X828528Y6708693D01*
G01X837428Y6727779D01*
G01X842878Y6748121D01*
G01X844714Y6769100D01*
G01X842878Y6790079D01*
G01X837428Y6810421D01*
G01X828528Y6829507D01*
G01X816449Y6846758D01*
G01X801558Y6861649D01*
G01X784307Y6873728D01*
G01X765221Y6882628D01*
G01X744879Y6888078D01*
G01X723900Y6889914D01*
G01X702921Y6888078D01*
G01X682579Y6882628D01*
G01X663493Y6873728D01*
G01X646242Y6861649D01*
G01X631351Y6846758D01*
G01X619272Y6829507D01*
G01X610372Y6810421D01*
G01X604922Y6790079D01*
G01X603086Y6769100D01*
G01X590286Y6769100D01*
G01X589792Y6783996D01*
G01X585156Y6805323D01*
G01X576758Y6825468D01*
G01X564873Y6843774D01*
G01X549888Y6859642D01*
G01X532294Y6872555D01*
G01X512663Y6882093D01*
G01X491636Y6887942D01*
G01X469900Y6889914D01*
G01X448164Y6887942D01*
G01X427137Y6882093D01*
G01X407506Y6872555D01*
G01X389912Y6859642D01*
G01X374927Y6843774D01*
G01X363042Y6825468D01*
G01X354644Y6805323D01*
G01X350008Y6783996D01*
G01X349284Y6762183D01*
G01X35814Y6762183D01*
G01X35814Y6934502D01*
G01X1112263Y6934502D01*
G01X1112284Y6654499D01*
G01X1114238Y6637397D01*
G01X1120000Y6621176D01*
G01X1129273Y6606674D01*
G01X1141577Y6594637D01*
G01X1156280Y6585686D01*
G01X1156280Y6439491D01*
G01X1158049Y6428376D01*
G01X1163178Y6418360D01*
G01X1171164Y6410429D01*
G01X1173721Y6395791D01*
G01X1179753Y6382211D01*
G01X1188898Y6370498D01*
G01X1277798Y6281598D01*
G01X1287014Y6274035D01*
G01X1297528Y6268415D01*
G01X1308936Y6264955D01*
G01X1320800Y6263786D01*
G01X1524210Y6263786D01*
G01X1615586Y6172410D01*
G01X1615586Y5981490D01*
G01X1587693Y5953597D01*
G01X1579207Y5974085D01*
G01X1573352Y5983639D01*
G01X1564832Y5990916D01*
G01X1554480Y5995204D01*
G01X1543309Y5996083D01*
G01X1532414Y5993467D01*
G01X1468138Y5966843D01*
G01X1468779Y5967475D01*
G01X1535604Y6034300D01*
G01X1549985Y6042139D01*
G01X1562006Y6053263D01*
G01X1570934Y6066995D01*
G01X1576224Y6082496D01*
G01X1577554Y6098820D01*
G01X1574842Y6114973D01*
G01X1568254Y6129968D01*
G01X1558191Y6142891D01*
G01X1545268Y6152954D01*
G01X1530273Y6159542D01*
G01X1514120Y6162254D01*
G01X1497796Y6160924D01*
G01X1482295Y6155634D01*
G01X1468563Y6146706D01*
G01X1457439Y6134685D01*
G01X1449600Y6120304D01*
G01X1405888Y6076592D01*
G01X1363279Y6058943D01*
G01X1355591Y6054577D01*
G01X1349207Y6048462D01*
G01X1340368Y6048272D01*
G01X1331845Y6045923D01*
G01X1285651Y6026789D01*
G01X1276098Y6020934D01*
G01X1268820Y6012413D01*
G01X1264532Y6002061D01*
G01X1263653Y5990891D01*
G01X1266269Y5979995D01*
G01X1286934Y5930105D01*
G01X1292095Y5921389D01*
G01X1299491Y5914466D01*
G01X1308529Y5909891D01*
G01X1318487Y5908030D01*
G01X1328567Y5909031D01*
G01X1318063Y5904680D01*
G01X1308509Y5898826D01*
G01X1301232Y5890305D01*
G01X1296944Y5879953D01*
G01X1296065Y5868783D01*
G01X1298681Y5857887D01*
G01X1354625Y5722826D01*
G01X1344460Y5708930D01*
G01X1337694Y5693098D01*
G01X1334673Y5676148D01*
G01X1335555Y5658954D01*
G01X1340294Y5642402D01*
G01X1447466Y5383720D01*
G01X1455816Y5368668D01*
G01X1467346Y5355887D01*
G01X1481463Y5346037D01*
G01X1497437Y5339625D01*
G01X1514447Y5336982D01*
G01X1570393Y5201915D01*
G01X1576248Y5192361D01*
G01X1584768Y5185084D01*
G01X1595120Y5180796D01*
G01X1606291Y5179917D01*
G01X1617186Y5182533D01*
G01X1636658Y5190598D01*
G01X1650558Y5176698D01*
G01X1659773Y5169135D01*
G01X1670287Y5163515D01*
G01X1681695Y5160055D01*
G01X1693560Y5158886D01*
G01X1761181Y5158886D01*
G01X1746958Y5156427D01*
G01X1733604Y5150949D01*
G01X1721751Y5142710D01*
G01X1711962Y5132103D01*
G01X1704699Y5119628D01*
G01X1700308Y5105878D01*
G01X1698997Y5091503D01*
G01X1700826Y5077185D01*
G01X1705711Y5063602D01*
G01X1713419Y5051398D01*
G01X1723584Y5041150D01*
G01X1735727Y5033345D01*
G01X1749270Y5028353D01*
G01X1763573Y5026408D01*
G01X1777958Y5027605D01*
G01X1791743Y5031886D01*
G01X1818853Y5031886D01*
G01X1787799Y5000832D01*
G01X1787799Y5000832D01*
G01X1781213Y4991767D01*
G01X1777751Y4981110D01*
G01X1777751Y4969905D01*
G01X1781213Y4959248D01*
G01X1787799Y4950183D01*
G01X1825983Y4911999D01*
G01X1835048Y4905413D01*
G01X1845705Y4901951D01*
G01X1856910Y4901951D01*
G01X1867567Y4905413D01*
G01X1876632Y4911999D01*
G01X1911987Y4947355D01*
G01X1917419Y4954330D01*
G01X1920977Y4962423D01*
G01X1929070Y4965981D01*
G01X1936045Y4971413D01*
G01X1971401Y5006768D01*
G01X1977987Y5015833D01*
G01X1981449Y5026490D01*
G01X1981449Y5037695D01*
G01X1977987Y5048352D01*
G01X1971401Y5057417D01*
G01X1893115Y5135702D01*
G01X1883900Y5143265D01*
G01X1873386Y5148885D01*
G01X1861978Y5152345D01*
G01X1850113Y5153514D01*
G01X1791743Y5153514D01*
G01X1780815Y5157174D01*
G01X1769419Y5158886D01*
G01X1789975Y5158886D01*
G01X1801840Y5160055D01*
G01X1813248Y5163515D01*
G01X1823762Y5169135D01*
G01X1832977Y5176698D01*
G01X1859978Y5203698D01*
G01X1860398Y5203698D01*
G01X2036494Y5027602D01*
G01X1995593Y4986700D01*
G01X1989026Y4977674D01*
G01X1985558Y4967065D01*
G01X1985524Y4955903D01*
G01X1988927Y4945273D01*
G01X1978297Y4948676D01*
G01X1967135Y4948642D01*
G01X1956526Y4945174D01*
G01X1947500Y4938607D01*
G01X1889518Y4880626D01*
G01X1882932Y4871560D01*
G01X1879469Y4860904D01*
G01X1879469Y4849699D01*
G01X1882932Y4839042D01*
G01X1889518Y4829977D01*
G01X1992889Y4726606D01*
G01X1988816Y4709877D01*
G01X1988623Y4692661D01*
G01X1992319Y4675846D01*
G01X1999714Y4660298D01*
G01X2010426Y4646819D01*
G01X2208433Y4448841D01*
G01X2221908Y4438130D01*
G01X2237452Y4430735D01*
G01X2254263Y4427037D01*
G01X2271475Y4427226D01*
G01X2288201Y4431294D01*
G01X2391577Y4327918D01*
G01X2398792Y4322344D01*
G01X2407182Y4318772D01*
G01X2416201Y4317435D01*
G01X2425266Y4318419D01*
G01X2435850Y4312700D01*
G01X2447353Y4309176D01*
G01X2459325Y4307986D01*
G01X2540000Y4307986D01*
G01X2551864Y4309155D01*
G01X2563272Y4312615D01*
G01X2573786Y4318235D01*
G01X2583002Y4325798D01*
G01X2691158Y4433954D01*
G01X2689627Y4421933D01*
G01X2690309Y4409834D01*
G01X2682978Y4405144D01*
G01X2676994Y4398825D01*
G01X2672711Y4391249D01*
G01X2653577Y4345055D01*
G01X2651228Y4336532D01*
G01X2651038Y4327693D01*
G01X2644923Y4321309D01*
G01X2640557Y4313621D01*
G01X2621423Y4267427D01*
G01X2618807Y4256532D01*
G01X2619686Y4245361D01*
G01X2623974Y4235009D01*
G01X2631252Y4226489D01*
G01X2640805Y4220634D01*
G01X2690695Y4199969D01*
G01X2701591Y4197353D01*
G01X2712761Y4198232D01*
G01X2723113Y4202520D01*
G01X2731634Y4209798D01*
G01X2737489Y4219351D01*
G01X2756623Y4265545D01*
G01X2758972Y4274068D01*
G01X2759162Y4282907D01*
G01X2765277Y4289291D01*
G01X2769643Y4296979D01*
G01X2776429Y4313361D01*
G01X2798902Y4335835D01*
G01X2806465Y4345050D01*
G01X2812085Y4355564D01*
G01X2815545Y4366972D01*
G01X2816714Y4378837D01*
G01X2816714Y4393157D01*
G01X2821337Y4408851D01*
G01X2821977Y4425199D01*
G01X2818595Y4441207D01*
G01X2811397Y4455899D01*
G01X2849979Y4417317D01*
G01X2845620Y4409637D01*
G01X2814240Y4333880D01*
G01X2811628Y4323028D01*
G01X2812483Y4311899D01*
G01X2816723Y4301573D01*
G01X2823936Y4293055D01*
G01X2812812Y4292132D01*
G01X2802513Y4287829D01*
G01X2794039Y4280564D01*
G01X2788212Y4271043D01*
G01X2756833Y4195286D01*
G01X2754217Y4184391D01*
G01X2755096Y4173220D01*
G01X2759384Y4162868D01*
G01X2766661Y4154348D01*
G01X2776215Y4148493D01*
G01X2911276Y4092549D01*
G01X2913915Y4075536D01*
G01X2920325Y4059556D01*
G01X2930175Y4045435D01*
G01X2942957Y4033900D01*
G01X2958012Y4025547D01*
G01X3216709Y3918413D01*
G01X3233257Y3913674D01*
G01X3250447Y3912790D01*
G01X3267394Y3915807D01*
G01X3283224Y3922569D01*
G01X3297120Y3932727D01*
G01X3432187Y3876781D01*
G01X3443083Y3874165D01*
G01X3454253Y3875044D01*
G01X3464605Y3879332D01*
G01X3473126Y3886609D01*
G01X3478980Y3896163D01*
G01X3487046Y3915634D01*
G01X3544937Y3915634D01*
G01X3556801Y3916803D01*
G01X3568209Y3920264D01*
G01X3578723Y3925883D01*
G01X3587939Y3933446D01*
G01X3637102Y3982610D01*
G01X3644665Y3991825D01*
G01X3650285Y4002339D01*
G01X3653745Y4013747D01*
G01X3654914Y4025612D01*
G01X3654914Y4037498D01*
G01X3658472Y4033057D01*
G01X3658286Y4029412D01*
G01X3658286Y3979412D01*
G01X3659377Y3970639D01*
G01X3662584Y3962400D01*
G01X3659377Y3954161D01*
G01X3658286Y3945388D01*
G01X3658286Y3895388D01*
G01X3660039Y3884321D01*
G01X3665126Y3874338D01*
G01X3673049Y3866414D01*
G01X3683033Y3861327D01*
G01X3694100Y3859574D01*
G01X3748100Y3859574D01*
G01X3759167Y3861327D01*
G01X3769151Y3866414D01*
G01X3777074Y3874338D01*
G01X3782161Y3884321D01*
G01X3783914Y3895388D01*
G01X3783914Y3945388D01*
G01X3782823Y3954161D01*
G01X3779616Y3962400D01*
G01X3782823Y3970639D01*
G01X3783914Y3979412D01*
G01X3783914Y4029412D01*
G01X3781914Y4041213D01*
G01X3781914Y4064000D01*
G01X3780170Y4078458D01*
G01X3775040Y4092086D01*
G01X3800177Y4092086D01*
G01X3800177Y4021807D01*
G01X3801916Y4010781D01*
G01X3806965Y4000827D01*
G01X3814834Y3992910D01*
G01X3824758Y3987800D01*
G01X3814834Y3982690D01*
G01X3806965Y3974773D01*
G01X3801916Y3964819D01*
G01X3800177Y3953793D01*
G01X3800177Y3871794D01*
G01X3801929Y3860727D01*
G01X3807016Y3850743D01*
G01X3814940Y3842820D01*
G01X3824923Y3837733D01*
G01X3835991Y3835980D01*
G01X3982179Y3835980D01*
G01X3991128Y3821272D01*
G01X4003165Y3808962D01*
G01X4017669Y3799685D01*
G01X4033892Y3793920D01*
G01X4050998Y3791963D01*
G01X4331001Y3791984D01*
G01X4348103Y3793938D01*
G01X4364324Y3799700D01*
G01X4378826Y3808973D01*
G01X4390863Y3821277D01*
G01X4399814Y3835980D01*
G01X4546009Y3835980D01*
G01X4557575Y3837899D01*
G01X4567902Y3843451D01*
G01X4575882Y3852039D01*
G01X4590658Y3854542D01*
G01X4604374Y3860581D01*
G01X4616196Y3869792D01*
G01X4649028Y3902624D01*
G01X4655324Y3889382D01*
G01X4664375Y3877847D01*
G01X4675740Y3868582D01*
G01X4688864Y3862042D01*
G01X4703103Y3858545D01*
G01X4717763Y3858264D01*
G01X4732127Y3861210D01*
G01X4745492Y3867242D01*
G01X4757205Y3876062D01*
G01X4766693Y3887241D01*
G01X4773492Y3900232D01*
G01X4777271Y3914400D01*
G01X4785611Y3908762D01*
G01X4795192Y3905668D01*
G01X4805254Y3905362D01*
G01X4815005Y3907869D01*
G01X4864895Y3928534D01*
G01X4874448Y3934389D01*
G01X4881726Y3942909D01*
G01X4886014Y3953261D01*
G01X4886893Y3964432D01*
G01X4884277Y3975327D01*
G01X4865143Y4021521D01*
G01X4860777Y4029209D01*
G01X4854662Y4035593D01*
G01X4854472Y4044432D01*
G01X4852123Y4052955D01*
G01X4832989Y4099149D01*
G01X4827134Y4108702D01*
G01X4818613Y4115980D01*
G01X4808261Y4120268D01*
G01X4797091Y4121147D01*
G01X4786195Y4118531D01*
G01X4736305Y4097866D01*
G01X4727885Y4092940D01*
G01X4721106Y4085923D01*
G01X4716472Y4077338D01*
G01X4714326Y4067821D01*
G01X4696314Y4049809D01*
G01X4696314Y4127710D01*
G01X4749590Y4180986D01*
G01X4816605Y4180986D01*
G01X4845612Y4110957D01*
G01X4851439Y4101436D01*
G01X4859913Y4094171D01*
G01X4870212Y4089868D01*
G01X4881336Y4088945D01*
G01X4874123Y4080427D01*
G01X4869883Y4070101D01*
G01X4869028Y4058972D01*
G01X4871640Y4048120D01*
G01X4903020Y3972363D01*
G01X4908874Y3962809D01*
G01X4917395Y3955532D01*
G01X4927747Y3951244D01*
G01X4938917Y3950365D01*
G01X4949813Y3952981D01*
G01X5084874Y4008925D01*
G01X5098770Y3998760D01*
G01X5114602Y3991994D01*
G01X5131552Y3988973D01*
G01X5148746Y3989855D01*
G01X5165298Y3994594D01*
G01X5423980Y4101766D01*
G01X5439032Y4110116D01*
G01X5451813Y4121646D01*
G01X5461663Y4135763D01*
G01X5468075Y4151737D01*
G01X5470718Y4168747D01*
G01X5567365Y4208779D01*
G01X5578277Y4213299D01*
G01X5605785Y4224693D01*
G01X5615066Y4230317D01*
G01X5622236Y4238462D01*
G01X5626638Y4248381D01*
G01X5627867Y4259163D01*
G01X5643702Y4274998D01*
G01X5651265Y4284214D01*
G01X5656885Y4294728D01*
G01X5660345Y4306136D01*
G01X5661514Y4318000D01*
G01X5661514Y4526782D01*
G01X5679769Y4508527D01*
G01X5686699Y4498768D01*
G01X5722055Y4463413D01*
G01X5729030Y4457981D01*
G01X5737123Y4454423D01*
G01X5740681Y4446330D01*
G01X5746113Y4439355D01*
G01X5781468Y4403999D01*
G01X5790533Y4397413D01*
G01X5801190Y4393951D01*
G01X5812395Y4393951D01*
G01X5823052Y4397413D01*
G01X5832117Y4403999D01*
G01X5870301Y4442183D01*
G01X5876887Y4451248D01*
G01X5880349Y4461905D01*
G01X5880349Y4473110D01*
G01X5876887Y4483767D01*
G01X5870301Y4492832D01*
G01X5834945Y4528187D01*
G01X5827970Y4533619D01*
G01X5819877Y4537177D01*
G01X5816319Y4545270D01*
G01X5810887Y4552245D01*
G01X5775532Y4587601D01*
G01X5768473Y4593082D01*
G01X5768213Y4604681D01*
G01X5765936Y4616057D01*
G01X5795600Y4586393D01*
G01X5804626Y4579826D01*
G01X5815235Y4576358D01*
G01X5826397Y4576324D01*
G01X5837027Y4579727D01*
G01X5833624Y4569097D01*
G01X5833658Y4557935D01*
G01X5837126Y4547326D01*
G01X5843693Y4538300D01*
G01X5901674Y4480318D01*
G01X5910740Y4473732D01*
G01X5921396Y4470269D01*
G01X5932601Y4470269D01*
G01X5943258Y4473732D01*
G01X5952323Y4480318D01*
G01X6055694Y4583689D01*
G01X6072423Y4579616D01*
G01X6089639Y4579423D01*
G01X6106454Y4583119D01*
G01X6122002Y4590514D01*
G01X6135481Y4601226D01*
G01X6333459Y4799233D01*
G01X6344170Y4812708D01*
G01X6351565Y4828252D01*
G01X6355263Y4845063D01*
G01X6355074Y4862275D01*
G01X6351006Y4879001D01*
G01X6454382Y4982377D01*
G01X6461193Y4991891D01*
G01X6464574Y5003092D01*
G01X6464164Y5014786D01*
G01X6481902Y5032523D01*
G01X6489465Y5041739D01*
G01X6495085Y5052253D01*
G01X6498545Y5063661D01*
G01X6499714Y5075525D01*
G01X6499714Y5130800D01*
G01X6498593Y5142424D01*
G01X6495270Y5153620D01*
G01X6509966Y5156559D01*
G01X6523627Y5162722D01*
G01X6535555Y5171795D01*
G01X6545141Y5183315D01*
G01X6551895Y5196694D01*
G01X6555473Y5211247D01*
G01X6555692Y5226232D01*
G01X6552539Y5240884D01*
G01X6591073Y5224923D01*
G01X6601968Y5222307D01*
G01X6613139Y5223186D01*
G01X6623491Y5227474D01*
G01X6632011Y5234752D01*
G01X6637866Y5244305D01*
G01X6658531Y5294195D01*
G01X6661147Y5305091D01*
G01X6660268Y5316261D01*
G01X6655980Y5326613D01*
G01X6648702Y5335134D01*
G01X6639149Y5340989D01*
G01X6592955Y5360123D01*
G01X6584432Y5362472D01*
G01X6575593Y5362662D01*
G01X6569209Y5368777D01*
G01X6561521Y5373143D01*
G01X6515327Y5392277D01*
G01X6504432Y5394893D01*
G01X6493261Y5394014D01*
G01X6482909Y5389726D01*
G01X6474389Y5382448D01*
G01X6468534Y5372895D01*
G01X6462831Y5359125D01*
G01X6446698Y5342993D01*
G01X6439135Y5333777D01*
G01X6433515Y5323263D01*
G01X6430055Y5311855D01*
G01X6428886Y5299991D01*
G01X6428886Y5246143D01*
G01X6424408Y5231296D01*
G01X6398114Y5257590D01*
G01X6398114Y5410410D01*
G01X6434708Y5447004D01*
G01X6441122Y5440825D01*
G01X6448863Y5436420D01*
G01X6524620Y5405040D01*
G01X6535472Y5402428D01*
G01X6546601Y5403283D01*
G01X6556927Y5407523D01*
G01X6565445Y5414736D01*
G01X6566368Y5403612D01*
G01X6570671Y5393313D01*
G01X6577936Y5384839D01*
G01X6587457Y5379012D01*
G01X6663214Y5347633D01*
G01X6674109Y5345017D01*
G01X6685280Y5345896D01*
G01X6695632Y5350184D01*
G01X6704152Y5357461D01*
G01X6710007Y5367015D01*
G01X6765951Y5502076D01*
G01X6782964Y5504715D01*
G01X6798944Y5511125D01*
G01X6813065Y5520975D01*
G01X6824600Y5533757D01*
G01X6832953Y5548812D01*
G01X6940087Y5807509D01*
G01X6944826Y5824057D01*
G01X6945710Y5841247D01*
G01X6942693Y5858194D01*
G01X6935931Y5874024D01*
G01X6925773Y5887920D01*
G01X6981719Y6022987D01*
G01X6984385Y6034605D01*
G01X6983089Y6046455D01*
G01X6977977Y6057223D01*
G01X6969614Y6065716D01*
G01X6969614Y6083300D01*
G01X6968445Y6095164D01*
G01X6964985Y6106572D01*
G01X6959365Y6117086D01*
G01X6951802Y6126302D01*
G01X6946818Y6131286D01*
G01X6961979Y6133023D01*
G01X6976342Y6138180D01*
G01X6989145Y6146483D01*
G01X6999711Y6157494D01*
G01X7007481Y6170628D01*
G01X7012043Y6185191D01*
G01X7013154Y6200410D01*
G01X7010758Y6215481D01*
G01X7004979Y6229605D01*
G01X6996125Y6242034D01*
G01X6984665Y6252110D01*
G01X6971204Y6259300D01*
G01X6956018Y6274486D01*
G01X6988512Y6274486D01*
G01X6999579Y6276239D01*
G01X7009562Y6281326D01*
G01X7017486Y6289249D01*
G01X7022573Y6299233D01*
G01X7024326Y6310300D01*
G01X7024326Y6364300D01*
G01X7022573Y6375367D01*
G01X7017486Y6385351D01*
G01X7009562Y6393274D01*
G01X6999579Y6398361D01*
G01X6988512Y6400114D01*
G01X6938512Y6400114D01*
G01X6929739Y6399023D01*
G01X6921500Y6395816D01*
G01X6913261Y6399023D01*
G01X6904488Y6400114D01*
G01X6854488Y6400114D01*
G01X6843421Y6398361D01*
G01X6833438Y6393274D01*
G01X6825514Y6385351D01*
G01X6820427Y6375367D01*
G01X6818674Y6364300D01*
G01X6818674Y6265012D01*
G01X6818958Y6259146D01*
G01X6741014Y6337090D01*
G01X6741014Y6413710D01*
G01X6758061Y6430758D01*
G01X6762787Y6419940D01*
G01X6770773Y6411247D01*
G01X6781151Y6405622D01*
G01X6792794Y6403677D01*
G01X6874793Y6403677D01*
G01X6885819Y6405416D01*
G01X6895773Y6410465D01*
G01X6903690Y6418334D01*
G01X6908800Y6428258D01*
G01X6913910Y6418334D01*
G01X6921827Y6410465D01*
G01X6931781Y6405416D01*
G01X6942807Y6403677D01*
G01X7024806Y6403677D01*
G01X7035873Y6405429D01*
G01X7045857Y6410516D01*
G01X7053780Y6418440D01*
G01X7058867Y6428423D01*
G01X7060620Y6439491D01*
G01X7060620Y6585679D01*
G01X7075328Y6594628D01*
G01X7087638Y6606665D01*
G01X7096915Y6621169D01*
G01X7102680Y6637392D01*
G01X7104637Y6654498D01*
G01X7104616Y6934501D01*
G01X7102662Y6951603D01*
G01X7096900Y6967824D01*
G01X7087627Y6982326D01*
G01X7075323Y6994363D01*
G01X7060620Y7003314D01*
G01X7060620Y7149509D01*
G01X7058701Y7161075D01*
G01X7053149Y7171402D01*
G01X7044561Y7179382D01*
G01X7042058Y7194158D01*
G01X7036019Y7207874D01*
G01X7026808Y7219696D01*
G01X6977202Y7269302D01*
G01X6967986Y7276865D01*
G01X6957472Y7282485D01*
G01X6946064Y7285945D01*
G01X6934200Y7287114D01*
G01X6806990Y7287114D01*
G01X6781718Y7312386D01*
G01X6795264Y7313767D01*
G01X6808243Y7317886D01*
G01X6835263Y7317886D01*
G01X6847128Y7319055D01*
G01X6858536Y7322515D01*
G01X6869050Y7328135D01*
G01X6878265Y7335698D01*
G01X6900739Y7358171D01*
G01X6917121Y7364957D01*
G01X6924809Y7369323D01*
G01X6931193Y7375438D01*
G01X6940032Y7375628D01*
G01X6948555Y7377977D01*
G01X6994749Y7397111D01*
G01X7004302Y7402966D01*
G01X7011580Y7411487D01*
G01X7015868Y7421839D01*
G01X7016747Y7433009D01*
G01X7014131Y7443905D01*
G01X6993466Y7493795D01*
G01X6987611Y7503348D01*
G01X6979091Y7510626D01*
G01X6968739Y7514914D01*
G01X6957568Y7515793D01*
G01X6946673Y7513177D01*
G01X6900479Y7494043D01*
G01X6892791Y7489677D01*
G01X6886407Y7483562D01*
G01X6877568Y7483372D01*
G01X6869045Y7481023D01*
G01X6822851Y7461889D01*
G01X6814472Y7456995D01*
G01X6807714Y7450031D01*
G01X6803073Y7441509D01*
G01X6789459Y7444570D01*
G01X6775506Y7444715D01*
G01X6761832Y7441936D01*
G01X6749041Y7436358D01*
G01X6737701Y7428226D01*
G01X6728314Y7417902D01*
G01X6728314Y7440907D01*
G01X6738307Y7440634D01*
G01X6747986Y7443133D01*
G01X6823743Y7474512D01*
G01X6833264Y7480339D01*
G01X6840529Y7488813D01*
G01X6844832Y7499112D01*
G01X6845755Y7510236D01*
G01X6854273Y7503023D01*
G01X6864599Y7498783D01*
G01X6875728Y7497928D01*
G01X6886580Y7500540D01*
G01X6962337Y7531920D01*
G01X6971891Y7537774D01*
G01X6979168Y7546295D01*
G01X6983456Y7556647D01*
G01X6984335Y7567817D01*
G01X6981719Y7578713D01*
G01X6925775Y7713774D01*
G01X6935940Y7727670D01*
G01X6942706Y7743502D01*
G01X6945727Y7760452D01*
G01X6944845Y7777646D01*
G01X6940106Y7794198D01*
G01X6832934Y8052880D01*
G01X6824584Y8067932D01*
G01X6813054Y8080713D01*
G01X6798937Y8090563D01*
G01X6782963Y8096975D01*
G01X6765953Y8099618D01*
G01X6710007Y8234685D01*
G01X6704152Y8244239D01*
G01X6695632Y8251516D01*
G01X6685280Y8255804D01*
G01X6674109Y8256683D01*
G01X6663214Y8254067D01*
G01X6643742Y8246002D01*
G01X6624409Y8265336D01*
G01X6640178Y8269181D01*
G01X6654540Y8276742D01*
G01X6666635Y8287565D01*
G01X6675740Y8301002D01*
G01X6681307Y8316249D01*
G01X6683003Y8332391D01*
G01X6680728Y8348461D01*
G01X6674617Y8363498D01*
G01X6665036Y8376600D01*
G01X6652560Y8386982D01*
G01X6637936Y8394022D01*
G01X6622039Y8397299D01*
G01X6605822Y8396616D01*
G01X6590257Y8392014D01*
G01X6550447Y8392014D01*
G01X6556101Y8397668D01*
G01X6562687Y8406733D01*
G01X6566149Y8417390D01*
G01X6566149Y8428595D01*
G01X6562687Y8439252D01*
G01X6556101Y8448317D01*
G01X6517917Y8486501D01*
G01X6508201Y8493410D01*
G01X6496755Y8496748D01*
G01X6505182Y8505174D01*
G01X6511768Y8514240D01*
G01X6515231Y8524896D01*
G01X6515231Y8536101D01*
G01X6511768Y8546758D01*
G01X6505182Y8555823D01*
G01X6401811Y8659194D01*
G01X6405884Y8675923D01*
G01X6406077Y8693139D01*
G01X6402381Y8709954D01*
G01X6394986Y8725502D01*
G01X6384274Y8738981D01*
G01X6186267Y8936959D01*
G01X6172792Y8947670D01*
G01X6157248Y8955065D01*
G01X6140437Y8958763D01*
G01X6123225Y8958574D01*
G01X6106499Y8954506D01*
G01X6003123Y9057882D01*
G01X5995908Y9063456D01*
G01X5987518Y9067028D01*
G01X5978499Y9068365D01*
G01X5969434Y9067381D01*
G01X5958850Y9073100D01*
G01X5947347Y9076624D01*
G01X5935375Y9077814D01*
G01X5887218Y9077814D01*
G01X5904404Y9095000D01*
G01X5918785Y9102839D01*
G01X5930806Y9113963D01*
G01X5939734Y9127695D01*
G01X5945024Y9143196D01*
G01X5946354Y9159520D01*
G01X5943642Y9175673D01*
G01X5937054Y9190668D01*
G01X5926991Y9203591D01*
G01X5914068Y9213654D01*
G01X5899073Y9220242D01*
G01X5882920Y9222954D01*
G01X5866596Y9221624D01*
G01X5851095Y9216334D01*
G01X5837363Y9207406D01*
G01X5826239Y9195385D01*
G01X5818400Y9181004D01*
G01X5784116Y9146720D01*
G01X5798677Y9181873D01*
G01X5801293Y9192768D01*
G01X5800414Y9203939D01*
G01X5796126Y9214291D01*
G01X5788848Y9222811D01*
G01X5779295Y9228666D01*
G01X5729405Y9249331D01*
G01X5718509Y9251947D01*
G01X5707339Y9251068D01*
G01X5696987Y9246780D01*
G01X5688466Y9239502D01*
G01X5682611Y9229949D01*
G01X5663477Y9183755D01*
G01X5661128Y9175232D01*
G01X5660938Y9166393D01*
G01X5654823Y9160009D01*
G01X5650457Y9152321D01*
G01X5636318Y9118186D01*
G01X5617132Y9137372D01*
G01X5618560Y9140820D01*
G01X5621172Y9151672D01*
G01X5620317Y9162801D01*
G01X5616077Y9173127D01*
G01X5608864Y9181645D01*
G01X5619988Y9182568D01*
G01X5630287Y9186871D01*
G01X5638761Y9194136D01*
G01X5644588Y9203657D01*
G01X5675967Y9279414D01*
G01X5678583Y9290309D01*
G01X5677704Y9301480D01*
G01X5673416Y9311832D01*
G01X5666139Y9320352D01*
G01X5656585Y9326207D01*
G01X5521524Y9382151D01*
G01X5518885Y9399164D01*
G01X5512475Y9415144D01*
G01X5502625Y9429265D01*
G01X5489843Y9440800D01*
G01X5474788Y9449153D01*
G01X5216091Y9556287D01*
G01X5199543Y9561026D01*
G01X5182353Y9561910D01*
G01X5165406Y9558893D01*
G01X5149576Y9552131D01*
G01X5135680Y9541973D01*
G01X5045394Y9579370D01*
G01X5018662Y9606102D01*
G01X5009447Y9613665D01*
G01X4998933Y9619285D01*
G01X4987524Y9622745D01*
G01X4975660Y9623914D01*
G01X4838700Y9623914D01*
G01X4826836Y9622745D01*
G01X4815428Y9619285D01*
G01X4804914Y9613665D01*
G01X4795698Y9606102D01*
G01X4763742Y9574146D01*
G01X4765313Y9588830D01*
G01X4763596Y9603498D01*
G01X4758675Y9617421D01*
G01X4750795Y9629911D01*
G01X4740346Y9640347D01*
G01X4727846Y9648211D01*
G01X4713916Y9653115D01*
G01X4699246Y9654814D01*
G01X4684564Y9653224D01*
G01X4670598Y9648424D01*
G01X4658040Y9640652D01*
G01X4647514Y9630294D01*
G01X4647514Y9655512D01*
G01X4645761Y9666579D01*
G01X4640674Y9676562D01*
G01X4632751Y9684486D01*
G01X4622767Y9689573D01*
G01X4611700Y9691326D01*
G01X4557700Y9691326D01*
G01X4546633Y9689573D01*
G01X4536649Y9684486D01*
G01X4528726Y9676562D01*
G01X4523639Y9666579D01*
G01X4521886Y9655512D01*
G01X4521886Y9605512D01*
G01X4522977Y9596739D01*
G01X4526184Y9588500D01*
G01X4522977Y9580261D01*
G01X4521886Y9571488D01*
G01X4521886Y9535014D01*
G01X4520990Y9535014D01*
G01X4512208Y9543796D01*
G01X4501098Y9552574D01*
G01X4488260Y9558546D01*
G01X4474389Y9561387D01*
G01X4466239Y9570185D01*
G01X4455642Y9575800D01*
G01X4465566Y9580910D01*
G01X4473435Y9588827D01*
G01X4478484Y9598781D01*
G01X4480223Y9609807D01*
G01X4480223Y9691806D01*
G01X4478471Y9702873D01*
G01X4473384Y9712857D01*
G01X4465460Y9720780D01*
G01X4455477Y9725867D01*
G01X4444409Y9727620D01*
G01X4298221Y9727620D01*
G01X4289272Y9742328D01*
G01X4277235Y9754638D01*
G01X4262731Y9763915D01*
G01X4246508Y9769680D01*
G01X4229402Y9771637D01*
G01X3949399Y9771616D01*
G01X3932297Y9769662D01*
G01X3916076Y9763900D01*
G01X3901574Y9754627D01*
G01X3889537Y9742323D01*
G01X3880586Y9727620D01*
G01X3734391Y9727620D01*
G01X3722847Y9725708D01*
G01X3712536Y9720178D01*
G01X3704557Y9711620D01*
G01X3694506Y9711620D01*
G01X3682642Y9710452D01*
G01X3671234Y9706991D01*
G01X3660720Y9701371D01*
G01X3651504Y9693808D01*
G01X3614598Y9656902D01*
G01X3607035Y9647686D01*
G01X3601415Y9637172D01*
G01X3597955Y9625764D01*
G01X3596786Y9613900D01*
G01X3596786Y9410490D01*
G01X3462198Y9275902D01*
G01X3454635Y9266686D01*
G01X3449015Y9256172D01*
G01X3445555Y9244764D01*
G01X3444386Y9232900D01*
G01X3444386Y8917896D01*
G01X3161899Y8917896D01*
G01X3370402Y9126398D01*
G01X3377965Y9135614D01*
G01X3383585Y9146128D01*
G01X3387045Y9157536D01*
G01X3388214Y9169400D01*
G01X3388214Y9354957D01*
G01X3388140Y9357952D01*
G01X3395972Y9364373D01*
G01X3401694Y9372729D01*
G01X3404848Y9382353D01*
G01X3405181Y9392476D01*
G01X3402667Y9402286D01*
G01X3384186Y9446904D01*
G01X3394280Y9445034D01*
G01X3414444Y9424870D01*
G01X3418683Y9410365D01*
G01X3426096Y9397197D01*
G01X3436298Y9386049D01*
G01X3448759Y9377500D01*
G01X3462832Y9371994D01*
G01X3477786Y9369817D01*
G01X3492844Y9371082D01*
G01X3507226Y9375723D01*
G01X3520183Y9383500D01*
G01X3531043Y9394008D01*
G01X3539242Y9406702D01*
G01X3544354Y9420922D01*
G01X3546114Y9435931D01*
G01X3544430Y9450949D01*
G01X3539390Y9465195D01*
G01X3531256Y9477931D01*
G01X3522802Y9488520D01*
G01X3466320Y9545002D01*
G01X3459534Y9561385D01*
G01X3455168Y9569072D01*
G01X3449053Y9575457D01*
G01X3448863Y9584295D01*
G01X3446514Y9592818D01*
G01X3427379Y9639012D01*
G01X3421525Y9648566D01*
G01X3413004Y9655843D01*
G01X3402652Y9660131D01*
G01X3391482Y9661010D01*
G01X3380586Y9658394D01*
G01X3330696Y9637729D01*
G01X3323148Y9633467D01*
G01X3316844Y9627515D01*
G01X3312155Y9620224D01*
G01X3305852Y9628518D01*
G01X3297428Y9634647D01*
G01X3287597Y9638093D01*
G01X3277189Y9638564D01*
G01X3267087Y9636019D01*
G01X3132026Y9580075D01*
G01X3118130Y9590240D01*
G01X3102298Y9597006D01*
G01X3085348Y9600027D01*
G01X3068154Y9599145D01*
G01X3051602Y9594406D01*
G01X2792920Y9487234D01*
G01X2777868Y9478884D01*
G01X2765087Y9467354D01*
G01X2755237Y9453237D01*
G01X2748825Y9437263D01*
G01X2746182Y9420253D01*
G01X2611115Y9364307D01*
G01X2601561Y9358452D01*
G01X2594284Y9349932D01*
G01X2589996Y9339580D01*
G01X2589117Y9328409D01*
G01X2591733Y9317514D01*
G01X2599798Y9298042D01*
G01X2585898Y9284142D01*
G01X2578335Y9274927D01*
G01X2572715Y9264413D01*
G01X2569255Y9253005D01*
G01X2568086Y9241140D01*
G01X2568086Y9131300D01*
G01X2569255Y9119436D01*
G01X2572715Y9108028D01*
G01X2578335Y9097514D01*
G01X2585898Y9088298D01*
G01X2669686Y9004510D01*
G01X2669686Y8978690D01*
G01X2633597Y8942601D01*
G01X2640253Y8955779D01*
G01X2643828Y8970103D01*
G01X2644145Y8984862D01*
G01X2641190Y8999327D01*
G01X2635107Y9012778D01*
G01X2629281Y9024445D01*
G01X2621102Y9034602D01*
G01X2562531Y9093173D01*
G01X2555601Y9102932D01*
G01X2520245Y9138287D01*
G01X2513270Y9143719D01*
G01X2505177Y9147277D01*
G01X2501619Y9155370D01*
G01X2496187Y9162345D01*
G01X2460832Y9197701D01*
G01X2451767Y9204287D01*
G01X2441110Y9207749D01*
G01X2429905Y9207749D01*
G01X2419248Y9204287D01*
G01X2410183Y9197701D01*
G01X2371999Y9159517D01*
G01X2366264Y9152024D01*
G01X2362685Y9143293D01*
G01X2361511Y9133930D01*
G01X2362822Y9124586D01*
G01X2340626Y9146782D01*
G01X2331560Y9153368D01*
G01X2320904Y9156831D01*
G01X2309699Y9156831D01*
G01X2299042Y9153368D01*
G01X2289977Y9146782D01*
G01X2186606Y9043411D01*
G01X2169877Y9047484D01*
G01X2152661Y9047677D01*
G01X2135846Y9043981D01*
G01X2120298Y9036586D01*
G01X2106819Y9025874D01*
G01X1908841Y8827867D01*
G01X1898130Y8814392D01*
G01X1890735Y8798848D01*
G01X1887037Y8782037D01*
G01X1887226Y8764825D01*
G01X1891294Y8748099D01*
G01X1787918Y8644723D01*
G01X1781107Y8635209D01*
G01X1777726Y8624008D01*
G01X1778136Y8612314D01*
G01X1773098Y8607277D01*
G01X1765535Y8598061D01*
G01X1759915Y8587547D01*
G01X1756455Y8576139D01*
G01X1755286Y8564275D01*
G01X1755286Y8496300D01*
G01X1756455Y8484436D01*
G01X1759915Y8473028D01*
G01X1765535Y8462514D01*
G01X1773098Y8453298D01*
G01X1920386Y8306010D01*
G01X1920386Y8246419D01*
G01X1917572Y8261833D01*
G01X1911220Y8276157D01*
G01X1901684Y8288590D01*
G01X1889497Y8298440D01*
G01X1875340Y8305154D01*
G01X1860002Y8308360D01*
G01X1817308Y8351054D01*
G01X1812853Y8355014D01*
G01X1807107Y8359962D01*
G01X1800449Y8363589D01*
G01X1754255Y8382723D01*
G01X1745732Y8385072D01*
G01X1736893Y8385262D01*
G01X1730509Y8391377D01*
G01X1722821Y8395743D01*
G01X1676627Y8414877D01*
G01X1665732Y8417493D01*
G01X1654561Y8416614D01*
G01X1644209Y8412326D01*
G01X1635689Y8405048D01*
G01X1629834Y8395495D01*
G01X1609169Y8345605D01*
G01X1606553Y8334709D01*
G01X1607432Y8323539D01*
G01X1611720Y8313187D01*
G01X1618998Y8304666D01*
G01X1628551Y8298811D01*
G01X1674745Y8279677D01*
G01X1683268Y8277328D01*
G01X1692107Y8277138D01*
G01X1698491Y8271023D01*
G01X1706179Y8266657D01*
G01X1752373Y8247523D01*
G01X1760721Y8245200D01*
G01X1769383Y8244950D01*
G01X1777851Y8246787D01*
G01X1788140Y8236498D01*
G01X1789889Y8226123D01*
G01X1793258Y8216155D01*
G01X1717680Y8247460D01*
G01X1706828Y8250072D01*
G01X1695699Y8249217D01*
G01X1685373Y8244977D01*
G01X1676855Y8237764D01*
G01X1675932Y8248888D01*
G01X1671629Y8259187D01*
G01X1664364Y8267661D01*
G01X1654843Y8273488D01*
G01X1579086Y8304867D01*
G01X1568191Y8307483D01*
G01X1557020Y8306604D01*
G01X1546668Y8302316D01*
G01X1538148Y8295039D01*
G01X1532293Y8285485D01*
G01X1476349Y8150424D01*
G01X1459336Y8147785D01*
G01X1443356Y8141375D01*
G01X1429235Y8131525D01*
G01X1417700Y8118743D01*
G01X1409347Y8103688D01*
G01X1302213Y7844991D01*
G01X1297474Y7828443D01*
G01X1296590Y7811253D01*
G01X1299607Y7794306D01*
G01X1306369Y7778476D01*
G01X1316527Y7764580D01*
G01X1260581Y7629513D01*
G01X1257915Y7617895D01*
G01X1259211Y7606045D01*
G01X1264323Y7595277D01*
G01X1272686Y7586784D01*
G01X1272686Y7496175D01*
G01X1273855Y7484311D01*
G01X1277315Y7472903D01*
G01X1282935Y7462389D01*
G01X1290498Y7453173D01*
G01X1431157Y7312514D01*
G01X1374213Y7312514D01*
G01X1362412Y7314514D01*
G01X1312412Y7314514D01*
G01X1303639Y7313423D01*
G01X1295400Y7310216D01*
G01X1287161Y7313423D01*
G01X1278388Y7314514D01*
G01X1228388Y7314514D01*
G01X1217321Y7312761D01*
G01X1207338Y7307674D01*
G01X1199414Y7299751D01*
G01X1194327Y7289767D01*
G01X1192574Y7278700D01*
G01X1192574Y7224700D01*
G01X1194327Y7213633D01*
G01X1199414Y7203649D01*
G01X1207338Y7195726D01*
G01X1217321Y7190639D01*
G01X1228388Y7188886D01*
G01X1278388Y7188886D01*
G01X1287161Y7189977D01*
G01X1295400Y7193184D01*
G01X1303639Y7189977D01*
G01X1312412Y7188886D01*
G01X1362412Y7188886D01*
G01X1374213Y7190886D01*
G01X1404434Y7190886D01*
G01X1408361Y7185323D01*
G01X1342107Y7185323D01*
G01X1331081Y7183584D01*
G01X1321127Y7178535D01*
G01X1313210Y7170666D01*
G01X1308100Y7160742D01*
G01X1302990Y7170666D01*
G01X1295073Y7178535D01*
G01X1285119Y7183584D01*
G01X1274093Y7185323D01*
G01X1192094Y7185323D01*
G01X1181027Y7183571D01*
G01X1171043Y7178484D01*
G01X1163120Y7170560D01*
G01X1158033Y7160577D01*
G01X1156280Y7149509D01*
G01X1156280Y7003321D01*
G01X1141572Y6994372D01*
G01X1129262Y6982335D01*
G01X1119985Y6967831D01*
G01X1114220Y6951608D01*
G01X1112263Y6934502D01*
G01X35814Y6934502D01*
G01X35814Y9125740D01*
G01X276259Y9125740D01*
G01X276987Y9079252D01*
G01X281743Y9033002D01*
G01X290490Y8987339D01*
G01X303163Y8942606D01*
G01X319666Y8899139D01*
G01X339875Y8857267D01*
G01X363638Y8817305D01*
G01X390776Y8779553D01*
G01X421084Y8744296D01*
G01X454335Y8711799D01*
G01X490278Y8682307D01*
G01X528642Y8656041D01*
G01X569138Y8633201D01*
G01X611463Y8613957D01*
G01X655296Y8598454D01*
G01X700308Y8586810D01*
G01X746160Y8579112D01*
G01X792507Y8575418D01*
G01X838999Y8575756D01*
G01X885288Y8580122D01*
G01X931023Y8588485D01*
G01X975861Y8600782D01*
G01X1019465Y8616919D01*
G01X1061505Y8636775D01*
G01X1101666Y8660201D01*
G01X1139645Y8687021D01*
G01X1175155Y8717032D01*
G01X1207931Y8750008D01*
G01X1237724Y8785702D01*
G01X1264311Y8823844D01*
G01X1287491Y8864147D01*
G01X1496040Y8655598D01*
G01X1496040Y8655598D01*
G01X1499038Y8640889D01*
G01X1505267Y8627230D01*
G01X1514409Y8615323D01*
G01X1525994Y8605777D01*
G01X1539430Y8599081D01*
G01X1554027Y8595579D01*
G01X1569038Y8595450D01*
G01X1583694Y8598700D01*
G01X1597243Y8605164D01*
G01X1608991Y8614509D01*
G01X1618336Y8626257D01*
G01X1624800Y8639806D01*
G01X1628050Y8654462D01*
G01X1627921Y8669473D01*
G01X1624419Y8684070D01*
G01X1617723Y8697506D01*
G01X1608177Y8709091D01*
G01X1596270Y8718233D01*
G01X1582611Y8724462D01*
G01X1567902Y8727460D01*
G01X1328080Y8967282D01*
G01X1338585Y9012574D01*
G01X1345124Y9058605D01*
G01X1347649Y9105030D01*
G01X1346139Y9151500D01*
G01X1340607Y9197663D01*
G01X1331093Y9243173D01*
G01X1317670Y9287687D01*
G01X1300438Y9330870D01*
G01X1279528Y9372396D01*
G01X1255097Y9411953D01*
G01X1227328Y9449244D01*
G01X1196431Y9483986D01*
G01X1162639Y9515920D01*
G01X1126206Y9544804D01*
G01X1087405Y9570420D01*
G01X1046530Y9592577D01*
G01X1003889Y9611106D01*
G01X959801Y9625870D01*
G01X914600Y9636755D01*
G01X868625Y9643682D01*
G01X822222Y9646596D01*
G01X775742Y9645477D01*
G01X729534Y9640333D01*
G01X683945Y9631202D01*
G01X639320Y9618154D01*
G01X595994Y9601286D01*
G01X554293Y9580725D01*
G01X514532Y9556627D01*
G01X477010Y9529173D01*
G01X442008Y9498570D01*
G01X409792Y9465047D01*
G01X380603Y9428857D01*
G01X354661Y9390274D01*
G01X332162Y9349587D01*
G01X313274Y9307102D01*
G01X298141Y9263140D01*
G01X286876Y9218032D01*
G01X279563Y9172117D01*
G01X276259Y9125740D01*
G01X35814Y9125740D01*
G01X35814Y9700000D01*
G01X36947Y9724440D01*
G01X40336Y9748671D01*
G01X45952Y9772483D01*
G01X116552Y9843083D01*
G01X105466Y9818974D01*
G01X97927Y9793531D01*
G01X94090Y9767274D01*
G01X94032Y9740737D01*
G01X97754Y9714464D01*
G01X105181Y9688988D01*
G01X116162Y9664830D01*
G01X130471Y9642483D01*
G01X147818Y9622401D01*
G01X167849Y9604996D01*
G01X190154Y9590621D01*
G01X214280Y9579571D01*
G01X239734Y9572069D01*
G01X265997Y9568270D01*
G01X292533Y9568251D01*
G01X318801Y9572012D01*
G01X344266Y9579476D01*
G01X368408Y9590491D01*
G01X390734Y9604834D01*
G01X410790Y9622210D01*
G01X428166Y9642266D01*
G01X442509Y9664592D01*
G01X453524Y9688734D01*
G01X460988Y9714199D01*
G01X464749Y9740467D01*
G01X464730Y9767003D01*
G01X460931Y9793266D01*
G01X453429Y9818720D01*
G01X442379Y9842846D01*
G01X428004Y9865151D01*
G01X410599Y9885182D01*
G01X390517Y9902529D01*
G01X368170Y9916838D01*
G01X344012Y9927819D01*
G01X318536Y9935246D01*
G01X292263Y9938968D01*
G01X265726Y9938910D01*
G01X239469Y9935073D01*
G01X214026Y9927534D01*
G01X189917Y9916448D01*
G01X227517Y9954048D01*
G01X249630Y9959340D01*
G01X7717392Y9959340D01*
G01X7778026Y9898705D01*
G01X7752117Y9901243D01*
G01X7726107Y9900136D01*
G01X7700507Y9895403D01*
G01X7675820Y9887140D01*
G01X7652530Y9875507D01*
G01X7631095Y9860734D01*
G01X7611934Y9843109D01*
G01X7595425Y9822980D01*
G01X7581891Y9800741D01*
G01X7571599Y9776828D01*
G01X7564749Y9751712D01*
G01X7561476Y9725885D01*
G01X7561846Y9699855D01*
G01X7565850Y9674131D01*
G01X7573409Y9649219D01*
G01X7584377Y9625609D01*
G01X7598536Y9603762D01*
G01X7615610Y9584110D01*
G01X7635262Y9567036D01*
G01X7657109Y9552877D01*
G01X7680719Y9541909D01*
G01X7705631Y9534350D01*
G01X7731355Y9530346D01*
G01X7757385Y9529976D01*
G01X7783212Y9533249D01*
G01X7808328Y9540099D01*
G01X7832241Y9550391D01*
G01X7854480Y9563925D01*
G01X7874609Y9580434D01*
G01X7892234Y9599595D01*
G01X7907007Y9621030D01*
G01X7918640Y9644320D01*
G01X7926903Y9669007D01*
G01X7931636Y9694607D01*
G01X7932743Y9720617D01*
G01X7930205Y9746526D01*
G01X7952740Y9723992D01*
G01X7952740Y270908D01*
G01X7871748Y189917D01*
G01X7882834Y214026D01*
G01X7890373Y239469D01*
G01X7894210Y265726D01*
G01X7894268Y292263D01*
G01X7890546Y318536D01*
G01X7883119Y344012D01*
G01X7872138Y368170D01*
G01X7857829Y390517D01*
G01X7840482Y410599D01*
G01X7820451Y428004D01*
G01X7798146Y442379D01*
G01X7774020Y453429D01*
G01X7748566Y460931D01*
G01X7722303Y464730D01*
G01X7695767Y464749D01*
G01X7669499Y460988D01*
G01X7644034Y453524D01*
G01X7619892Y442509D01*
G01X7597566Y428166D01*
G01X7577510Y410790D01*
G01X7560134Y390734D01*
G01X7545791Y368408D01*
G01X7534776Y344266D01*
G01X7527312Y318801D01*
G01X7523551Y292533D01*
G01X7523570Y265997D01*
G01X7527369Y239734D01*
G01X7534871Y214280D01*
G01X7545921Y190154D01*
G01X7560296Y167849D01*
G01X7577701Y147818D01*
G01X7597783Y130471D01*
G01X7620130Y116162D01*
G01X7644288Y105181D01*
G01X7669764Y97754D01*
G01X7696037Y94032D01*
G01X7722574Y94090D01*
G01X7748831Y97927D01*
G01X7774274Y105466D01*
G01X7798383Y116552D01*
G01X7718279Y36447D01*
G01X7700000Y35814D01*
G01X300000Y35814D01*
G01X276862Y36829D01*
G01X253901Y39867D01*
G01X237553Y56215D01*
G01X264249Y55769D01*
G01X290733Y59153D01*
G01X316459Y66298D01*
G01X340895Y77056D01*
G01X363537Y91205D01*
G01X383917Y108453D01*
G01X401616Y128444D01*
G01X416266Y150765D01*
G01X427566Y174955D01*
G01X435283Y200515D01*
G01X439256Y226917D01*
G01X439405Y253616D01*
G01X435726Y280061D01*
G01X428295Y305706D01*
G01X417265Y330020D01*
G01X402865Y352503D01*
G01X385390Y372690D01*
G01X365203Y390165D01*
G01X342720Y404565D01*
G01X318406Y415595D01*
G01X292761Y423026D01*
G01X266316Y426705D01*
G01X239617Y426556D01*
G01X213215Y422583D01*
G01X187655Y414866D01*
G01X163465Y403566D01*
G01X141144Y388916D01*
G01X121153Y371217D01*
G01X103905Y350837D01*
G01X89756Y328195D01*
G01X78998Y303759D01*
G01X71853Y278033D01*
G01X68469Y251549D01*
G01X68915Y224853D01*
G01X39867Y253901D01*
G01X36829Y276862D01*
G01X35814Y300000D01*
G01X35814Y608525D01*
G01X448453Y608525D01*
G01X450457Y562230D01*
G01X456453Y516280D01*
G01X466397Y471021D01*
G01X480214Y426790D01*
G01X497801Y383919D01*
G01X519027Y342727D01*
G01X543732Y303523D01*
G01X571733Y266601D01*
G01X602818Y232236D01*
G01X636757Y200685D01*
G01X673295Y172184D01*
G01X712158Y146948D01*
G01X753057Y125163D01*
G01X795686Y106994D01*
G01X839724Y92575D01*
G01X884844Y82016D01*
G01X930707Y75395D01*
G01X976971Y72761D01*
G01X1023289Y74134D01*
G01X1069316Y79504D01*
G01X1114707Y88831D01*
G01X1159121Y102045D01*
G01X1202228Y119046D01*
G01X1243705Y139709D01*
G01X1283242Y163879D01*
G01X1320542Y191373D01*
G01X1355327Y221988D01*
G01X1387337Y255494D01*
G01X1416333Y291641D01*
G01X1442096Y330157D01*
G01X1464436Y370756D01*
G01X1483184Y413132D01*
G01X1498200Y456971D01*
G01X1509373Y501942D01*
G01X1516618Y547711D01*
G01X4786825Y547711D01*
G01X4798689Y548880D01*
G01X4810098Y552340D01*
G01X4820611Y557960D01*
G01X4829827Y565523D01*
G01X5199202Y934898D01*
G01X5206765Y944114D01*
G01X5212385Y954628D01*
G01X5215845Y966036D01*
G01X5217014Y977900D01*
G01X5217014Y1196838D01*
G01X5234099Y1209699D01*
G01X5248528Y1225483D01*
G01X5259809Y1243650D01*
G01X5267557Y1263582D01*
G01X5271509Y1284598D01*
G01X5271529Y1305983D01*
G01X5294871Y1305983D01*
G01X5294891Y1284598D01*
G01X5298843Y1263582D01*
G01X5306591Y1243650D01*
G01X5317872Y1225483D01*
G01X5332301Y1209699D01*
G01X5349386Y1196838D01*
G01X5349386Y774700D01*
G01X5350555Y762836D01*
G01X5354015Y751428D01*
G01X5359635Y740914D01*
G01X5367198Y731698D01*
G01X5508930Y589966D01*
G01X5518146Y582403D01*
G01X5528660Y576783D01*
G01X5540068Y573323D01*
G01X5551932Y572154D01*
G01X6418215Y572154D01*
G01X6425460Y526385D01*
G01X6436633Y481413D01*
G01X6451650Y437575D01*
G01X6470398Y395198D01*
G01X6492737Y354600D01*
G01X6518501Y316084D01*
G01X6547496Y279937D01*
G01X6579506Y246431D01*
G01X6614291Y215816D01*
G01X6651592Y188321D01*
G01X6691128Y164152D01*
G01X6732605Y143489D01*
G01X6775712Y126487D01*
G01X6820127Y113274D01*
G01X6865517Y103947D01*
G01X6911544Y98577D01*
G01X6957863Y97204D01*
G01X7004126Y99838D01*
G01X7049990Y106459D01*
G01X7095109Y117018D01*
G01X7139148Y131437D01*
G01X7181776Y149606D01*
G01X7222675Y171391D01*
G01X7261539Y196627D01*
G01X7298077Y225128D01*
G01X7332015Y256679D01*
G01X7363101Y291044D01*
G01X7391101Y327966D01*
G01X7415807Y367170D01*
G01X7437032Y408362D01*
G01X7454619Y451233D01*
G01X7468437Y495464D01*
G01X7478381Y540723D01*
G01X7484377Y586673D01*
G01X7486381Y632968D01*
G01X7486381Y632968D01*
G01X7484377Y679263D01*
G01X7478381Y725213D01*
G01X7468437Y770472D01*
G01X7454619Y814703D01*
G01X7437032Y857574D01*
G01X7415807Y898766D01*
G01X7391101Y937970D01*
G01X7363101Y974892D01*
G01X7332015Y1009257D01*
G01X7298077Y1040808D01*
G01X7261539Y1069309D01*
G01X7222675Y1094545D01*
G01X7181776Y1116330D01*
G01X7139148Y1134499D01*
G01X7095109Y1148918D01*
G01X7049990Y1159477D01*
G01X7004126Y1166098D01*
G01X6957863Y1168732D01*
G01X6911544Y1167359D01*
G01X6865517Y1161989D01*
G01X6820127Y1152662D01*
G01X6775712Y1139449D01*
G01X6732605Y1122447D01*
G01X6691128Y1101784D01*
G01X6651592Y1077615D01*
G01X6614291Y1050120D01*
G01X6579506Y1019505D01*
G01X6547496Y985999D01*
G01X6518501Y949852D01*
G01X6492737Y911336D01*
G01X6470398Y870738D01*
G01X6451650Y828361D01*
G01X6436633Y784523D01*
G01X6425460Y739551D01*
G01X6418215Y693782D01*
G01X5577122Y693782D01*
G01X5471014Y799890D01*
G01X5471014Y799890D01*
G01X5471014Y937240D01*
G01X6038432Y937240D01*
G01X6040284Y914886D01*
G01X6045791Y893141D01*
G01X6054801Y872600D01*
G01X6067070Y853821D01*
G01X6082262Y837318D01*
G01X6099963Y823541D01*
G01X6119690Y812865D01*
G01X6140906Y805582D01*
G01X6163031Y801890D01*
G01X6185462Y801890D01*
G01X6207587Y805582D01*
G01X6228802Y812865D01*
G01X6248529Y823541D01*
G01X6266231Y837318D01*
G01X6281423Y853821D01*
G01X6293691Y872600D01*
G01X6302701Y893141D01*
G01X6308208Y914886D01*
G01X6310060Y937240D01*
G01X6308208Y959594D01*
G01X6302701Y981339D01*
G01X6293691Y1001880D01*
G01X6281423Y1020659D01*
G01X6266231Y1037162D01*
G01X6248529Y1050939D01*
G01X6228802Y1061615D01*
G01X6207587Y1068898D01*
G01X6185462Y1072590D01*
G01X6163031Y1072590D01*
G01X6140906Y1068898D01*
G01X6119690Y1061615D01*
G01X6099963Y1050939D01*
G01X6082262Y1037162D01*
G01X6067070Y1020659D01*
G01X6054801Y1001880D01*
G01X6045791Y981339D01*
G01X6040284Y959594D01*
G01X6038432Y937240D01*
G01X6038432Y937240D01*
G01X5471014Y937240D01*
G01X5471014Y1196838D01*
G01X5488099Y1209699D01*
G01X5502528Y1225483D01*
G01X5513809Y1243650D01*
G01X5521557Y1263582D01*
G01X5525509Y1284598D01*
G01X5525519Y1295400D01*
G01X5548386Y1295400D01*
G01X5550358Y1274119D01*
G01X5556207Y1253563D01*
G01X5565733Y1234432D01*
G01X5578613Y1217377D01*
G01X5594407Y1202979D01*
G01X5612577Y1191728D01*
G01X5632506Y1184007D01*
G01X5653514Y1180080D01*
G01X5674886Y1180080D01*
G01X5695894Y1184007D01*
G01X5715823Y1191728D01*
G01X5733993Y1202979D01*
G01X5749787Y1217377D01*
G01X5762667Y1234432D01*
G01X5772193Y1253563D01*
G01X5778042Y1274119D01*
G01X5780014Y1295400D01*
G01X5780014Y1295400D01*
G01X5802386Y1295400D01*
G01X5804358Y1274119D01*
G01X5810207Y1253563D01*
G01X5819733Y1234432D01*
G01X5832613Y1217377D01*
G01X5848407Y1202979D01*
G01X5866577Y1191728D01*
G01X5886506Y1184007D01*
G01X5907514Y1180080D01*
G01X5928886Y1180080D01*
G01X5949894Y1184007D01*
G01X5969823Y1191728D01*
G01X5987993Y1202979D01*
G01X6003787Y1217377D01*
G01X6016667Y1234432D01*
G01X6026193Y1253563D01*
G01X6032042Y1274119D01*
G01X6034014Y1295400D01*
G01X6034014Y1295400D01*
G01X6032042Y1316681D01*
G01X6026193Y1337237D01*
G01X6016667Y1356368D01*
G01X6003787Y1373423D01*
G01X6001619Y1375400D01*
G01X6056386Y1375400D01*
G01X6056386Y1215400D01*
G01X6058139Y1204333D01*
G01X6063226Y1194349D01*
G01X6071149Y1186426D01*
G01X6081133Y1181339D01*
G01X6092200Y1179586D01*
G01X6252200Y1179586D01*
G01X6263267Y1181339D01*
G01X6273251Y1186426D01*
G01X6281174Y1194349D01*
G01X6286261Y1204333D01*
G01X6288014Y1215400D01*
G01X6288014Y1375400D01*
G01X6286261Y1386467D01*
G01X6281174Y1396451D01*
G01X6273251Y1404374D01*
G01X6263267Y1409461D01*
G01X6252200Y1411214D01*
G01X6092200Y1411214D01*
G01X6092200Y1411214D01*
G01X6081133Y1409461D01*
G01X6071149Y1404374D01*
G01X6063226Y1396451D01*
G01X6058139Y1386467D01*
G01X6056386Y1375400D01*
G01X6001619Y1375400D01*
G01X5987993Y1387821D01*
G01X5969823Y1399072D01*
G01X5949894Y1406793D01*
G01X5928886Y1410720D01*
G01X5907514Y1410720D01*
G01X5886506Y1406793D01*
G01X5866577Y1399072D01*
G01X5848407Y1387821D01*
G01X5832613Y1373423D01*
G01X5819733Y1356368D01*
G01X5810207Y1337237D01*
G01X5804358Y1316681D01*
G01X5802386Y1295400D01*
G01X5780014Y1295400D01*
G01X5780014Y1295400D01*
G01X5778042Y1316681D01*
G01X5772193Y1337237D01*
G01X5762667Y1356368D01*
G01X5749787Y1373423D01*
G01X5733993Y1387821D01*
G01X5715823Y1399072D01*
G01X5695894Y1406793D01*
G01X5674886Y1410720D01*
G01X5653514Y1410720D01*
G01X5632506Y1406793D01*
G01X5612577Y1399072D01*
G01X5594407Y1387821D01*
G01X5578613Y1373423D01*
G01X5565733Y1356368D01*
G01X5556207Y1337237D01*
G01X5550358Y1316681D01*
G01X5548386Y1295400D01*
G01X5525519Y1295400D01*
G01X5525529Y1305983D01*
G01X5521617Y1327007D01*
G01X5513907Y1346953D01*
G01X5502660Y1365142D01*
G01X5488262Y1380953D01*
G01X5471201Y1393846D01*
G01X5452061Y1403384D01*
G01X5431493Y1409240D01*
G01X5410200Y1411214D01*
G01X5388907Y1409240D01*
G01X5368339Y1403384D01*
G01X5349199Y1393846D01*
G01X5332138Y1380953D01*
G01X5317740Y1365142D01*
G01X5306493Y1346953D01*
G01X5298783Y1327007D01*
G01X5294871Y1305983D01*
G01X5271529Y1305983D01*
G01X5271529Y1305983D01*
G01X5267617Y1327007D01*
G01X5259907Y1346953D01*
G01X5248660Y1365142D01*
G01X5234262Y1380953D01*
G01X5217201Y1393846D01*
G01X5198061Y1403384D01*
G01X5177493Y1409240D01*
G01X5156200Y1411214D01*
G01X5134907Y1409240D01*
G01X5114339Y1403384D01*
G01X5095199Y1393846D01*
G01X5078138Y1380953D01*
G01X5063740Y1365142D01*
G01X5052493Y1346953D01*
G01X5044783Y1327007D01*
G01X5040871Y1305983D01*
G01X5040891Y1284598D01*
G01X5044843Y1263582D01*
G01X5052591Y1243650D01*
G01X5063872Y1225483D01*
G01X5078301Y1209699D01*
G01X5095386Y1196838D01*
G01X5095386Y1003090D01*
G01X4761635Y669339D01*
G01X1843676Y669339D01*
G01X1843676Y669339D01*
G01X1862615Y681492D01*
G01X1879286Y696606D01*
G01X1893233Y714264D01*
G01X1904073Y733983D01*
G01X1911509Y755222D01*
G01X1915335Y777396D01*
G01X1915448Y799898D01*
G01X1911844Y822110D01*
G01X1904622Y843421D01*
G01X1893980Y863248D01*
G01X1880210Y881046D01*
G01X1863691Y896325D01*
G01X1844875Y908668D01*
G01X1824280Y917734D01*
G01X1802471Y923275D01*
G01X1780046Y925139D01*
G01X1757621Y923275D01*
G01X1735812Y917734D01*
G01X1715217Y908668D01*
G01X1696402Y896325D01*
G01X1679882Y881046D01*
G01X1666113Y863248D01*
G01X1655471Y843421D01*
G01X1648249Y822110D01*
G01X1644644Y799898D01*
G01X1644757Y777396D01*
G01X1648584Y755222D01*
G01X1656019Y733983D01*
G01X1666859Y714264D01*
G01X1680806Y696606D01*
G01X1697478Y681492D01*
G01X1716416Y669339D01*
G01X1516618Y669339D01*
G01X1509373Y715108D01*
G01X1498200Y760080D01*
G01X1483184Y803918D01*
G01X1464436Y846295D01*
G01X1442096Y886893D01*
G01X1416333Y925410D01*
G01X1387337Y961556D01*
G01X1355327Y995062D01*
G01X1320542Y1025677D01*
G01X1283242Y1053172D01*
G01X1243705Y1077341D01*
G01X1202228Y1098004D01*
G01X1159121Y1115006D01*
G01X1114707Y1128219D01*
G01X1069316Y1137546D01*
G01X1023289Y1142916D01*
G01X976971Y1144289D01*
G01X930707Y1141655D01*
G01X884844Y1135034D01*
G01X839724Y1124475D01*
G01X795686Y1110056D01*
G01X753057Y1091887D01*
G01X712158Y1070103D01*
G01X673295Y1044866D01*
G01X636757Y1016365D01*
G01X602818Y984815D01*
G01X571733Y950449D01*
G01X543732Y913527D01*
G01X519027Y874323D01*
G01X497801Y833131D01*
G01X480214Y790260D01*
G01X466397Y746029D01*
G01X456453Y700770D01*
G01X450457Y654821D01*
G01X448453Y608525D01*
G01X35814Y608525D01*
G01X35814Y1295400D01*
G01X722386Y1295400D01*
G01X724358Y1274119D01*
G01X730207Y1253563D01*
G01X739733Y1234432D01*
G01X752613Y1217377D01*
G01X768407Y1202979D01*
G01X786577Y1191728D01*
G01X806506Y1184007D01*
G01X827514Y1180080D01*
G01X848886Y1180080D01*
G01X869894Y1184007D01*
G01X889823Y1191728D01*
G01X907993Y1202979D01*
G01X923787Y1217377D01*
G01X936667Y1234432D01*
G01X946193Y1253563D01*
G01X952042Y1274119D01*
G01X954014Y1295400D01*
G01X954014Y1295400D01*
G01X976386Y1295400D01*
G01X978358Y1274119D01*
G01X984207Y1253563D01*
G01X993733Y1234432D01*
G01X1006613Y1217377D01*
G01X1022407Y1202979D01*
G01X1040577Y1191728D01*
G01X1060506Y1184007D01*
G01X1081514Y1180080D01*
G01X1102886Y1180080D01*
G01X1123894Y1184007D01*
G01X1143823Y1191728D01*
G01X1161993Y1202979D01*
G01X1177787Y1217377D01*
G01X1190667Y1234432D01*
G01X1200193Y1253563D01*
G01X1206042Y1274119D01*
G01X1208014Y1295400D01*
G01X1208014Y1295400D01*
G01X1230386Y1295400D01*
G01X1232358Y1274119D01*
G01X1238207Y1253563D01*
G01X1247733Y1234432D01*
G01X1260613Y1217377D01*
G01X1276407Y1202979D01*
G01X1294577Y1191728D01*
G01X1314506Y1184007D01*
G01X1335514Y1180080D01*
G01X1356886Y1180080D01*
G01X1377894Y1184007D01*
G01X1397823Y1191728D01*
G01X1415993Y1202979D01*
G01X1431787Y1217377D01*
G01X1444667Y1234432D01*
G01X1454193Y1253563D01*
G01X1460042Y1274119D01*
G01X1462014Y1295400D01*
G01X1462014Y1295400D01*
G01X1484386Y1295400D01*
G01X1486358Y1274119D01*
G01X1492207Y1253563D01*
G01X1501733Y1234432D01*
G01X1514613Y1217377D01*
G01X1530407Y1202979D01*
G01X1548577Y1191728D01*
G01X1568506Y1184007D01*
G01X1589514Y1180080D01*
G01X1610886Y1180080D01*
G01X1631894Y1184007D01*
G01X1651823Y1191728D01*
G01X1669993Y1202979D01*
G01X1685787Y1217377D01*
G01X1698667Y1234432D01*
G01X1708193Y1253563D01*
G01X1714042Y1274119D01*
G01X1716014Y1295400D01*
G01X1716014Y1295400D01*
G01X1714042Y1316681D01*
G01X1708193Y1337237D01*
G01X1698667Y1356368D01*
G01X1685787Y1373423D01*
G01X1669993Y1387821D01*
G01X1651823Y1399072D01*
G01X1631894Y1406793D01*
G01X1610886Y1410720D01*
G01X1589514Y1410720D01*
G01X1568506Y1406793D01*
G01X1548577Y1399072D01*
G01X1530407Y1387821D01*
G01X1514613Y1373423D01*
G01X1501733Y1356368D01*
G01X1492207Y1337237D01*
G01X1486358Y1316681D01*
G01X1484386Y1295400D01*
G01X1462014Y1295400D01*
G01X1460042Y1316681D01*
G01X1454193Y1337237D01*
G01X1444667Y1356368D01*
G01X1431787Y1373423D01*
G01X1415993Y1387821D01*
G01X1397823Y1399072D01*
G01X1377894Y1406793D01*
G01X1356886Y1410720D01*
G01X1335514Y1410720D01*
G01X1314506Y1406793D01*
G01X1294577Y1399072D01*
G01X1276407Y1387821D01*
G01X1260613Y1373423D01*
G01X1247733Y1356368D01*
G01X1238207Y1337237D01*
G01X1232358Y1316681D01*
G01X1230386Y1295400D01*
G01X1208014Y1295400D01*
G01X1208014Y1295400D01*
G01X1206042Y1316681D01*
G01X1200193Y1337237D01*
G01X1190667Y1356368D01*
G01X1177787Y1373423D01*
G01X1161993Y1387821D01*
G01X1143823Y1399072D01*
G01X1123894Y1406793D01*
G01X1102886Y1410720D01*
G01X1081514Y1410720D01*
G01X1060506Y1406793D01*
G01X1040577Y1399072D01*
G01X1022407Y1387821D01*
G01X1006613Y1373423D01*
G01X993733Y1356368D01*
G01X984207Y1337237D01*
G01X978358Y1316681D01*
G01X976386Y1295400D01*
G01X954014Y1295400D01*
G01X952042Y1316681D01*
G01X946193Y1337237D01*
G01X936667Y1356368D01*
G01X923787Y1373423D01*
G01X907993Y1387821D01*
G01X889823Y1399072D01*
G01X869894Y1406793D01*
G01X848886Y1410720D01*
G01X827514Y1410720D01*
G01X806506Y1406793D01*
G01X786577Y1399072D01*
G01X768407Y1387821D01*
G01X752613Y1373423D01*
G01X739733Y1356368D01*
G01X730207Y1337237D01*
G01X724358Y1316681D01*
G01X722386Y1295400D01*
G01X35814Y1295400D01*
G01X35814Y4555032D01*
G01X40396Y4548017D01*
G01X45898Y4541698D01*
G01X193186Y4394410D01*
G01X193186Y4357104D01*
G01X178638Y4358909D01*
G01X164050Y4357473D01*
G01X150133Y4352867D01*
G01X137568Y4345316D01*
G01X126969Y4335189D01*
G01X118854Y4322980D01*
G01X113620Y4309287D01*
G01X111522Y4294779D01*
G01X112662Y4280164D01*
G01X116986Y4266157D01*
G01X116986Y3175000D01*
G01X118155Y3163136D01*
G01X121615Y3151728D01*
G01X127235Y3141214D01*
G01X134798Y3131998D01*
G01X388798Y2877998D01*
G01X398014Y2870435D01*
G01X408528Y2864815D01*
G01X419936Y2861355D01*
G01X431800Y2860186D01*
G01X1613110Y2860186D01*
G01X1793386Y2679910D01*
G01X1793386Y1393962D01*
G01X1776301Y1381101D01*
G01X1761872Y1365317D01*
G01X1750591Y1347150D01*
G01X1742843Y1327218D01*
G01X1738891Y1306202D01*
G01X1738871Y1284817D01*
G01X1742783Y1263793D01*
G01X1750493Y1243847D01*
G01X1761740Y1225658D01*
G01X1776138Y1209847D01*
G01X1793199Y1196954D01*
G01X1812339Y1187416D01*
G01X1832907Y1181560D01*
G01X1854200Y1179586D01*
G01X1875493Y1181560D01*
G01X1896061Y1187416D01*
G01X1915201Y1196954D01*
G01X1932262Y1209847D01*
G01X1946660Y1225658D01*
G01X1957907Y1243847D01*
G01X1965617Y1263793D01*
G01X1969529Y1284817D01*
G01X1969519Y1295400D01*
G01X1992386Y1295400D01*
G01X1994358Y1274119D01*
G01X2000207Y1253563D01*
G01X2009733Y1234432D01*
G01X2022613Y1217377D01*
G01X2038407Y1202979D01*
G01X2056577Y1191728D01*
G01X2076506Y1184007D01*
G01X2097514Y1180080D01*
G01X2118886Y1180080D01*
G01X2139894Y1184007D01*
G01X2159823Y1191728D01*
G01X2177993Y1202979D01*
G01X2193787Y1217377D01*
G01X2206667Y1234432D01*
G01X2216193Y1253563D01*
G01X2222042Y1274119D01*
G01X2224014Y1295400D01*
G01X2224014Y1295400D01*
G01X2246386Y1295400D01*
G01X2248358Y1274119D01*
G01X2254207Y1253563D01*
G01X2263733Y1234432D01*
G01X2276613Y1217377D01*
G01X2292407Y1202979D01*
G01X2310577Y1191728D01*
G01X2330506Y1184007D01*
G01X2351514Y1180080D01*
G01X2372886Y1180080D01*
G01X2393894Y1184007D01*
G01X2413823Y1191728D01*
G01X2431993Y1202979D01*
G01X2447787Y1217377D01*
G01X2460667Y1234432D01*
G01X2470193Y1253563D01*
G01X2476042Y1274119D01*
G01X2478014Y1295400D01*
G01X2478014Y1295400D01*
G01X2500386Y1295400D01*
G01X2502358Y1274119D01*
G01X2508207Y1253563D01*
G01X2517733Y1234432D01*
G01X2530613Y1217377D01*
G01X2546407Y1202979D01*
G01X2564577Y1191728D01*
G01X2584506Y1184007D01*
G01X2605514Y1180080D01*
G01X2626886Y1180080D01*
G01X2647894Y1184007D01*
G01X2667823Y1191728D01*
G01X2685993Y1202979D01*
G01X2701787Y1217377D01*
G01X2714667Y1234432D01*
G01X2724193Y1253563D01*
G01X2730042Y1274119D01*
G01X2732014Y1295400D01*
G01X2732014Y1295400D01*
G01X2754386Y1295400D01*
G01X2756358Y1274119D01*
G01X2762207Y1253563D01*
G01X2771733Y1234432D01*
G01X2784613Y1217377D01*
G01X2800407Y1202979D01*
G01X2818577Y1191728D01*
G01X2838506Y1184007D01*
G01X2859514Y1180080D01*
G01X2880886Y1180080D01*
G01X2901894Y1184007D01*
G01X2921823Y1191728D01*
G01X2939993Y1202979D01*
G01X2955787Y1217377D01*
G01X2968667Y1234432D01*
G01X2978193Y1253563D01*
G01X2984042Y1274119D01*
G01X2986014Y1295400D01*
G01X2986014Y1295400D01*
G01X3008386Y1295400D01*
G01X3010358Y1274119D01*
G01X3016207Y1253563D01*
G01X3025733Y1234432D01*
G01X3038613Y1217377D01*
G01X3054407Y1202979D01*
G01X3072577Y1191728D01*
G01X3092506Y1184007D01*
G01X3113514Y1180080D01*
G01X3134886Y1180080D01*
G01X3155894Y1184007D01*
G01X3175823Y1191728D01*
G01X3193993Y1202979D01*
G01X3209787Y1217377D01*
G01X3222667Y1234432D01*
G01X3232193Y1253563D01*
G01X3238042Y1274119D01*
G01X3240014Y1295400D01*
G01X3240014Y1295400D01*
G01X3238042Y1316681D01*
G01X3232193Y1337237D01*
G01X3222667Y1356368D01*
G01X3209787Y1373423D01*
G01X3193993Y1387821D01*
G01X3175823Y1399072D01*
G01X3155894Y1406793D01*
G01X3134886Y1410720D01*
G01X3113514Y1410720D01*
G01X3092506Y1406793D01*
G01X3072577Y1399072D01*
G01X3054407Y1387821D01*
G01X3038613Y1373423D01*
G01X3025733Y1356368D01*
G01X3016207Y1337237D01*
G01X3010358Y1316681D01*
G01X3008386Y1295400D01*
G01X2986014Y1295400D01*
G01X2984042Y1316681D01*
G01X2978193Y1337237D01*
G01X2968667Y1356368D01*
G01X2955787Y1373423D01*
G01X2939993Y1387821D01*
G01X2921823Y1399072D01*
G01X2901894Y1406793D01*
G01X2880886Y1410720D01*
G01X2859514Y1410720D01*
G01X2838506Y1406793D01*
G01X2818577Y1399072D01*
G01X2800407Y1387821D01*
G01X2784613Y1373423D01*
G01X2771733Y1356368D01*
G01X2762207Y1337237D01*
G01X2756358Y1316681D01*
G01X2754386Y1295400D01*
G01X2732014Y1295400D01*
G01X2732014Y1295400D01*
G01X2730042Y1316681D01*
G01X2724193Y1337237D01*
G01X2714667Y1356368D01*
G01X2701787Y1373423D01*
G01X2685993Y1387821D01*
G01X2667823Y1399072D01*
G01X2647894Y1406793D01*
G01X2626886Y1410720D01*
G01X2605514Y1410720D01*
G01X2584506Y1406793D01*
G01X2564577Y1399072D01*
G01X2546407Y1387821D01*
G01X2530613Y1373423D01*
G01X2517733Y1356368D01*
G01X2508207Y1337237D01*
G01X2502358Y1316681D01*
G01X2500386Y1295400D01*
G01X2478014Y1295400D01*
G01X2476042Y1316681D01*
G01X2470193Y1337237D01*
G01X2460667Y1356368D01*
G01X2447787Y1373423D01*
G01X2431993Y1387821D01*
G01X2413823Y1399072D01*
G01X2393894Y1406793D01*
G01X2372886Y1410720D01*
G01X2351514Y1410720D01*
G01X2330506Y1406793D01*
G01X2310577Y1399072D01*
G01X2292407Y1387821D01*
G01X2276613Y1373423D01*
G01X2263733Y1356368D01*
G01X2254207Y1337237D01*
G01X2248358Y1316681D01*
G01X2246386Y1295400D01*
G01X2224014Y1295400D01*
G01X2222042Y1316681D01*
G01X2216193Y1337237D01*
G01X2206667Y1356368D01*
G01X2193787Y1373423D01*
G01X2177993Y1387821D01*
G01X2159823Y1399072D01*
G01X2139894Y1406793D01*
G01X2118886Y1410720D01*
G01X2097514Y1410720D01*
G01X2076506Y1406793D01*
G01X2056577Y1399072D01*
G01X2038407Y1387821D01*
G01X2022613Y1373423D01*
G01X2009733Y1356368D01*
G01X2000207Y1337237D01*
G01X1994358Y1316681D01*
G01X1992386Y1295400D01*
G01X1969519Y1295400D01*
G01X1969509Y1306202D01*
G01X1965557Y1327218D01*
G01X1957809Y1347150D01*
G01X1946528Y1365317D01*
G01X1932099Y1381101D01*
G01X1915014Y1393962D01*
G01X1915014Y2705100D01*
G01X1913845Y2716964D01*
G01X1910385Y2728372D01*
G01X1904765Y2738886D01*
G01X1897202Y2748102D01*
G01X1683518Y2961786D01*
G01X1930610Y2961786D01*
G01X3317386Y1575010D01*
G01X3317386Y1393962D01*
G01X3300301Y1381101D01*
G01X3285872Y1365317D01*
G01X3274591Y1347150D01*
G01X3266843Y1327218D01*
G01X3262891Y1306202D01*
G01X3262871Y1284817D01*
G01X3266783Y1263793D01*
G01X3274493Y1243847D01*
G01X3285740Y1225658D01*
G01X3300138Y1209847D01*
G01X3317199Y1196954D01*
G01X3336339Y1187416D01*
G01X3356907Y1181560D01*
G01X3378200Y1179586D01*
G01X3399493Y1181560D01*
G01X3420061Y1187416D01*
G01X3439201Y1196954D01*
G01X3456262Y1209847D01*
G01X3470660Y1225658D01*
G01X3481907Y1243847D01*
G01X3489617Y1263793D01*
G01X3493529Y1284817D01*
G01X3493509Y1306202D01*
G01X3489557Y1327218D01*
G01X3481809Y1347150D01*
G01X3470528Y1365317D01*
G01X3456099Y1381101D01*
G01X3439014Y1393962D01*
G01X3439014Y1600200D01*
G01X3437845Y1612064D01*
G01X3434385Y1623472D01*
G01X3428765Y1633986D01*
G01X3421202Y1643202D01*
G01X2013718Y3050686D01*
G01X2032210Y3050686D01*
G01X3571386Y1511510D01*
G01X3571386Y1393962D01*
G01X3554301Y1381101D01*
G01X3539872Y1365317D01*
G01X3528591Y1347150D01*
G01X3520843Y1327218D01*
G01X3516891Y1306202D01*
G01X3516871Y1284817D01*
G01X3520783Y1263793D01*
G01X3528493Y1243847D01*
G01X3539740Y1225658D01*
G01X3554138Y1209847D01*
G01X3571199Y1196954D01*
G01X3590339Y1187416D01*
G01X3610907Y1181560D01*
G01X3632200Y1179586D01*
G01X3653493Y1181560D01*
G01X3674061Y1187416D01*
G01X3693201Y1196954D01*
G01X3710262Y1209847D01*
G01X3724660Y1225658D01*
G01X3735907Y1243847D01*
G01X3743617Y1263793D01*
G01X3747529Y1284817D01*
G01X3747519Y1295400D01*
G01X3770386Y1295400D01*
G01X3772358Y1274119D01*
G01X3778207Y1253563D01*
G01X3787733Y1234432D01*
G01X3800613Y1217377D01*
G01X3816407Y1202979D01*
G01X3834577Y1191728D01*
G01X3854506Y1184007D01*
G01X3875514Y1180080D01*
G01X3896886Y1180080D01*
G01X3917894Y1184007D01*
G01X3937823Y1191728D01*
G01X3955993Y1202979D01*
G01X3971787Y1217377D01*
G01X3984667Y1234432D01*
G01X3994193Y1253563D01*
G01X4000042Y1274119D01*
G01X4002014Y1295400D01*
G01X4002014Y1295400D01*
G01X4024386Y1295400D01*
G01X4026358Y1274119D01*
G01X4032207Y1253563D01*
G01X4041733Y1234432D01*
G01X4054613Y1217377D01*
G01X4070407Y1202979D01*
G01X4088577Y1191728D01*
G01X4108506Y1184007D01*
G01X4129514Y1180080D01*
G01X4150886Y1180080D01*
G01X4171894Y1184007D01*
G01X4191823Y1191728D01*
G01X4209993Y1202979D01*
G01X4225787Y1217377D01*
G01X4238667Y1234432D01*
G01X4248193Y1253563D01*
G01X4254042Y1274119D01*
G01X4256014Y1295400D01*
G01X4256014Y1295400D01*
G01X4278386Y1295400D01*
G01X4280358Y1274119D01*
G01X4286207Y1253563D01*
G01X4295733Y1234432D01*
G01X4308613Y1217377D01*
G01X4324407Y1202979D01*
G01X4342577Y1191728D01*
G01X4362506Y1184007D01*
G01X4383514Y1180080D01*
G01X4404886Y1180080D01*
G01X4425894Y1184007D01*
G01X4445823Y1191728D01*
G01X4463993Y1202979D01*
G01X4479787Y1217377D01*
G01X4492667Y1234432D01*
G01X4502193Y1253563D01*
G01X4508042Y1274119D01*
G01X4510014Y1295400D01*
G01X4510014Y1295400D01*
G01X4532386Y1295400D01*
G01X4534358Y1274119D01*
G01X4540207Y1253563D01*
G01X4549733Y1234432D01*
G01X4562613Y1217377D01*
G01X4578407Y1202979D01*
G01X4596577Y1191728D01*
G01X4616506Y1184007D01*
G01X4637514Y1180080D01*
G01X4658886Y1180080D01*
G01X4679894Y1184007D01*
G01X4699823Y1191728D01*
G01X4717993Y1202979D01*
G01X4733787Y1217377D01*
G01X4746667Y1234432D01*
G01X4756193Y1253563D01*
G01X4762042Y1274119D01*
G01X4764014Y1295400D01*
G01X4764014Y1295400D01*
G01X4786386Y1295400D01*
G01X4788358Y1274119D01*
G01X4794207Y1253563D01*
G01X4803733Y1234432D01*
G01X4816613Y1217377D01*
G01X4832407Y1202979D01*
G01X4850577Y1191728D01*
G01X4870506Y1184007D01*
G01X4891514Y1180080D01*
G01X4912886Y1180080D01*
G01X4933894Y1184007D01*
G01X4953823Y1191728D01*
G01X4971993Y1202979D01*
G01X4987787Y1217377D01*
G01X5000667Y1234432D01*
G01X5010193Y1253563D01*
G01X5016042Y1274119D01*
G01X5018014Y1295400D01*
G01X5018014Y1295400D01*
G01X5016042Y1316681D01*
G01X5010193Y1337237D01*
G01X5000667Y1356368D01*
G01X4987787Y1373423D01*
G01X4971993Y1387821D01*
G01X4953823Y1399072D01*
G01X4933894Y1406793D01*
G01X4912886Y1410720D01*
G01X4891514Y1410720D01*
G01X4870506Y1406793D01*
G01X4850577Y1399072D01*
G01X4832407Y1387821D01*
G01X4816613Y1373423D01*
G01X4803733Y1356368D01*
G01X4794207Y1337237D01*
G01X4788358Y1316681D01*
G01X4786386Y1295400D01*
G01X4764014Y1295400D01*
G01X4762042Y1316681D01*
G01X4756193Y1337237D01*
G01X4746667Y1356368D01*
G01X4733787Y1373423D01*
G01X4717993Y1387821D01*
G01X4699823Y1399072D01*
G01X4679894Y1406793D01*
G01X4658886Y1410720D01*
G01X4637514Y1410720D01*
G01X4616506Y1406793D01*
G01X4596577Y1399072D01*
G01X4578407Y1387821D01*
G01X4562613Y1373423D01*
G01X4549733Y1356368D01*
G01X4540207Y1337237D01*
G01X4534358Y1316681D01*
G01X4532386Y1295400D01*
G01X4510014Y1295400D01*
G01X4508042Y1316681D01*
G01X4502193Y1337237D01*
G01X4492667Y1356368D01*
G01X4479787Y1373423D01*
G01X4463993Y1387821D01*
G01X4445823Y1399072D01*
G01X4425894Y1406793D01*
G01X4404886Y1410720D01*
G01X4383514Y1410720D01*
G01X4362506Y1406793D01*
G01X4342577Y1399072D01*
G01X4324407Y1387821D01*
G01X4308613Y1373423D01*
G01X4295733Y1356368D01*
G01X4286207Y1337237D01*
G01X4280358Y1316681D01*
G01X4278386Y1295400D01*
G01X4256014Y1295400D01*
G01X4256014Y1295400D01*
G01X4254042Y1316681D01*
G01X4248193Y1337237D01*
G01X4238667Y1356368D01*
G01X4225787Y1373423D01*
G01X4209993Y1387821D01*
G01X4191823Y1399072D01*
G01X4171894Y1406793D01*
G01X4150886Y1410720D01*
G01X4129514Y1410720D01*
G01X4108506Y1406793D01*
G01X4088577Y1399072D01*
G01X4070407Y1387821D01*
G01X4054613Y1373423D01*
G01X4041733Y1356368D01*
G01X4032207Y1337237D01*
G01X4026358Y1316681D01*
G01X4024386Y1295400D01*
G01X4002014Y1295400D01*
G01X4000042Y1316681D01*
G01X3994193Y1337237D01*
G01X3984667Y1356368D01*
G01X3971787Y1373423D01*
G01X3955993Y1387821D01*
G01X3937823Y1399072D01*
G01X3917894Y1406793D01*
G01X3896886Y1410720D01*
G01X3875514Y1410720D01*
G01X3854506Y1406793D01*
G01X3834577Y1399072D01*
G01X3816407Y1387821D01*
G01X3800613Y1373423D01*
G01X3787733Y1356368D01*
G01X3778207Y1337237D01*
G01X3772358Y1316681D01*
G01X3770386Y1295400D01*
G01X3747519Y1295400D01*
G01X3747509Y1306202D01*
G01X3743557Y1327218D01*
G01X3735809Y1347150D01*
G01X3724528Y1365317D01*
G01X3710099Y1381101D01*
G01X3693014Y1393962D01*
G01X3693014Y1536700D01*
G01X3691845Y1548564D01*
G01X3688385Y1559972D01*
G01X3682765Y1570486D01*
G01X3675202Y1579702D01*
G01X2100402Y3154502D01*
G01X2091186Y3162065D01*
G01X2080672Y3167685D01*
G01X2069264Y3171145D01*
G01X2057400Y3172314D01*
G01X1301076Y3172314D01*
G01X1382131Y3253369D01*
G01X1390206Y3263893D01*
G01X1395283Y3276148D01*
G01X1397014Y3289300D01*
G01X1397014Y3477329D01*
G01X1414746Y3488050D01*
G01X1430284Y3501759D01*
G01X1443131Y3518018D01*
G01X1452874Y3536305D01*
G01X1459202Y3556037D01*
G01X1461913Y3576580D01*
G01X1461682Y3581400D01*
G01X1484386Y3581400D01*
G01X1486358Y3560119D01*
G01X1492207Y3539563D01*
G01X1501733Y3520432D01*
G01X1514613Y3503377D01*
G01X1530407Y3488979D01*
G01X1548577Y3477728D01*
G01X1568506Y3470007D01*
G01X1589514Y3466080D01*
G01X1610886Y3466080D01*
G01X1631894Y3470007D01*
G01X1651823Y3477728D01*
G01X1669993Y3488979D01*
G01X1685787Y3503377D01*
G01X1698667Y3520432D01*
G01X1708193Y3539563D01*
G01X1714042Y3560119D01*
G01X1716014Y3581400D01*
G01X1716014Y3581400D01*
G01X1738386Y3581400D01*
G01X1740358Y3560119D01*
G01X1746207Y3539563D01*
G01X1755733Y3520432D01*
G01X1768613Y3503377D01*
G01X1784407Y3488979D01*
G01X1802577Y3477728D01*
G01X1822506Y3470007D01*
G01X1843514Y3466080D01*
G01X1864886Y3466080D01*
G01X1885894Y3470007D01*
G01X1905823Y3477728D01*
G01X1923993Y3488979D01*
G01X1939787Y3503377D01*
G01X1952667Y3520432D01*
G01X1962193Y3539563D01*
G01X1968042Y3560119D01*
G01X1970014Y3581400D01*
G01X1970014Y3581400D01*
G01X1992386Y3581400D01*
G01X1994358Y3560119D01*
G01X2000207Y3539563D01*
G01X2009733Y3520432D01*
G01X2022613Y3503377D01*
G01X2038407Y3488979D01*
G01X2056577Y3477728D01*
G01X2076506Y3470007D01*
G01X2097514Y3466080D01*
G01X2118886Y3466080D01*
G01X2139894Y3470007D01*
G01X2159823Y3477728D01*
G01X2177993Y3488979D01*
G01X2193787Y3503377D01*
G01X2206667Y3520432D01*
G01X2216193Y3539563D01*
G01X2222042Y3560119D01*
G01X2224014Y3581400D01*
G01X2224014Y3581400D01*
G01X2246386Y3581400D01*
G01X2248358Y3560119D01*
G01X2254207Y3539563D01*
G01X2263733Y3520432D01*
G01X2276613Y3503377D01*
G01X2292407Y3488979D01*
G01X2310577Y3477728D01*
G01X2330506Y3470007D01*
G01X2351514Y3466080D01*
G01X2372886Y3466080D01*
G01X2393894Y3470007D01*
G01X2413823Y3477728D01*
G01X2431993Y3488979D01*
G01X2447787Y3503377D01*
G01X2460667Y3520432D01*
G01X2470193Y3539563D01*
G01X2476042Y3560119D01*
G01X2478014Y3581400D01*
G01X2478014Y3581400D01*
G01X2476042Y3602681D01*
G01X2470193Y3623237D01*
G01X2460667Y3642368D01*
G01X2447787Y3659423D01*
G01X2431993Y3673821D01*
G01X2413823Y3685072D01*
G01X2393894Y3692793D01*
G01X2372886Y3696720D01*
G01X2351514Y3696720D01*
G01X2330506Y3692793D01*
G01X2310577Y3685072D01*
G01X2292407Y3673821D01*
G01X2276613Y3659423D01*
G01X2263733Y3642368D01*
G01X2254207Y3623237D01*
G01X2248358Y3602681D01*
G01X2246386Y3581400D01*
G01X2224014Y3581400D01*
G01X2222042Y3602681D01*
G01X2216193Y3623237D01*
G01X2206667Y3642368D01*
G01X2193787Y3659423D01*
G01X2177993Y3673821D01*
G01X2159823Y3685072D01*
G01X2139894Y3692793D01*
G01X2118886Y3696720D01*
G01X2097514Y3696720D01*
G01X2076506Y3692793D01*
G01X2056577Y3685072D01*
G01X2038407Y3673821D01*
G01X2022613Y3659423D01*
G01X2009733Y3642368D01*
G01X2000207Y3623237D01*
G01X1994358Y3602681D01*
G01X1992386Y3581400D01*
G01X1970014Y3581400D01*
G01X1968042Y3602681D01*
G01X1962193Y3623237D01*
G01X1952667Y3642368D01*
G01X1939787Y3659423D01*
G01X1923993Y3673821D01*
G01X1905823Y3685072D01*
G01X1885894Y3692793D01*
G01X1864886Y3696720D01*
G01X1843514Y3696720D01*
G01X1822506Y3692793D01*
G01X1802577Y3685072D01*
G01X1784407Y3673821D01*
G01X1768613Y3659423D01*
G01X1755733Y3642368D01*
G01X1746207Y3623237D01*
G01X1740358Y3602681D01*
G01X1738386Y3581400D01*
G01X1716014Y3581400D01*
G01X1714042Y3602681D01*
G01X1708193Y3623237D01*
G01X1698667Y3642368D01*
G01X1685787Y3659423D01*
G01X1669993Y3673821D01*
G01X1651823Y3685072D01*
G01X1631894Y3692793D01*
G01X1610886Y3696720D01*
G01X1589514Y3696720D01*
G01X1568506Y3692793D01*
G01X1548577Y3685072D01*
G01X1530407Y3673821D01*
G01X1514613Y3659423D01*
G01X1501733Y3642368D01*
G01X1492207Y3623237D01*
G01X1486358Y3602681D01*
G01X1484386Y3581400D01*
G01X1461682Y3581400D01*
G01X1460920Y3597277D01*
G01X1456255Y3617467D01*
G01X1448066Y3636501D01*
G01X1436616Y3653772D01*
G01X1422272Y3668726D01*
G01X1405493Y3680885D01*
G01X1386816Y3689858D01*
G01X1366838Y3695360D01*
G01X1346200Y3697214D01*
G01X1325562Y3695360D01*
G01X1305584Y3689858D01*
G01X1286907Y3680885D01*
G01X1270128Y3668726D01*
G01X1255784Y3653772D01*
G01X1244334Y3636501D01*
G01X1236145Y3617467D01*
G01X1231480Y3597277D01*
G01X1230487Y3576580D01*
G01X1233198Y3556037D01*
G01X1239526Y3536305D01*
G01X1249269Y3518018D01*
G01X1262116Y3501759D01*
G01X1277654Y3488050D01*
G01X1295386Y3477329D01*
G01X1295386Y3310348D01*
G01X1223552Y3238514D01*
G01X732248Y3238514D01*
G01X660485Y3310277D01*
G01X669101Y3323522D01*
G01X674338Y3338429D01*
G01X675900Y3354152D01*
G01X673699Y3369798D01*
G01X667858Y3384479D01*
G01X658710Y3397362D01*
G01X646774Y3407715D01*
G01X632727Y3414951D01*
G01X617368Y3418658D01*
G01X601567Y3418626D01*
G01X586223Y3414857D01*
G01X572206Y3407565D01*
G01X560311Y3397164D01*
G01X551215Y3384245D01*
G01X545434Y3369540D01*
G01X543295Y3353885D01*
G01X544920Y3338168D01*
G01X550218Y3323282D01*
G01X535867Y3328456D01*
G01X520714Y3330214D01*
G01X505560Y3328463D01*
G01X491208Y3323295D01*
G01X478416Y3314984D01*
G01X467861Y3303970D01*
G01X460103Y3290836D01*
G01X455551Y3276276D01*
G01X454447Y3261061D01*
G01X456848Y3245997D01*
G01X462629Y3231880D01*
G01X471482Y3219457D01*
G01X482940Y3209386D01*
G01X496396Y3202200D01*
G01X615182Y3083414D01*
G01X469690Y3083414D01*
G01X314814Y3238290D01*
G01X314814Y3581400D01*
G01X722386Y3581400D01*
G01X724358Y3560119D01*
G01X730207Y3539563D01*
G01X739733Y3520432D01*
G01X752613Y3503377D01*
G01X768407Y3488979D01*
G01X786577Y3477728D01*
G01X806506Y3470007D01*
G01X827514Y3466080D01*
G01X848886Y3466080D01*
G01X869894Y3470007D01*
G01X889823Y3477728D01*
G01X907993Y3488979D01*
G01X923787Y3503377D01*
G01X936667Y3520432D01*
G01X946193Y3539563D01*
G01X952042Y3560119D01*
G01X954014Y3581400D01*
G01X954014Y3581400D01*
G01X952042Y3602681D01*
G01X946193Y3623237D01*
G01X936667Y3642368D01*
G01X923787Y3659423D01*
G01X907993Y3673821D01*
G01X889823Y3685072D01*
G01X869894Y3692793D01*
G01X848886Y3696720D01*
G01X827514Y3696720D01*
G01X806506Y3692793D01*
G01X786577Y3685072D01*
G01X768407Y3673821D01*
G01X752613Y3659423D01*
G01X739733Y3642368D01*
G01X730207Y3623237D01*
G01X724358Y3602681D01*
G01X722386Y3581400D01*
G01X314814Y3581400D01*
G01X314814Y3922271D01*
G01X348832Y3922271D01*
G01X350684Y3899916D01*
G01X356191Y3878172D01*
G01X365201Y3857630D01*
G01X377470Y3838852D01*
G01X392662Y3822349D01*
G01X410363Y3808572D01*
G01X430090Y3797896D01*
G01X451306Y3790612D01*
G01X473431Y3786920D01*
G01X495862Y3786920D01*
G01X517987Y3790612D01*
G01X539202Y3797896D01*
G01X558929Y3808572D01*
G01X576631Y3822349D01*
G01X591823Y3838852D01*
G01X604091Y3857630D01*
G01X613101Y3878172D01*
G01X618608Y3899916D01*
G01X620460Y3922271D01*
G01X620292Y3924300D01*
G01X702386Y3924300D01*
G01X704212Y3902106D01*
G01X709640Y3880509D01*
G01X718524Y3860089D01*
G01X730626Y3841395D01*
G01X745620Y3824930D01*
G01X763103Y3811137D01*
G01X782605Y3800386D01*
G01X803602Y3792967D01*
G01X825529Y3789079D01*
G01X847796Y3788826D01*
G01X869806Y3792215D01*
G01X890966Y3799155D01*
G01X910707Y3809460D01*
G01X928499Y3822853D01*
G01X943863Y3838973D01*
G01X956386Y3857387D01*
G01X956386Y3581400D01*
G01X956386Y3581400D01*
G01X958238Y3559046D01*
G01X963745Y3537301D01*
G01X972755Y3516760D01*
G01X985024Y3497981D01*
G01X1000216Y3481478D01*
G01X1017917Y3467701D01*
G01X1037644Y3457025D01*
G01X1058860Y3449742D01*
G01X1080985Y3446050D01*
G01X1103415Y3446050D01*
G01X1125540Y3449742D01*
G01X1146756Y3457025D01*
G01X1166483Y3467701D01*
G01X1184184Y3481478D01*
G01X1199376Y3497981D01*
G01X1211645Y3516760D01*
G01X1220655Y3537301D01*
G01X1226162Y3559046D01*
G01X1228014Y3581400D01*
G01X1228014Y3924300D01*
G01X1228014Y3924563D01*
G01X1228014Y4024300D01*
G01X1226261Y4035367D01*
G01X1221174Y4045351D01*
G01X1213251Y4053274D01*
G01X1203267Y4058361D01*
G01X1192200Y4060114D01*
G01X1092463Y4060114D01*
G01X1091937Y4060114D01*
G01X992200Y4060114D01*
G01X981133Y4058361D01*
G01X971149Y4053274D01*
G01X963226Y4045351D01*
G01X958139Y4035367D01*
G01X956386Y4024300D01*
G01X956386Y3991213D01*
G01X943863Y4009627D01*
G01X928499Y4025747D01*
G01X910707Y4039140D01*
G01X890966Y4049445D01*
G01X869806Y4056385D01*
G01X847796Y4059774D01*
G01X825529Y4059521D01*
G01X803602Y4055633D01*
G01X782605Y4048214D01*
G01X763103Y4037463D01*
G01X745620Y4023670D01*
G01X730626Y4007205D01*
G01X718524Y3988511D01*
G01X709640Y3968091D01*
G01X704212Y3946494D01*
G01X702386Y3924300D01*
G01X620292Y3924300D01*
G01X618608Y3944625D01*
G01X613101Y3966369D01*
G01X604091Y3986911D01*
G01X591823Y4005689D01*
G01X576631Y4022192D01*
G01X558929Y4035970D01*
G01X539202Y4046645D01*
G01X517987Y4053929D01*
G01X495862Y4057621D01*
G01X473431Y4057621D01*
G01X451306Y4053929D01*
G01X430090Y4046645D01*
G01X410363Y4035970D01*
G01X392662Y4022192D01*
G01X377470Y4005689D01*
G01X365201Y3986911D01*
G01X356191Y3966369D01*
G01X350684Y3944625D01*
G01X348832Y3922271D01*
G01X348832Y3922271D01*
G01X314814Y3922271D01*
G01X314814Y4419600D01*
G01X313645Y4431464D01*
G01X310185Y4442872D01*
G01X304565Y4453386D01*
G01X297002Y4462602D01*
G01X276504Y4483100D01*
G01X349086Y4483100D01*
G01X350922Y4462121D01*
G01X356372Y4441779D01*
G01X365272Y4422693D01*
G01X377351Y4405442D01*
G01X392242Y4390551D01*
G01X409493Y4378472D01*
G01X428579Y4369572D01*
G01X448921Y4364122D01*
G01X469900Y4362286D01*
G01X469900Y4362286D01*
G01X490879Y4364122D01*
G01X511221Y4369572D01*
G01X530307Y4378472D01*
G01X547558Y4390551D01*
G01X562449Y4405442D01*
G01X574528Y4422693D01*
G01X583428Y4441779D01*
G01X588878Y4462121D01*
G01X590714Y4483100D01*
G01X588878Y4504079D01*
G01X583428Y4524421D01*
G01X574528Y4543507D01*
G01X562449Y4560758D01*
G01X555107Y4568100D01*
G01X603086Y4568100D01*
G01X603086Y4398100D01*
G01X604839Y4387033D01*
G01X609926Y4377049D01*
G01X617849Y4369126D01*
G01X627833Y4364039D01*
G01X638900Y4362286D01*
G01X808900Y4362286D01*
G01X819967Y4364039D01*
G01X829951Y4369126D01*
G01X837874Y4377049D01*
G01X842961Y4387033D01*
G01X844714Y4398100D01*
G01X844714Y4422286D01*
G01X1168610Y4422286D01*
G01X1208300Y4382596D01*
G01X1214839Y4370092D01*
G01X1223875Y4359255D01*
G01X1234999Y4350575D01*
G01X1247708Y4344445D01*
G01X1261427Y4341142D01*
G01X1275533Y4340817D01*
G01X1289389Y4343484D01*
G01X1302367Y4349021D01*
G01X1313880Y4357179D01*
G01X1323406Y4367589D01*
G01X1330514Y4379778D01*
G01X1334882Y4393194D01*
G01X1336313Y4407232D01*
G01X1334742Y4421254D01*
G01X1887398Y3868598D01*
G01X1896614Y3861035D01*
G01X1907128Y3855415D01*
G01X1918536Y3851955D01*
G01X1930400Y3850786D01*
G01X2337010Y3850786D01*
G01X2529552Y3658244D01*
G01X2517102Y3641338D01*
G01X2507910Y3622461D01*
G01X2502276Y3602235D01*
G01X2500386Y3581325D01*
G01X2502303Y3560417D01*
G01X2507963Y3540198D01*
G01X2517180Y3521334D01*
G01X2529652Y3504443D01*
G01X2544968Y3490082D01*
G01X2562626Y3478723D01*
G01X2582044Y3470737D01*
G01X2602584Y3466389D01*
G01X2623572Y3465821D01*
G01X2644318Y3469051D01*
G01X2664140Y3475974D01*
G01X2682386Y3486362D01*
G01X2682386Y3479800D01*
G01X2683555Y3467936D01*
G01X2687015Y3456528D01*
G01X2692635Y3446014D01*
G01X2700198Y3436798D01*
G01X2776398Y3360598D01*
G01X2785614Y3353035D01*
G01X2796128Y3347415D01*
G01X2807536Y3343955D01*
G01X2819400Y3342786D01*
G01X3327400Y3342786D01*
G01X3339264Y3343955D01*
G01X3350672Y3347415D01*
G01X3361186Y3353035D01*
G01X3370402Y3360598D01*
G01X3421202Y3411398D01*
G01X3428765Y3420614D01*
G01X3434385Y3431128D01*
G01X3437845Y3442536D01*
G01X3439014Y3454400D01*
G01X3439014Y3482838D01*
G01X3454735Y3494479D01*
G01X3468272Y3508600D01*
G01X3479240Y3524797D01*
G01X3487325Y3542610D01*
G01X3492296Y3561529D01*
G01X3494013Y3581015D01*
G01X3492426Y3600512D01*
G01X3487580Y3619464D01*
G01X3479613Y3637330D01*
G01X3530787Y3637330D01*
G01X3522171Y3617545D01*
G01X3517375Y3596504D01*
G01X3516566Y3574940D01*
G01X3519772Y3553599D01*
G01X3526882Y3533224D01*
G01X3537648Y3514521D01*
G01X3551697Y3498141D01*
G01X3568541Y3484651D01*
G01X3587595Y3474520D01*
G01X3608198Y3468101D01*
G01X3629634Y3465615D01*
G01X3651159Y3467149D01*
G01X3672026Y3472649D01*
G01X3691511Y3481926D01*
G01X3708936Y3494656D01*
G01X3723697Y3510398D01*
G01X3735281Y3528606D01*
G01X3743286Y3548646D01*
G01X3747434Y3569823D01*
G01X3747581Y3591403D01*
G01X3743722Y3612635D01*
G01X3735991Y3632783D01*
G01X3724657Y3651146D01*
G01X3710113Y3667088D01*
G01X3692863Y3680055D01*
G01X3673507Y3689597D01*
G01X3664718Y3698386D01*
G01X3734010Y3698386D01*
G01X3788619Y3643777D01*
G01X3778969Y3625154D01*
G01X3772836Y3605096D01*
G01X3770421Y3584261D01*
G01X3771804Y3563332D01*
G01X3776939Y3542995D01*
G01X3785658Y3523918D01*
G01X3797674Y3506727D01*
G01X3812594Y3491985D01*
G01X3829929Y3480176D01*
G01X3849108Y3471686D01*
G01X3869505Y3466796D01*
G01X3890449Y3465664D01*
G01X3911254Y3468329D01*
G01X3931237Y3474702D01*
G01X3949743Y3484575D01*
G01X3966164Y3497623D01*
G01X3979963Y3513420D01*
G01X3990687Y3531446D01*
G01X3997983Y3551111D01*
G01X4001613Y3571769D01*
G01X4001541Y3581400D01*
G01X4024386Y3581400D01*
G01X4026358Y3560119D01*
G01X4032207Y3539563D01*
G01X4041733Y3520432D01*
G01X4054613Y3503377D01*
G01X4070407Y3488979D01*
G01X4088577Y3477728D01*
G01X4108506Y3470007D01*
G01X4129514Y3466080D01*
G01X4150886Y3466080D01*
G01X4171894Y3470007D01*
G01X4191823Y3477728D01*
G01X4209993Y3488979D01*
G01X4225787Y3503377D01*
G01X4238667Y3520432D01*
G01X4248193Y3539563D01*
G01X4254042Y3560119D01*
G01X4256014Y3581400D01*
G01X4256014Y3581400D01*
G01X4278386Y3581400D01*
G01X4280358Y3560119D01*
G01X4286207Y3539563D01*
G01X4295733Y3520432D01*
G01X4308613Y3503377D01*
G01X4324407Y3488979D01*
G01X4342577Y3477728D01*
G01X4362506Y3470007D01*
G01X4383514Y3466080D01*
G01X4404886Y3466080D01*
G01X4425894Y3470007D01*
G01X4445823Y3477728D01*
G01X4463993Y3488979D01*
G01X4479787Y3503377D01*
G01X4492667Y3520432D01*
G01X4502193Y3539563D01*
G01X4508042Y3560119D01*
G01X4510014Y3581400D01*
G01X4510014Y3581400D01*
G01X4532386Y3581400D01*
G01X4534358Y3560119D01*
G01X4540207Y3539563D01*
G01X4549733Y3520432D01*
G01X4562613Y3503377D01*
G01X4578407Y3488979D01*
G01X4596577Y3477728D01*
G01X4616506Y3470007D01*
G01X4637514Y3466080D01*
G01X4658886Y3466080D01*
G01X4679894Y3470007D01*
G01X4699823Y3477728D01*
G01X4717993Y3488979D01*
G01X4733787Y3503377D01*
G01X4746667Y3520432D01*
G01X4756193Y3539563D01*
G01X4762042Y3560119D01*
G01X4764014Y3581400D01*
G01X4764014Y3581400D01*
G01X4786386Y3581400D01*
G01X4788358Y3560119D01*
G01X4794207Y3539563D01*
G01X4803733Y3520432D01*
G01X4816613Y3503377D01*
G01X4832407Y3488979D01*
G01X4850577Y3477728D01*
G01X4870506Y3470007D01*
G01X4891514Y3466080D01*
G01X4912886Y3466080D01*
G01X4933894Y3470007D01*
G01X4953823Y3477728D01*
G01X4971993Y3488979D01*
G01X4987787Y3503377D01*
G01X5000667Y3520432D01*
G01X5010193Y3539563D01*
G01X5016042Y3560119D01*
G01X5018014Y3581400D01*
G01X5018014Y3581400D01*
G01X5040386Y3581400D01*
G01X5042358Y3560119D01*
G01X5048207Y3539563D01*
G01X5057733Y3520432D01*
G01X5070613Y3503377D01*
G01X5086407Y3488979D01*
G01X5104577Y3477728D01*
G01X5124506Y3470007D01*
G01X5145514Y3466080D01*
G01X5166886Y3466080D01*
G01X5187894Y3470007D01*
G01X5207823Y3477728D01*
G01X5225993Y3488979D01*
G01X5241787Y3503377D01*
G01X5254667Y3520432D01*
G01X5264193Y3539563D01*
G01X5270042Y3560119D01*
G01X5271033Y3570817D01*
G01X5294871Y3570817D01*
G01X5298783Y3549793D01*
G01X5306493Y3529847D01*
G01X5317740Y3511658D01*
G01X5332138Y3495847D01*
G01X5349199Y3482954D01*
G01X5368339Y3473416D01*
G01X5388907Y3467560D01*
G01X5410200Y3465586D01*
G01X5431493Y3467560D01*
G01X5452061Y3473416D01*
G01X5471201Y3482954D01*
G01X5488262Y3495847D01*
G01X5502660Y3511658D01*
G01X5513907Y3529847D01*
G01X5521617Y3549793D01*
G01X5525529Y3570817D01*
G01X5525519Y3581400D01*
G01X5548386Y3581400D01*
G01X5550358Y3560119D01*
G01X5556207Y3539563D01*
G01X5565733Y3520432D01*
G01X5578613Y3503377D01*
G01X5594407Y3488979D01*
G01X5612577Y3477728D01*
G01X5632506Y3470007D01*
G01X5653514Y3466080D01*
G01X5674886Y3466080D01*
G01X5695894Y3470007D01*
G01X5715823Y3477728D01*
G01X5733993Y3488979D01*
G01X5749787Y3503377D01*
G01X5762667Y3520432D01*
G01X5772193Y3539563D01*
G01X5778042Y3560119D01*
G01X5780014Y3581400D01*
G01X5780014Y3581400D01*
G01X5778042Y3602681D01*
G01X5772193Y3623237D01*
G01X5762667Y3642368D01*
G01X5749787Y3659423D01*
G01X5733993Y3673821D01*
G01X5715823Y3685072D01*
G01X5695894Y3692793D01*
G01X5674886Y3696720D01*
G01X5653514Y3696720D01*
G01X5632506Y3692793D01*
G01X5612577Y3685072D01*
G01X5594407Y3673821D01*
G01X5578613Y3659423D01*
G01X5565733Y3642368D01*
G01X5556207Y3623237D01*
G01X5550358Y3602681D01*
G01X5548386Y3581400D01*
G01X5525519Y3581400D01*
G01X5525509Y3592202D01*
G01X5521557Y3613218D01*
G01X5513809Y3633150D01*
G01X5502528Y3651317D01*
G01X5488099Y3667101D01*
G01X5471014Y3679962D01*
G01X5471014Y3810210D01*
G01X5930690Y4269886D01*
G01X5939779Y4269886D01*
G01X5933720Y4264380D01*
G01X5844820Y4175480D01*
G01X5834148Y4162476D01*
G01X5826218Y4147640D01*
G01X5821335Y4131541D01*
G01X5819686Y4114800D01*
G01X5819686Y4042268D01*
G01X5804039Y4027283D01*
G01X5790973Y4010000D01*
G01X5780822Y3990859D01*
G01X5773844Y3970348D01*
G01X5770216Y3948988D01*
G01X5770031Y3927323D01*
G01X5773294Y3905905D01*
G01X5779921Y3885278D01*
G01X5789743Y3865966D01*
G01X5802512Y3848463D01*
G01X5817901Y3833213D01*
G01X5835519Y3820604D01*
G01X5854919Y3810957D01*
G01X5875605Y3804517D01*
G01X5897053Y3801449D01*
G01X5918715Y3801831D01*
G01X5940041Y3805652D01*
G01X5960488Y3812816D01*
G01X5979536Y3823140D01*
G01X5996699Y3836362D01*
G01X6011542Y3852144D01*
G01X6023686Y3870087D01*
G01X6023686Y3837000D01*
G01X6025439Y3825933D01*
G01X6030526Y3815949D01*
G01X6038449Y3808026D01*
G01X6048433Y3802939D01*
G01X6059500Y3801186D01*
G01X6086386Y3801186D01*
G01X6086386Y3696739D01*
G01X6075846Y3693262D01*
G01X6066876Y3686724D01*
G01X6060338Y3677754D01*
G01X6056861Y3667214D01*
G01X5995974Y3667214D01*
G01X5979603Y3679596D01*
G01X5961303Y3688894D01*
G01X5941649Y3694815D01*
G01X5921259Y3697173D01*
G01X5900773Y3695895D01*
G01X5880834Y3691020D01*
G01X5862068Y3682702D01*
G01X5845066Y3671202D01*
G01X5830362Y3656880D01*
G01X5818416Y3640188D01*
G01X5809605Y3621649D01*
G01X5804205Y3601846D01*
G01X5802386Y3581400D01*
G01X5804205Y3560954D01*
G01X5809605Y3541151D01*
G01X5818416Y3522612D01*
G01X5830362Y3505920D01*
G01X5845066Y3491598D01*
G01X5862068Y3480098D01*
G01X5880834Y3471780D01*
G01X5900773Y3466905D01*
G01X5921259Y3465627D01*
G01X5941649Y3467985D01*
G01X5961303Y3473906D01*
G01X5979603Y3483204D01*
G01X5995974Y3495586D01*
G01X6056861Y3495586D01*
G01X6059868Y3485996D01*
G01X6065421Y3477620D01*
G01X6073083Y3471116D01*
G01X6082250Y3466996D01*
G01X6092200Y3465586D01*
G01X6252200Y3465586D01*
G01X6263267Y3467339D01*
G01X6273251Y3472426D01*
G01X6281174Y3480349D01*
G01X6286261Y3490333D01*
G01X6288014Y3501400D01*
G01X6288014Y3661400D01*
G01X6286604Y3671350D01*
G01X6282484Y3680517D01*
G01X6275980Y3688179D01*
G01X6267604Y3693732D01*
G01X6258014Y3696739D01*
G01X6258014Y3801186D01*
G01X6259500Y3801186D01*
G01X6270567Y3802939D01*
G01X6280551Y3808026D01*
G01X6288474Y3815949D01*
G01X6293561Y3825933D01*
G01X6295314Y3837000D01*
G01X6295314Y4037000D01*
G01X6293561Y4048067D01*
G01X6288474Y4058051D01*
G01X6280551Y4065974D01*
G01X6270567Y4071061D01*
G01X6259500Y4072814D01*
G01X6059500Y4072814D01*
G01X6048433Y4071061D01*
G01X6038449Y4065974D01*
G01X6030526Y4058051D01*
G01X6025439Y4048067D01*
G01X6023686Y4037000D01*
G01X6023686Y4003913D01*
G01X6014511Y4018006D01*
G01X6003665Y4030856D01*
G01X5991314Y4042268D01*
G01X5991314Y4079255D01*
G01X6029945Y4117886D01*
G01X6454155Y4117886D01*
G01X6480086Y4091955D01*
G01X6480086Y4054968D01*
G01X6464065Y4039561D01*
G01X6450771Y4021747D01*
G01X6440561Y4002004D01*
G01X6433709Y3980859D01*
G01X6430397Y3958880D01*
G01X6430714Y3936654D01*
G01X6434652Y3914779D01*
G01X6442106Y3893838D01*
G01X6452876Y3874394D01*
G01X6466673Y3856967D01*
G01X6483127Y3842024D01*
G01X6501799Y3829965D01*
G01X6522188Y3821113D01*
G01X6543747Y3815705D01*
G01X6565900Y3813886D01*
G01X6588053Y3815705D01*
G01X6609612Y3821113D01*
G01X6630001Y3829965D01*
G01X6648673Y3842024D01*
G01X6665127Y3856967D01*
G01X6678924Y3874394D01*
G01X6689694Y3893838D01*
G01X6697148Y3914779D01*
G01X6701086Y3936654D01*
G01X6701403Y3958880D01*
G01X6698091Y3980859D01*
G01X6691239Y4002004D01*
G01X6681029Y4021747D01*
G01X6667735Y4039561D01*
G01X6651714Y4054968D01*
G01X6651714Y4127500D01*
G01X6650065Y4144241D01*
G01X6645182Y4160340D01*
G01X6637252Y4175176D01*
G01X6626580Y4188180D01*
G01X6550380Y4264380D01*
G01X6537376Y4275052D01*
G01X6522540Y4282982D01*
G01X6506441Y4287865D01*
G01X6489700Y4289514D01*
G01X6356718Y4289514D01*
G01X7294702Y5227498D01*
G01X7302265Y5236714D01*
G01X7307885Y5247228D01*
G01X7311345Y5258636D01*
G01X7312514Y5270500D01*
G01X7312514Y8550326D01*
G01X7356274Y8565485D01*
G01X7398562Y8584367D01*
G01X7439062Y8606830D01*
G01X7477470Y8632706D01*
G01X7513501Y8661802D01*
G01X7546884Y8693901D01*
G01X7577371Y8728762D01*
G01X7604734Y8766126D01*
G01X7628768Y8805713D01*
G01X7649294Y8847228D01*
G01X7666158Y8890360D01*
G01X7679235Y8934787D01*
G01X7688427Y8980178D01*
G01X7693664Y9026192D01*
G01X7694909Y9072487D01*
G01X7692152Y9118717D01*
G01X7685412Y9164536D01*
G01X7674742Y9209602D01*
G01X7660219Y9253578D01*
G01X7641954Y9296135D01*
G01X7620082Y9336957D01*
G01X7594766Y9375737D01*
G01X7566197Y9412186D01*
G01X7534586Y9446032D01*
G01X7500171Y9477023D01*
G01X7463209Y9504925D01*
G01X7423975Y9529532D01*
G01X7382763Y9550658D01*
G01X7339880Y9568147D01*
G01X7295647Y9581868D01*
G01X7250395Y9591718D01*
G01X7204462Y9597624D01*
G01X7158189Y9599541D01*
G01X7111925Y9597455D01*
G01X7066013Y9591382D01*
G01X7020797Y9581367D01*
G01X6976615Y9567485D01*
G01X6933796Y9549839D01*
G01X6892661Y9528563D01*
G01X6853517Y9503813D01*
G01X6816657Y9475776D01*
G01X6782355Y9444660D01*
G01X6750869Y9410699D01*
G01X6722432Y9374146D01*
G01X6697258Y9335273D01*
G01X6675535Y9294372D01*
G01X6657425Y9251748D01*
G01X6643063Y9207720D01*
G01X6632557Y9162615D01*
G01X6625985Y9116772D01*
G01X6623396Y9070533D01*
G01X6624810Y9024243D01*
G01X6630215Y8978248D01*
G01X6639572Y8932891D01*
G01X6652811Y8888512D01*
G01X6669833Y8845441D01*
G01X6690510Y8804002D01*
G01X6714688Y8764503D01*
G01X6742187Y8727239D01*
G01X6772801Y8692489D01*
G01X6806302Y8660512D01*
G01X6842438Y8631548D01*
G01X6880941Y8605812D01*
G01X6921522Y8583497D01*
G01X6963878Y8564770D01*
G01X7007694Y8549770D01*
G01X7052641Y8538610D01*
G01X7098383Y8531372D01*
G01X7144580Y8528112D01*
G01X7190886Y8528853D01*
G01X7190886Y5295690D01*
G01X6286710Y4391514D01*
G01X6286710Y4391514D01*
G01X5905500Y4391514D01*
G01X5893636Y4390345D01*
G01X5882228Y4386885D01*
G01X5871714Y4381265D01*
G01X5862498Y4373702D01*
G01X5367198Y3878402D01*
G01X5359635Y3869186D01*
G01X5354015Y3858672D01*
G01X5350555Y3847264D01*
G01X5349386Y3835400D01*
G01X5349386Y3679962D01*
G01X5332301Y3667101D01*
G01X5317872Y3651317D01*
G01X5306591Y3633150D01*
G01X5298843Y3613218D01*
G01X5294891Y3592202D01*
G01X5294871Y3570817D01*
G01X5271033Y3570817D01*
G01X5272014Y3581400D01*
G01X5272014Y3581400D01*
G01X5270042Y3602681D01*
G01X5264193Y3623237D01*
G01X5254667Y3642368D01*
G01X5241787Y3659423D01*
G01X5225993Y3673821D01*
G01X5207823Y3685072D01*
G01X5187894Y3692793D01*
G01X5166886Y3696720D01*
G01X5145514Y3696720D01*
G01X5124506Y3692793D01*
G01X5104577Y3685072D01*
G01X5086407Y3673821D01*
G01X5070613Y3659423D01*
G01X5057733Y3642368D01*
G01X5048207Y3623237D01*
G01X5042358Y3602681D01*
G01X5040386Y3581400D01*
G01X5018014Y3581400D01*
G01X5016042Y3602681D01*
G01X5010193Y3623237D01*
G01X5000667Y3642368D01*
G01X4987787Y3659423D01*
G01X4971993Y3673821D01*
G01X4953823Y3685072D01*
G01X4933894Y3692793D01*
G01X4912886Y3696720D01*
G01X4891514Y3696720D01*
G01X4870506Y3692793D01*
G01X4850577Y3685072D01*
G01X4832407Y3673821D01*
G01X4816613Y3659423D01*
G01X4803733Y3642368D01*
G01X4794207Y3623237D01*
G01X4788358Y3602681D01*
G01X4786386Y3581400D01*
G01X4764014Y3581400D01*
G01X4762042Y3602681D01*
G01X4756193Y3623237D01*
G01X4746667Y3642368D01*
G01X4733787Y3659423D01*
G01X4717993Y3673821D01*
G01X4699823Y3685072D01*
G01X4679894Y3692793D01*
G01X4658886Y3696720D01*
G01X4637514Y3696720D01*
G01X4616506Y3692793D01*
G01X4596577Y3685072D01*
G01X4578407Y3673821D01*
G01X4562613Y3659423D01*
G01X4549733Y3642368D01*
G01X4540207Y3623237D01*
G01X4534358Y3602681D01*
G01X4532386Y3581400D01*
G01X4510014Y3581400D01*
G01X4508042Y3602681D01*
G01X4502193Y3623237D01*
G01X4492667Y3642368D01*
G01X4479787Y3659423D01*
G01X4463993Y3673821D01*
G01X4445823Y3685072D01*
G01X4425894Y3692793D01*
G01X4404886Y3696720D01*
G01X4383514Y3696720D01*
G01X4362506Y3692793D01*
G01X4342577Y3685072D01*
G01X4324407Y3673821D01*
G01X4308613Y3659423D01*
G01X4295733Y3642368D01*
G01X4286207Y3623237D01*
G01X4280358Y3602681D01*
G01X4278386Y3581400D01*
G01X4256014Y3581400D01*
G01X4254042Y3602681D01*
G01X4248193Y3623237D01*
G01X4238667Y3642368D01*
G01X4225787Y3659423D01*
G01X4209993Y3673821D01*
G01X4191823Y3685072D01*
G01X4171894Y3692793D01*
G01X4150886Y3696720D01*
G01X4129514Y3696720D01*
G01X4108506Y3692793D01*
G01X4088577Y3685072D01*
G01X4070407Y3673821D01*
G01X4054613Y3659423D01*
G01X4041733Y3642368D01*
G01X4032207Y3623237D01*
G01X4026358Y3602681D01*
G01X4024386Y3581400D01*
G01X4001541Y3581400D01*
G01X4001457Y3592743D01*
G01X3997521Y3613345D01*
G01X3989934Y3632899D01*
G01X3978944Y3650764D01*
G01X3964912Y3666354D01*
G01X3948299Y3679158D01*
G01X3929648Y3688755D01*
G01X3909573Y3694831D01*
G01X3802202Y3802202D01*
G01X3792986Y3809765D01*
G01X3782472Y3815385D01*
G01X3771064Y3818845D01*
G01X3759200Y3820014D01*
G01X3488525Y3820014D01*
G01X3456337Y3852202D01*
G01X3447122Y3859765D01*
G01X3436608Y3865385D01*
G01X3425200Y3868845D01*
G01X3413335Y3870014D01*
G01X2832690Y3870014D01*
G01X2714076Y3988628D01*
G01X2727141Y3994814D01*
G01X2738555Y4003684D01*
G01X2747776Y4014817D01*
G01X2754366Y4027683D01*
G01X2758011Y4041672D01*
G01X2758539Y4056118D01*
G01X2755924Y4070335D01*
G01X2750290Y4083647D01*
G01X2741905Y4095423D01*
G01X2731168Y4105102D01*
G01X2718589Y4112224D01*
G01X2704765Y4116451D01*
G01X2690354Y4117582D01*
G01X2676040Y4115564D01*
G01X2532202Y4259402D01*
G01X2522986Y4266965D01*
G01X2512472Y4272585D01*
G01X2501064Y4276045D01*
G01X2489200Y4277214D01*
G01X2146090Y4277214D01*
G01X987914Y5435390D01*
G01X987914Y5549900D01*
G01X986745Y5561764D01*
G01X983285Y5573172D01*
G01X977665Y5583686D01*
G01X970102Y5592902D01*
G01X840718Y5722286D01*
G01X844292Y5743008D01*
G01X844218Y5764036D01*
G01X840499Y5784732D01*
G01X833248Y5804471D01*
G01X822685Y5822653D01*
G01X809128Y5838728D01*
G01X792990Y5852209D01*
G01X774759Y5862687D01*
G01X754987Y5869846D01*
G01X734273Y5873468D01*
G01X713245Y5873443D01*
G01X692540Y5869773D01*
G01X672785Y5862568D01*
G01X654578Y5852047D01*
G01X638472Y5838528D01*
G01X624953Y5822422D01*
G01X614432Y5804215D01*
G01X607227Y5784460D01*
G01X603557Y5763755D01*
G01X603532Y5742727D01*
G01X607154Y5722013D01*
G01X614313Y5702241D01*
G01X624791Y5684010D01*
G01X638272Y5667872D01*
G01X654347Y5654315D01*
G01X672529Y5643752D01*
G01X692268Y5636501D01*
G01X712964Y5632782D01*
G01X733992Y5632708D01*
G01X754714Y5636282D01*
G01X792331Y5598665D01*
G01X773192Y5609401D01*
G01X752426Y5616498D01*
G01X730719Y5619721D01*
G01X708788Y5618965D01*
G01X687354Y5614254D01*
G01X667127Y5605743D01*
G01X648772Y5593714D01*
G01X632897Y5578563D01*
G01X620024Y5560791D01*
G01X610578Y5540983D01*
G01X604871Y5519793D01*
G01X603092Y5497920D01*
G01X605298Y5476086D01*
G01X611418Y5455012D01*
G01X621249Y5435392D01*
G01X634466Y5417874D01*
G01X650635Y5403036D01*
G01X669221Y5391368D01*
G01X689611Y5383254D01*
G01X711132Y5378963D01*
G01X733074Y5378635D01*
G01X754714Y5382282D01*
G01X792331Y5344665D01*
G01X773653Y5355194D01*
G01X753407Y5362255D01*
G01X732231Y5365626D01*
G01X710794Y5365201D01*
G01X689769Y5360992D01*
G01X669819Y5353133D01*
G01X651572Y5341871D01*
G01X635604Y5327561D01*
G01X622417Y5310654D01*
G01X612427Y5291681D01*
G01X605948Y5271241D01*
G01X603185Y5249978D01*
G01X604224Y5228561D01*
G01X609032Y5207665D01*
G01X617459Y5187949D01*
G01X629239Y5170032D01*
G01X644000Y5154480D01*
G01X661278Y5141783D01*
G01X680529Y5132340D01*
G01X701146Y5126448D01*
G01X722479Y5124295D01*
G01X743857Y5125946D01*
G01X764607Y5131351D01*
G01X784075Y5140338D01*
G01X801647Y5152626D01*
G01X816770Y5167826D01*
G01X932682Y5051914D01*
G01X932682Y5051914D01*
G01X828292Y5051914D01*
G01X816166Y5069094D01*
G01X801245Y5083910D01*
G01X783981Y5095916D01*
G01X764896Y5104745D01*
G01X744570Y5110132D01*
G01X723618Y5111914D01*
G01X702674Y5110035D01*
G01X682373Y5104553D01*
G01X663330Y5095634D01*
G01X646122Y5083548D01*
G01X631271Y5068661D01*
G01X619225Y5051425D01*
G01X610351Y5032362D01*
G01X604916Y5012048D01*
G01X603086Y4991100D01*
G01X604916Y4970152D01*
G01X610351Y4949838D01*
G01X619225Y4930775D01*
G01X631271Y4913539D01*
G01X646122Y4898652D01*
G01X663330Y4886566D01*
G01X682373Y4877647D01*
G01X702674Y4872165D01*
G01X723618Y4870286D01*
G01X744570Y4872068D01*
G01X764896Y4877455D01*
G01X783981Y4886284D01*
G01X801245Y4898290D01*
G01X816166Y4913106D01*
G01X828292Y4930286D01*
G01X927310Y4930286D01*
G01X1059682Y4797914D01*
G01X828292Y4797914D01*
G01X816166Y4815094D01*
G01X801245Y4829910D01*
G01X783981Y4841916D01*
G01X764896Y4850745D01*
G01X744570Y4856132D01*
G01X723618Y4857914D01*
G01X702674Y4856035D01*
G01X682373Y4850553D01*
G01X663330Y4841634D01*
G01X646122Y4829548D01*
G01X631271Y4814661D01*
G01X619225Y4797425D01*
G01X610351Y4778362D01*
G01X604916Y4758048D01*
G01X603086Y4737100D01*
G01X604916Y4716152D01*
G01X610351Y4695838D01*
G01X619225Y4676775D01*
G01X631271Y4659539D01*
G01X646122Y4644652D01*
G01X663330Y4632566D01*
G01X682373Y4623647D01*
G01X702674Y4618165D01*
G01X723618Y4616286D01*
G01X744570Y4618068D01*
G01X764896Y4623455D01*
G01X783981Y4632284D01*
G01X801245Y4644290D01*
G01X816166Y4659106D01*
G01X828292Y4676286D01*
G01X1079710Y4676286D01*
G01X1216463Y4539534D01*
G01X1205341Y4542809D01*
G01X1193800Y4543914D01*
G01X844714Y4543914D01*
G01X844714Y4568100D01*
G01X842961Y4579167D01*
G01X837874Y4589151D01*
G01X829951Y4597074D01*
G01X819967Y4602161D01*
G01X808900Y4603914D01*
G01X638900Y4603914D01*
G01X627833Y4602161D01*
G01X617849Y4597074D01*
G01X609926Y4589151D01*
G01X604839Y4579167D01*
G01X603086Y4568100D01*
G01X555107Y4568100D01*
G01X547558Y4575649D01*
G01X530307Y4587728D01*
G01X511221Y4596628D01*
G01X490879Y4602078D01*
G01X469900Y4603914D01*
G01X448921Y4602078D01*
G01X428579Y4596628D01*
G01X409493Y4587728D01*
G01X392242Y4575649D01*
G01X377351Y4560758D01*
G01X365272Y4543507D01*
G01X356372Y4524421D01*
G01X350922Y4504079D01*
G01X349086Y4483100D01*
G01X276504Y4483100D01*
G01X149714Y4609890D01*
G01X149714Y4710657D01*
G01X154283Y4726029D01*
G01X154799Y4737100D01*
G01X349086Y4737100D01*
G01X350922Y4716121D01*
G01X356372Y4695779D01*
G01X365272Y4676693D01*
G01X377351Y4659442D01*
G01X392242Y4644551D01*
G01X409493Y4632472D01*
G01X428579Y4623572D01*
G01X448921Y4618122D01*
G01X469900Y4616286D01*
G01X469900Y4616286D01*
G01X490879Y4618122D01*
G01X511221Y4623572D01*
G01X530307Y4632472D01*
G01X547558Y4644551D01*
G01X562449Y4659442D01*
G01X574528Y4676693D01*
G01X583428Y4695779D01*
G01X588878Y4716121D01*
G01X590714Y4737100D01*
G01X588878Y4758079D01*
G01X583428Y4778421D01*
G01X574528Y4797507D01*
G01X562449Y4814758D01*
G01X547558Y4829649D01*
G01X530307Y4841728D01*
G01X511221Y4850628D01*
G01X490879Y4856078D01*
G01X469900Y4857914D01*
G01X448921Y4856078D01*
G01X428579Y4850628D01*
G01X409493Y4841728D01*
G01X392242Y4829649D01*
G01X377351Y4814758D01*
G01X365272Y4797507D01*
G01X356372Y4778421D01*
G01X350922Y4758079D01*
G01X349086Y4737100D01*
G01X154799Y4737100D01*
G01X155029Y4742049D01*
G01X151907Y4757779D01*
G01X145101Y4772300D01*
G01X135007Y4784762D01*
G01X122217Y4794437D01*
G37*
G36*
G01X1920386Y8238181D02*
G01X1920386Y8216690D01*
G01X1909697Y8206001D01*
G01X1915101Y8216057D01*
G01X1918699Y8226891D01*
G01X1920386Y8238181D01*
G37*
G36*
G01X2407782Y9073092D02*
G01X2414588Y9067928D01*
G01X2422423Y9064523D01*
G01X2425828Y9056688D01*
G01X2430992Y9049882D01*
G01X2422299Y9051185D01*
G01X2413550Y9050332D01*
G01X2405273Y9047373D01*
G01X2408232Y9055650D01*
G01X2409085Y9064399D01*
G01X2407782Y9073092D01*
G37*
G36*
G01X4246702Y8209102D02*
G01X4237486Y8216665D01*
G01X4226972Y8222285D01*
G01X4215564Y8225745D01*
G01X4203700Y8226914D01*
G01X3187490Y8226914D01*
G01X2943714Y8470690D01*
G01X2943714Y8536404D01*
G01X3614576Y8536404D01*
G01X3616329Y8525337D01*
G01X3621416Y8515353D01*
G01X3629339Y8507430D01*
G01X3639323Y8502343D01*
G01X3650390Y8500590D01*
G01X3760390Y8500590D01*
G01X3771457Y8502343D01*
G01X3781441Y8507430D01*
G01X3789364Y8515353D01*
G01X3794451Y8525337D01*
G01X3796204Y8536404D01*
G01X3796204Y8596404D01*
G01X3794451Y8607471D01*
G01X3789364Y8617455D01*
G01X3781441Y8625378D01*
G01X3771457Y8630465D01*
G01X3760390Y8632218D01*
G01X3650390Y8632218D01*
G01X3639323Y8630465D01*
G01X3629339Y8625378D01*
G01X3621416Y8617455D01*
G01X3616329Y8607471D01*
G01X3614576Y8596404D01*
G01X3614576Y8536404D01*
G01X3614576Y8536404D01*
G01X2943714Y8536404D01*
G01X2943714Y8826710D01*
G01X2996990Y8879986D01*
G01X3091682Y8879986D01*
G01X3083244Y8871548D01*
G01X3074275Y8860126D01*
G01X3068269Y8846904D01*
G01X3065570Y8832634D01*
G01X3046521Y8821079D01*
G01X3029618Y8806566D01*
G01X3015315Y8789484D01*
G01X3003997Y8770294D01*
G01X2995969Y8749511D01*
G01X2991447Y8727696D01*
G01X2990552Y8705434D01*
G01X2993308Y8683326D01*
G01X2999642Y8661966D01*
G01X3009383Y8641929D01*
G01X3022268Y8623755D01*
G01X3037952Y8607931D01*
G01X3056011Y8594884D01*
G01X3075961Y8584966D01*
G01X3097264Y8578442D01*
G01X3119346Y8575489D01*
G01X3141615Y8576186D01*
G01X3163469Y8580514D01*
G01X3184323Y8588357D01*
G01X3203613Y8599504D01*
G01X3220821Y8613654D01*
G01X3235485Y8630428D01*
G01X3247208Y8649373D01*
G01X3255677Y8669980D01*
G01X3260663Y8691694D01*
G01X3262031Y8713931D01*
G01X3259746Y8736093D01*
G01X3253868Y8757583D01*
G01X3244556Y8777823D01*
G01X3232060Y8796268D01*
G01X3442386Y8796268D01*
G01X3442386Y8742236D01*
G01X3444139Y8731168D01*
G01X3449226Y8721185D01*
G01X3457149Y8713261D01*
G01X3467133Y8708174D01*
G01X3478200Y8706422D01*
G01X3532200Y8706422D01*
G01X3539868Y8707252D01*
G01X3547179Y8709704D01*
G01X3618704Y8709704D01*
G01X3624340Y8701819D01*
G01X3631885Y8695733D01*
G01X3640786Y8691894D01*
G01X3650390Y8690582D01*
G01X3760390Y8690582D01*
G01X3771457Y8692335D01*
G01X3781441Y8697422D01*
G01X3789364Y8705345D01*
G01X3794451Y8715329D01*
G01X3796204Y8726396D01*
G01X3796204Y8786396D01*
G01X3794451Y8797463D01*
G01X3789364Y8807447D01*
G01X3781441Y8815370D01*
G01X3771457Y8820457D01*
G01X3760390Y8822210D01*
G01X3723304Y8822210D01*
G01X3713252Y8827220D01*
G01X3702451Y8830295D01*
G01X3691268Y8831332D01*
G01X3568014Y8831332D01*
G01X3568014Y8885365D01*
G01X3566014Y8897166D01*
G01X3566014Y9207710D01*
G01X3700602Y9342298D01*
G01X3708165Y9351514D01*
G01X3713785Y9362028D01*
G01X3717245Y9373436D01*
G01X3718414Y9385300D01*
G01X3718414Y9427741D01*
G01X3726184Y9424933D01*
G01X3734391Y9423980D01*
G01X3743436Y9423980D01*
G01X3735659Y9409753D01*
G01X3731568Y9394065D01*
G01X3731406Y9377852D01*
G01X3735182Y9362085D01*
G01X3742672Y9347705D01*
G01X3753428Y9335573D01*
G01X3766806Y9326413D01*
G01X3782007Y9320773D01*
G01X3798122Y9318991D01*
G01X3814188Y9321172D01*
G01X3829245Y9327187D01*
G01X3842392Y9336676D01*
G01X3852843Y9349071D01*
G01X3859974Y9363632D01*
G01X3865584Y9374139D01*
G01X3869038Y9385537D01*
G01X3870204Y9397390D01*
G01X3870204Y9423980D01*
G01X3880574Y9423980D01*
G01X3889377Y9409459D01*
G01X3901190Y9397261D01*
G01X3915423Y9387999D01*
G01X3931360Y9382136D01*
G01X3948202Y9379968D01*
G01X3949347Y9379968D01*
G01X3949881Y9379979D01*
G01X4229402Y9379958D01*
G01X4246509Y9381915D01*
G01X4262733Y9387681D01*
G01X4277238Y9396959D01*
G01X4289275Y9409270D01*
G01X4298223Y9423980D01*
G01X4444409Y9423980D01*
G01X4451292Y9424648D01*
G01X4457918Y9426626D01*
G01X4469441Y9419396D01*
G01X4482282Y9414907D01*
G01X4495800Y9413386D01*
G01X4749800Y9413386D01*
G01X4761664Y9414555D01*
G01X4773072Y9418015D01*
G01X4783586Y9423635D01*
G01X4792802Y9431198D01*
G01X4863890Y9502286D01*
G01X4922240Y9502286D01*
G01X4919798Y9491529D01*
G01X4920746Y9480540D01*
G01X4924993Y9470360D01*
G01X4932136Y9461955D01*
G01X4921012Y9461032D01*
G01X4910713Y9456729D01*
G01X4902239Y9449464D01*
G01X4896412Y9439943D01*
G01X4865033Y9364186D01*
G01X4864275Y9362192D01*
G01X4797633Y9295550D01*
G01X4783267Y9285708D01*
G01X4771184Y9273168D01*
G01X4761881Y9258448D01*
G01X4755741Y9242152D01*
G01X4753018Y9224952D01*
G01X4753822Y9207557D01*
G01X4758122Y9190682D01*
G01X4765740Y9175023D01*
G01X4776363Y9161224D01*
G01X4789552Y9149854D01*
G01X4804765Y9141381D01*
G01X4821376Y9136153D01*
G01X4838700Y9134386D01*
G01X4843643Y9134386D01*
G01X4860384Y9136035D01*
G01X4876482Y9140918D01*
G01X4891319Y9148848D01*
G01X4904323Y9159520D01*
G01X5010125Y9265323D01*
G01X5019471Y9261451D01*
G01X5022047Y9244667D01*
G01X5028293Y9228876D01*
G01X5037898Y9214872D01*
G01X5050378Y9203357D01*
G01X5065108Y9194909D01*
G01X5066167Y9194471D01*
G01X5066664Y9194276D01*
G01X5324900Y9087289D01*
G01X5341453Y9082550D01*
G01X5358648Y9081669D01*
G01X5375600Y9084690D01*
G01X5391432Y9091458D01*
G01X5405329Y9101624D01*
G01X5534290Y9048206D01*
G01X5608498Y8973998D01*
G01X5617714Y8966435D01*
G01X5628228Y8960815D01*
G01X5639636Y8957355D01*
G01X5651500Y8956186D01*
G01X5851714Y8956186D01*
G01X5846400Y8951807D01*
G01X5788418Y8893826D01*
G01X5781801Y8884701D01*
G01X5778348Y8873973D01*
G01X5778401Y8862702D01*
G01X5781953Y8852006D01*
G01X5632049Y8702102D01*
G01X5613851Y8716428D01*
G01X5593483Y8727454D01*
G01X5571538Y8734859D01*
G01X5548654Y8738428D01*
G01X5525496Y8738056D01*
G01X5502738Y8733755D01*
G01X5481042Y8725650D01*
G01X5461038Y8713976D01*
G01X5443309Y8699073D01*
G01X5428370Y8681374D01*
G01X5416655Y8661394D01*
G01X5408506Y8639714D01*
G01X5404158Y8616965D01*
G01X5403740Y8593808D01*
G01X5407261Y8570917D01*
G01X5414622Y8548957D01*
G01X5425606Y8528566D01*
G01X5439896Y8510339D01*
G01X5457074Y8494805D01*
G01X5476643Y8482415D01*
G01X5498032Y8473530D01*
G01X5520619Y8468409D01*
G01X5543749Y8467200D01*
G01X5566747Y8469939D01*
G01X5588945Y8476546D01*
G01X5609699Y8486828D01*
G01X5628403Y8500487D01*
G01X5644515Y8517126D01*
G01X5654246Y8517126D01*
G01X5670988Y8518775D01*
G01X5687086Y8523658D01*
G01X5701922Y8531588D01*
G01X5714926Y8542260D01*
G01X5887124Y8714458D01*
G01X5888401Y8699741D01*
G01X5892507Y8685552D01*
G01X5899287Y8672428D01*
G01X5908483Y8660868D01*
G01X5909294Y8660058D01*
G01X5909679Y8659688D01*
G01X6107315Y8462023D01*
G01X6120795Y8451310D01*
G01X6136344Y8443915D01*
G01X6153161Y8440219D01*
G01X6170378Y8440413D01*
G01X6187108Y8444487D01*
G01X6276486Y8355109D01*
G01X6276486Y8343900D01*
G01X6277655Y8332036D01*
G01X6281115Y8320628D01*
G01X6286735Y8310114D01*
G01X6294298Y8300898D01*
G01X6383198Y8211998D01*
G01X6392414Y8204435D01*
G01X6402928Y8198815D01*
G01X6414336Y8195355D01*
G01X6426200Y8194186D01*
G01X6518648Y8194186D01*
G01X6448863Y8165280D01*
G01X6440916Y8160720D01*
G01X6434387Y8154293D01*
G01X6429701Y8146419D01*
G01X6427167Y8137614D01*
G01X6311900Y8137614D01*
G01X6294058Y8135739D01*
G01X6276996Y8130195D01*
G01X6261460Y8121225D01*
G01X6248128Y8109221D01*
G01X6237583Y8094707D01*
G01X6230286Y8078318D01*
G01X6226556Y8060770D01*
G01X6226556Y8042830D01*
G01X6230286Y8025282D01*
G01X6237583Y8008893D01*
G01X6248128Y7994379D01*
G01X6261460Y7982375D01*
G01X6276996Y7973405D01*
G01X6294058Y7967861D01*
G01X6311900Y7965986D01*
G01X6473359Y7965986D01*
G01X6467758Y7951082D01*
G01X6465392Y7935338D01*
G01X6466368Y7919446D01*
G01X6470640Y7904109D01*
G01X6471079Y7903050D01*
G01X6471293Y7902561D01*
G01X6578242Y7644310D01*
G01X6586596Y7629254D01*
G01X6598132Y7616471D01*
G01X6612254Y7606621D01*
G01X6628235Y7600212D01*
G01X6645250Y7597574D01*
G01X6659478Y7563225D01*
G01X6624498Y7528245D01*
G01X6616935Y7519029D01*
G01X6611315Y7508515D01*
G01X6607855Y7497107D01*
G01X6606686Y7485243D01*
G01X6606686Y7340600D01*
G01X6607855Y7328736D01*
G01X6611315Y7317328D01*
G01X6616935Y7306814D01*
G01X6624498Y7297598D01*
G01X6738798Y7183298D01*
G01X6749802Y7174585D01*
G01X6762510Y7168627D01*
G01X6758652Y7160324D01*
G01X6660619Y7160324D01*
G01X6644556Y7167767D01*
G01X6627307Y7171756D01*
G01X6609606Y7172120D01*
G01X6592208Y7168845D01*
G01X6575852Y7162068D01*
G01X6561234Y7152080D01*
G01X6548978Y7139304D01*
G01X6539604Y7124286D01*
G01X6533511Y7107663D01*
G01X6530959Y7090144D01*
G01X6532057Y7072474D01*
G01X6536757Y7055405D01*
G01X6544860Y7039664D01*
G01X6556020Y7025920D01*
G01X6568111Y7013830D01*
G01X6581115Y7003158D01*
G01X6595951Y6995228D01*
G01X6612049Y6990344D01*
G01X6628790Y6988696D01*
G01X6735758Y6988696D01*
G01X6726255Y6977387D01*
G01X6719125Y6964449D01*
G01X6714639Y6950375D01*
G01X6712968Y6935698D01*
G01X6712968Y6934553D01*
G01X6712979Y6934019D01*
G01X6712958Y6654498D01*
G01X6714915Y6637391D01*
G01X6720681Y6621167D01*
G01X6729959Y6606662D01*
G01X6742270Y6594625D01*
G01X6756980Y6585677D01*
G01X6756980Y6575304D01*
G01X6755790Y6575304D01*
G01X6743926Y6574136D01*
G01X6732518Y6570675D01*
G01X6722004Y6565055D01*
G01X6712788Y6557492D01*
G01X6637198Y6481902D01*
G01X6629635Y6472686D01*
G01X6624015Y6462172D01*
G01X6620555Y6450764D01*
G01X6619386Y6438900D01*
G01X6619386Y6311900D01*
G01X6620555Y6300036D01*
G01X6624015Y6288628D01*
G01X6629635Y6278114D01*
G01X6637198Y6268898D01*
G01X6747223Y6158873D01*
G01X6745992Y6159325D01*
G01X6735937Y6169380D01*
G01X6722933Y6180052D01*
G01X6708097Y6187982D01*
G01X6691999Y6192865D01*
G01X6675257Y6194514D01*
G01X6565900Y6194514D01*
G01X6548058Y6192639D01*
G01X6530996Y6187095D01*
G01X6515460Y6178125D01*
G01X6502128Y6166121D01*
G01X6491583Y6151607D01*
G01X6484286Y6135218D01*
G01X6480556Y6117670D01*
G01X6480556Y6099730D01*
G01X6484286Y6082182D01*
G01X6491583Y6065793D01*
G01X6502128Y6051279D01*
G01X6515460Y6039275D01*
G01X6530996Y6030305D01*
G01X6548058Y6024761D01*
G01X6565900Y6022886D01*
G01X6639712Y6022886D01*
G01X6649123Y6013475D01*
G01X6645251Y6004129D01*
G01X6628467Y6001553D01*
G01X6612676Y5995307D01*
G01X6598672Y5985702D01*
G01X6587157Y5973222D01*
G01X6578709Y5958492D01*
G01X6578271Y5957433D01*
G01X6578076Y5956936D01*
G01X6471089Y5698700D01*
G01X6466350Y5682147D01*
G01X6465469Y5664952D01*
G01X6468490Y5648000D01*
G01X6475258Y5632168D01*
G01X6485424Y5618271D01*
G01X6471772Y5585314D01*
G01X6426200Y5585314D01*
G01X6414336Y5584145D01*
G01X6402928Y5580685D01*
G01X6392414Y5575065D01*
G01X6383198Y5567502D01*
G01X6294298Y5478602D01*
G01X6286735Y5469386D01*
G01X6281115Y5458872D01*
G01X6277655Y5447464D01*
G01X6276486Y5435600D01*
G01X6276486Y5232400D01*
G01X6277441Y5221666D01*
G01X6280276Y5211268D01*
G01X6284901Y5201534D01*
G01X6278108Y5205088D01*
G01X6270714Y5207113D01*
G01X6270714Y5219700D01*
G01X6268740Y5238000D01*
G01X6262909Y5255457D01*
G01X6253490Y5271270D01*
G01X6240915Y5284710D01*
G01X6225764Y5295160D01*
G01X6208732Y5302138D01*
G01X6190604Y5305324D01*
G01X6172214Y5304571D01*
G01X6172214Y5376792D01*
G01X6190361Y5387202D01*
G01X6206441Y5400586D01*
G01X6219970Y5416544D01*
G01X6230544Y5434597D01*
G01X6237844Y5454203D01*
G01X6241653Y5474774D01*
G01X6241856Y5495694D01*
G01X6238446Y5516336D01*
G01X6231527Y5536079D01*
G01X6221305Y5554333D01*
G01X6208087Y5570550D01*
G01X6192270Y5584244D01*
G01X6174328Y5595003D01*
G01X6154798Y5602506D01*
G01X6136740Y5620564D01*
G01X6157673Y5625160D01*
G01X6177465Y5633382D01*
G01X6195492Y5644973D01*
G01X6211188Y5659566D01*
G01X6224058Y5676703D01*
G01X6233698Y5695844D01*
G01X6239803Y5716387D01*
G01X6242183Y5737687D01*
G01X6240762Y5759071D01*
G01X6235585Y5779868D01*
G01X6226815Y5799423D01*
G01X6214727Y5817120D01*
G01X6199703Y5832404D01*
G01X6182214Y5844792D01*
G01X6182214Y6959600D01*
G01X6181045Y6971464D01*
G01X6177585Y6982872D01*
G01X6171965Y6993386D01*
G01X6164402Y7002602D01*
G01X5992575Y7174429D01*
G01X6009330Y7186951D01*
G01X6023673Y7202175D01*
G01X6035176Y7219646D01*
G01X6043493Y7238838D01*
G01X6048376Y7259177D01*
G01X6049676Y7280054D01*
G01X6047356Y7300842D01*
G01X6041486Y7320918D01*
G01X6032240Y7339681D01*
G01X6019897Y7356568D01*
G01X6004826Y7371073D01*
G01X5987479Y7382761D01*
G01X5968376Y7391282D01*
G01X5948090Y7396380D01*
G01X5927229Y7397902D01*
G01X5906417Y7395804D01*
G01X5886279Y7390147D01*
G01X5867419Y7381101D01*
G01X5850402Y7368938D01*
G01X5835738Y7354023D01*
G01X5823866Y7336801D01*
G01X5815143Y7317790D01*
G01X5809829Y7297559D01*
G01X5808085Y7276714D01*
G01X5809963Y7255882D01*
G01X5815405Y7235685D01*
G01X5824249Y7216730D01*
G01X5836231Y7199584D01*
G01X5850990Y7184762D01*
G01X5868085Y7172708D01*
G01X5868085Y7152102D01*
G01X5869253Y7140237D01*
G01X5872714Y7128829D01*
G01X5878334Y7118315D01*
G01X5885897Y7109100D01*
G01X6060586Y6934410D01*
G01X6060586Y6836141D01*
G01X6055854Y6843551D01*
G01X6050102Y6850202D01*
G01X5739713Y7160591D01*
G01X5739713Y7172708D01*
G01X5756893Y7184834D01*
G01X5771709Y7199755D01*
G01X5783715Y7217019D01*
G01X5792544Y7236104D01*
G01X5797931Y7256430D01*
G01X5799712Y7277382D01*
G01X5797834Y7298326D01*
G01X5792352Y7318627D01*
G01X5783433Y7337670D01*
G01X5771347Y7354878D01*
G01X5756460Y7369729D01*
G01X5739224Y7381775D01*
G01X5720161Y7390649D01*
G01X5699847Y7396084D01*
G01X5678899Y7397914D01*
G01X5657951Y7396084D01*
G01X5637637Y7390649D01*
G01X5618574Y7381775D01*
G01X5601338Y7369729D01*
G01X5586451Y7354878D01*
G01X5574365Y7337670D01*
G01X5565446Y7318627D01*
G01X5559964Y7298326D01*
G01X5558085Y7277382D01*
G01X5559867Y7256430D01*
G01X5565254Y7236104D01*
G01X5574083Y7217019D01*
G01X5586089Y7199755D01*
G01X5600905Y7184834D01*
G01X5618085Y7172708D01*
G01X5618085Y7135401D01*
G01X5619254Y7123537D01*
G01X5622714Y7112129D01*
G01X5628334Y7101615D01*
G01X5635897Y7092399D01*
G01X5946286Y6782010D01*
G01X5946286Y6670824D01*
G01X5930214Y6684045D01*
G01X5911973Y6694064D01*
G01X5892194Y6700536D01*
G01X5871559Y6703237D01*
G01X5850780Y6702074D01*
G01X5830575Y6697088D01*
G01X5811641Y6688450D01*
G01X5794632Y6676458D01*
G01X5780135Y6661528D01*
G01X5768650Y6644172D01*
G01X5760573Y6624992D01*
G01X5756184Y6604649D01*
G01X5755634Y6583845D01*
G01X5758942Y6563299D01*
G01X5765994Y6543719D01*
G01X5776546Y6525781D01*
G01X5790234Y6510105D01*
G01X5806586Y6497232D01*
G01X5806586Y6464090D01*
G01X5674214Y6331718D01*
G01X5674214Y6337300D01*
G01X5673045Y6349164D01*
G01X5669585Y6360572D01*
G01X5663965Y6371086D01*
G01X5656402Y6380302D01*
G01X5578214Y6458490D01*
G01X5578214Y6497232D01*
G01X5594350Y6509901D01*
G01X5607905Y6525300D01*
G01X5618424Y6542913D01*
G01X5625554Y6562150D01*
G01X5629057Y6582364D01*
G01X5628814Y6602878D01*
G01X5624834Y6623003D01*
G01X5617250Y6642065D01*
G01X5606317Y6659425D01*
G01X5592401Y6674499D01*
G01X5575969Y6686782D01*
G01X5557573Y6695862D01*
G01X5537829Y6701435D01*
G01X5517400Y6703314D01*
G01X5496971Y6701435D01*
G01X5477227Y6695862D01*
G01X5458831Y6686782D01*
G01X5442399Y6674499D01*
G01X5428483Y6659425D01*
G01X5417550Y6642065D01*
G01X5409966Y6623003D01*
G01X5405986Y6602878D01*
G01X5405743Y6582364D01*
G01X5409245Y6562150D01*
G01X5416376Y6542913D01*
G01X5426895Y6525300D01*
G01X5440450Y6509901D01*
G01X5456586Y6497232D01*
G01X5456586Y6433300D01*
G01X5457755Y6421436D01*
G01X5461215Y6410028D01*
G01X5466835Y6399514D01*
G01X5474398Y6390298D01*
G01X5552586Y6312110D01*
G01X5552586Y5562600D01*
G01X5553755Y5550736D01*
G01X5557215Y5539328D01*
G01X5562835Y5528814D01*
G01X5570398Y5519598D01*
G01X5646598Y5443398D01*
G01X5655814Y5435835D01*
G01X5666328Y5430215D01*
G01X5677736Y5426755D01*
G01X5689600Y5425586D01*
G01X5746586Y5425586D01*
G01X5746586Y5401400D01*
G01X5748339Y5390333D01*
G01X5753426Y5380349D01*
G01X5761349Y5372426D01*
G01X5771333Y5367339D01*
G01X5782400Y5365586D01*
G01X5816586Y5365586D01*
G01X5816586Y5342348D01*
G01X5743952Y5269714D01*
G01X5593615Y5269714D01*
G01X5593615Y5283912D01*
G01X5591862Y5294980D01*
G01X5586775Y5304963D01*
G01X5578852Y5312887D01*
G01X5568868Y5317974D01*
G01X5557801Y5319726D01*
G01X5543615Y5319726D01*
G01X5543615Y5340299D01*
G01X5541883Y5353451D01*
G01X5536807Y5365706D01*
G01X5528732Y5376230D01*
G01X5511814Y5393148D01*
G01X5511814Y5418364D01*
G01X5519297Y5426227D01*
G01X5524081Y5435971D01*
G01X5525726Y5446700D01*
G01X5525726Y5596788D01*
G01X5524557Y5608653D01*
G01X5521096Y5620061D01*
G01X5515477Y5630575D01*
G01X5507914Y5639790D01*
G01X5466676Y5681028D01*
G01X5481911Y5698581D01*
G01X5493929Y5718475D01*
G01X5502380Y5740127D01*
G01X5507015Y5762903D01*
G01X5507699Y5786135D01*
G01X5504412Y5809144D01*
G01X5497249Y5831255D01*
G01X5486421Y5851822D01*
G01X5472245Y5870241D01*
G01X5455136Y5885973D01*
G01X5435595Y5898557D01*
G01X5414195Y5907626D01*
G01X5391561Y5912912D01*
G01X5368358Y5914262D01*
G01X5345264Y5911636D01*
G01X5322957Y5905111D01*
G01X5302088Y5894878D01*
G01X5283270Y5881236D01*
G01X5267054Y5864585D01*
G01X5253914Y5845413D01*
G01X5253914Y5878500D01*
G01X5252161Y5889567D01*
G01X5247074Y5899551D01*
G01X5239151Y5907474D01*
G01X5229167Y5912561D01*
G01X5218100Y5914314D01*
G01X5018100Y5914314D01*
G01X5007033Y5912561D01*
G01X4997049Y5907474D01*
G01X4989126Y5899551D01*
G01X4984039Y5889567D01*
G01X4982286Y5878500D01*
G01X4982286Y5839314D01*
G01X4953000Y5839314D01*
G01X4941136Y5838145D01*
G01X4929728Y5834685D01*
G01X4919214Y5829065D01*
G01X4909998Y5821502D01*
G01X4711910Y5623414D01*
G01X4495800Y5623414D01*
G01X4484259Y5622309D01*
G01X4473137Y5619034D01*
G01X4843602Y5989498D01*
G01X4851165Y5998714D01*
G01X4856785Y6009228D01*
G01X4860245Y6020636D01*
G01X4861414Y6032500D01*
G01X4861414Y8077200D01*
G01X4860245Y8089064D01*
G01X4856785Y8100472D01*
G01X4851165Y8110986D01*
G01X4843602Y8120202D01*
G01X4259402Y8704402D01*
G01X4250186Y8711965D01*
G01X4239672Y8717585D01*
G01X4228264Y8721045D01*
G01X4216400Y8722214D01*
G01X4055979Y8722214D01*
G01X4056224Y8726396D01*
G01X4056224Y8786396D01*
G01X4054471Y8797463D01*
G01X4049384Y8807447D01*
G01X4041461Y8815370D01*
G01X4031477Y8820457D01*
G01X4020410Y8822210D01*
G01X4016224Y8822210D01*
G01X4016224Y8874290D01*
G01X4014330Y8888034D01*
G01X4018533Y8887786D01*
G01X4169157Y8887786D01*
G01X4180224Y8889539D01*
G01X4190208Y8894626D01*
G01X4198131Y8902549D01*
G01X4203218Y8912533D01*
G01X4204971Y8923600D01*
G01X4354829Y8923600D01*
G01X4356582Y8912533D01*
G01X4361669Y8902549D01*
G01X4369592Y8894626D01*
G01X4379576Y8889539D01*
G01X4390643Y8887786D01*
G01X4541267Y8887786D01*
G01X4552334Y8889539D01*
G01X4562318Y8894626D01*
G01X4570241Y8902549D01*
G01X4575328Y8912533D01*
G01X4577081Y8923600D01*
G01X4577081Y9161200D01*
G01X4575328Y9172267D01*
G01X4570241Y9182251D01*
G01X4562318Y9190174D01*
G01X4552334Y9195261D01*
G01X4541267Y9197014D01*
G01X4390643Y9197014D01*
G01X4379576Y9195261D01*
G01X4369592Y9190174D01*
G01X4361669Y9182251D01*
G01X4356582Y9172267D01*
G01X4354829Y9161200D01*
G01X4354829Y8923600D01*
G01X4354829Y8923600D01*
G01X4204971Y8923600D01*
G01X4204971Y9161200D01*
G01X4203218Y9172267D01*
G01X4198131Y9182251D01*
G01X4190208Y9190174D01*
G01X4180224Y9195261D01*
G01X4169157Y9197014D01*
G01X4018533Y9197014D01*
G01X4007466Y9195261D01*
G01X3997482Y9190174D01*
G01X3989559Y9182251D01*
G01X3984472Y9172267D01*
G01X3982719Y9161200D01*
G01X3982719Y9128214D01*
G01X3860800Y9128214D01*
G01X3842961Y9126339D01*
G01X3825902Y9120798D01*
G01X3810367Y9111830D01*
G01X3797036Y9099830D01*
G01X3786491Y9085320D01*
G01X3779192Y9068935D01*
G01X3775458Y9051391D01*
G01X3775454Y9033454D01*
G01X3779178Y9015908D01*
G01X3786468Y8999519D01*
G01X3797005Y8985004D01*
G01X3810330Y8972997D01*
G01X3812885Y8961982D01*
G01X3817813Y8951805D01*
G01X3824869Y8942969D01*
G01X3914596Y8853242D01*
G01X3914596Y8822210D01*
G01X3910410Y8822210D01*
G01X3899343Y8820457D01*
G01X3889359Y8815370D01*
G01X3881436Y8807447D01*
G01X3876349Y8797463D01*
G01X3874596Y8786396D01*
G01X3874596Y8726396D01*
G01X3875756Y8717354D01*
G01X3879162Y8708898D01*
G01X3875756Y8700442D01*
G01X3874596Y8691400D01*
G01X3874596Y8631400D01*
G01X3875756Y8622358D01*
G01X3879162Y8613902D01*
G01X3875756Y8605446D01*
G01X3874596Y8596404D01*
G01X3874596Y8536404D01*
G01X3876006Y8526453D01*
G01X3880125Y8517286D01*
G01X3886630Y8509625D01*
G01X3895006Y8504072D01*
G01X3904596Y8501065D01*
G01X3904596Y8442814D01*
G01X3901513Y8442814D01*
G01X3889712Y8444814D01*
G01X3839712Y8444814D01*
G01X3830939Y8443723D01*
G01X3822700Y8440516D01*
G01X3814461Y8443723D01*
G01X3805688Y8444814D01*
G01X3755688Y8444814D01*
G01X3744621Y8443061D01*
G01X3734638Y8437974D01*
G01X3726714Y8430051D01*
G01X3721627Y8420067D01*
G01X3719874Y8409000D01*
G01X3719874Y8355000D01*
G01X3721627Y8343933D01*
G01X3726714Y8333949D01*
G01X3734638Y8326026D01*
G01X3744621Y8320939D01*
G01X3755688Y8319186D01*
G01X3805688Y8319186D01*
G01X3814461Y8320277D01*
G01X3822700Y8323484D01*
G01X3830939Y8320277D01*
G01X3839712Y8319186D01*
G01X3889712Y8319186D01*
G01X3901513Y8321186D01*
G01X3937000Y8321186D01*
G01X3948864Y8322355D01*
G01X3960272Y8325815D01*
G01X3970786Y8331435D01*
G01X3980002Y8338998D01*
G01X3990600Y8349596D01*
G01X4044242Y8349596D01*
G01X4053565Y8336812D01*
G01X4065651Y8326601D01*
G01X4079812Y8319544D01*
G01X4095242Y8316042D01*
G01X4111062Y8316294D01*
G01X4126372Y8320287D01*
G01X4140300Y8327794D01*
G01X4152053Y8338386D01*
G01X4160963Y8351461D01*
G01X4166522Y8366274D01*
G01X4168414Y8381983D01*
G01X4166531Y8397692D01*
G01X4160979Y8412508D01*
G01X4152076Y8425588D01*
G01X4140328Y8436186D01*
G01X4126404Y8443700D01*
G01X4116692Y8453412D01*
G01X4107477Y8460975D01*
G01X4096963Y8466595D01*
G01X4085554Y8470055D01*
G01X4073690Y8471224D01*
G01X4026224Y8471224D01*
G01X4026224Y8501065D01*
G01X4035814Y8504072D01*
G01X4044190Y8509625D01*
G01X4050694Y8517286D01*
G01X4054814Y8526453D01*
G01X4056224Y8536404D01*
G01X4056224Y8596404D01*
G01X4055979Y8600586D01*
G01X4191210Y8600586D01*
G01X4739786Y8052010D01*
G01X4739786Y6057690D01*
G01X4704634Y6022537D01*
G01X4707909Y6033659D01*
G01X4709014Y6045200D01*
G01X4709014Y7721600D01*
G01X4707845Y7733464D01*
G01X4704385Y7744872D01*
G01X4698765Y7755386D01*
G01X4691202Y7764602D01*
G01X4246702Y8209102D01*
G37*
G54D10*
G01X122217Y4794437D02*
G03X35814Y4776842I-33317J-57337D01*
G01X35814Y9700000D01*
G02X45952Y9772483I264186J0D01*
G01X116552Y9843083D01*
G03X410790Y9622210I162848J-89483D01*
G03X189917Y9916448I-131390J131390D01*
G01X227517Y9954048D01*
G02X249630Y9959340I72483J-254048D01*
G01X7717392Y9959340D01*
G01X7778026Y9898705D01*
G03X7615610Y9584110I-31026J-183205D01*
G03X7930205Y9746526I131390J131390D01*
G01X7952740Y9723992D01*
G01X7952740Y270908D01*
G01X7871748Y189917D01*
G03X7577510Y410790I-162848J89483D01*
G03X7798383Y116552I131390J-131390D01*
G01X7718279Y36447D01*
G02X7700000Y35814I-18278J263553D01*
G01X300000Y35814D01*
G02X253901Y39867I0J264186D01*
G01X237553Y56215D01*
G03X385390Y372690I16447J185085D01*
G03X68915Y224853I-131390J-131390D01*
G01X39867Y253901D01*
G02X35814Y300000I260133J46099D01*
G01X35814Y4555032D01*
G03X45898Y4541698I53086J29668D01*
G01X193186Y4394410D01*
G01X193186Y4357104D01*
G03X126969Y4335189I-15386J-64504D01*
G03X116986Y4266157I50831J-42589D01*
G01X116986Y3175000D01*
G03X134798Y3131998I60814J0D01*
G01X388798Y2877998D01*
G03X431800Y2860186I43002J43002D01*
G01X1613110Y2860186D01*
G01X1793386Y2679910D01*
G01X1793386Y1393962D01*
G03X1854200Y1179586I60814J-98562D01*
G03X1915014Y1393962I0J115814D01*
G01X1915014Y2705100D01*
G03X1897202Y2748102I-60814J0D01*
G01X1683518Y2961786D01*
G01X1930610Y2961786D01*
G01X3317386Y1575010D01*
G01X3317386Y1393962D01*
G03X3378200Y1179586I60814J-98562D01*
G03X3439014Y1393962I0J115814D01*
G01X3439014Y1600200D01*
G03X3421202Y1643202I-60814J0D01*
G01X2013718Y3050686D01*
G01X2032210Y3050686D01*
G01X3571386Y1511510D01*
G01X3571386Y1393962D01*
G03X3632200Y1179586I60814J-98562D01*
G03X3693014Y1393962I0J115814D01*
G01X3693014Y1536700D01*
G03X3675202Y1579702I-60814J0D01*
G01X2100402Y3154502D01*
G03X2057400Y3172314I-43002J-43002D01*
G01X1301076Y3172314D01*
G01X1382131Y3253369D01*
G03X1397014Y3289300I-35931J35931D01*
G01X1397014Y3477329D01*
G03X1346200Y3697214I-50814J104071D01*
G03X1295386Y3477329I0J-115814D01*
G01X1295386Y3310348D01*
G01X1223552Y3238514D01*
G01X732248Y3238514D01*
G01X660485Y3310277D01*
G03X617368Y3418658I-50885J42523D01*
G03X550218Y3323282I-7768J-65858D01*
G03X460103Y3290836I-29518J-59382D01*
G03X496396Y3202200I60597J-26936D01*
G01X615182Y3083414D01*
G01X469690Y3083414D01*
G01X314814Y3238290D01*
G01X314814Y4419600D01*
G03X297002Y4462602I-60814J0D01*
G01X149714Y4609890D01*
G01X149714Y4710657D01*
G03X122217Y4794437I-60814J26443D01*
G01X1496040Y8655598D02*
G03X1608991Y8614509I66060J5802D01*
G03X1567902Y8727460I-46891J46891D01*
G01X1328080Y8967282D01*
G03X313274Y9307102I-516213J143600D01*
G03X1287491Y8864147I498592J-196220D01*
G01X1496040Y8655598D01*
G01X348832Y3922271D02*
G03X620460Y3922271I135814J0D01*
G03X348832Y3922271I-135814J0D01*
G01X469900Y4362286D02*
G03X469900Y4603914I0J120814D01*
G03X469900Y4362286I0J-120814D01*
G01X384086Y6092141D02*
G03X469900Y5886286I85814J-85041D01*
G03X555714Y6092141I0J120814D01*
G01X555714Y6176059D01*
G03X555714Y6346141I-85814J85041D01*
G01X555714Y6430059D01*
G03X555714Y6600141I-85814J85041D01*
G01X555714Y6684059D01*
G03X469900Y6889914I-85814J85041D01*
G03X384086Y6684059I0J-120814D01*
G01X384086Y6600141D01*
G03X384086Y6430059I85814J-85041D01*
G01X384086Y6346141D01*
G03X384086Y6176059I85814J-85041D01*
G01X384086Y6092141D01*
G01X469900Y4616286D02*
G03X469900Y4857914I0J120814D01*
G03X469900Y4616286I0J-120814D01*
G01X384086Y5414059D02*
G01X384086Y5330141D01*
G03X469900Y5124286I85814J-85041D01*
G03X555714Y5330141I0J120814D01*
G01X555714Y5414059D01*
G03X555714Y5584141I-85814J85041D01*
G01X555714Y5668059D01*
G03X469900Y5873914I-85814J85041D01*
G03X384086Y5668059I0J-120814D01*
G01X384086Y5584141D01*
G03X384086Y5414059I85814J-85041D01*
G01X469900Y4870286D02*
G03X469900Y5111914I0J120814D01*
G03X469900Y4870286I0J-120814D01*
G01X1843676Y669339D02*
G03X1780046Y925139I-63630J119986D01*
G03X1716416Y669339I0J-135814D01*
G01X1516618Y669339D01*
G03X448453Y608525I-532352J-60814D01*
G03X1516618Y547711I535814J0D01*
G01X4786825Y547711D01*
G03X4829827Y565523I0J60814D01*
G01X5199202Y934898D01*
G03X5217014Y977900I-43002J43002D01*
G01X5217014Y1196838D01*
G03X5156200Y1411214I-60814J98562D01*
G03X5095386Y1196838I0J-115814D01*
G01X5095386Y1003090D01*
G01X4761635Y669339D01*
G01X1843676Y669339D01*
G01X932682Y5051914D02*
G01X828292Y5051914D01*
G03X603086Y4991100I-104392J-60814D01*
G03X828292Y4930286I120814J0D01*
G01X927310Y4930286D01*
G01X1059682Y4797914D01*
G01X828292Y4797914D01*
G03X603086Y4737100I-104392J-60814D01*
G03X828292Y4676286I120814J0D01*
G01X1079710Y4676286D01*
G01X1216463Y4539534D01*
G03X1193800Y4543914I-22663J-56434D01*
G01X844714Y4543914D01*
G01X844714Y4568100D01*
G03X808900Y4603914I-35814J0D01*
G01X638900Y4603914D01*
G03X603086Y4568100I0J-35814D01*
G01X603086Y4398100D01*
G03X638900Y4362286I35814J0D01*
G01X808900Y4362286D01*
G03X844714Y4398100I0J35814D01*
G01X844714Y4422286D01*
G01X1168610Y4422286D01*
G01X1208300Y4382596D01*
G03X1289389Y4343484I61700J24304D01*
G03X1334742Y4421254I-19389J63416D01*
G01X1887398Y3868598D01*
G03X1930400Y3850786I43002J43002D01*
G01X2337010Y3850786D01*
G01X2529552Y3658244D01*
G03X2529652Y3504443I86648J-76844D01*
G03X2682386Y3486362I86548J76957D01*
G01X2682386Y3479800D01*
G03X2700198Y3436798I60814J0D01*
G01X2776398Y3360598D01*
G03X2819400Y3342786I43002J43002D01*
G01X3327400Y3342786D01*
G03X3370402Y3360598I0J60814D01*
G01X3421202Y3411398D01*
G03X3439014Y3454400I-43002J43002D01*
G01X3439014Y3482838D01*
G03X3479613Y3637330I-60814J98562D01*
G01X3530787Y3637330D01*
G03X3672026Y3472649I101413J-55930D01*
G03X3673507Y3689597I-39826J108751D01*
G01X3664718Y3698386D01*
G01X3734010Y3698386D01*
G01X3788619Y3643777D01*
G03X3931237Y3474702I97581J-62377D01*
G03X3909573Y3694831I-45037J106698D01*
G01X3802202Y3802202D01*
G03X3759200Y3820014I-43002J-43002D01*
G01X3488525Y3820014D01*
G01X3456337Y3852202D01*
G03X3413335Y3870014I-43002J-43002D01*
G01X2832690Y3870014D01*
G01X2714076Y3988628D01*
G03X2755924Y4070335I-21676J62672D01*
G03X2676040Y4115564I-63524J-19035D01*
G01X2532202Y4259402D01*
G03X2489200Y4277214I-43002J-43002D01*
G01X2146090Y4277214D01*
G01X987914Y5435390D01*
G01X987914Y5549900D01*
G03X970102Y5592902I-60814J0D01*
G01X840718Y5722286D01*
G03X638472Y5838528I-116818J30814D01*
G03X754714Y5636282I85428J-85428D01*
G01X792331Y5598665D01*
G03X604871Y5519793I-68431J-99565D01*
G03X754714Y5382282I119029J-20693D01*
G01X792331Y5344665D01*
G03X604224Y5228561I-68431J-99565D01*
G03X816770Y5167826I119676J16539D01*
G01X932682Y5051914D01*
G01X901686Y5947952D02*
G01X901686Y5935409D01*
G03X952500Y5826486I50814J-42609D01*
G03X1003314Y5935409I0J66314D01*
G01X1003314Y5969000D01*
G03X988431Y6004931I-50814J0D01*
G01X950331Y6043031D01*
G03X914400Y6057914I-35931J-35931D01*
G01X833508Y6057914D01*
G03X603086Y6007100I-109608J-50814D01*
G03X833508Y5956286I120814J0D01*
G01X893352Y5956286D01*
G01X901686Y5947952D01*
G01X723900Y6140286D02*
G03X723900Y6381914I0J120814D01*
G03X723900Y6140286I0J-120814D01*
G01X723900Y6394286D02*
G03X723900Y6635914I0J120814D01*
G03X723900Y6394286I0J-120814D01*
G01X723900Y6648286D02*
G03X723900Y6889914I0J120814D01*
G03X723900Y6648286I0J-120814D01*
G01X956386Y3581400D02*
G03X1228014Y3581400I135814J0D01*
G01X1228014Y3924300D01*
G01X1228014Y3924563D01*
G01X1228014Y4024300D01*
G03X1192200Y4060114I-35814J0D01*
G01X1092463Y4060114D01*
G01X1091937Y4060114D01*
G01X992200Y4060114D01*
G03X956386Y4024300I0J-35814D01*
G01X956386Y3991213D01*
G03X702386Y3924300I-118186J-66913D01*
G03X956386Y3857387I135814J0D01*
G01X956386Y3581400D01*
G01X954014Y1295400D02*
G03X722386Y1295400I-115814J0D01*
G03X954014Y1295400I115814J0D01*
G01X954014Y3581400D02*
G03X722386Y3581400I-115814J0D01*
G03X954014Y3581400I115814J0D01*
G01X1208014Y1295400D02*
G03X976386Y1295400I-115814J0D01*
G03X1208014Y1295400I115814J0D01*
G01X1787799Y5000832D02*
G03X1787799Y4950183I25324J-25324D01*
G01X1825983Y4911999D01*
G03X1876632Y4911999I25324J25324D01*
G01X1911987Y4947355D01*
G03X1920977Y4962423I-25324J25324D01*
G03X1936045Y4971413I-10256J34314D01*
G01X1971401Y5006768D01*
G03X1971401Y5057417I-25324J25324D01*
G01X1893115Y5135702D01*
G03X1850113Y5153514I-43002J-43002D01*
G01X1791743Y5153514D01*
G03X1769419Y5158886I-26443J-60814D01*
G01X1789975Y5158886D01*
G03X1832977Y5176698I0J60814D01*
G01X1859978Y5203698D01*
G01X1860398Y5203698D01*
G01X2036494Y5027602D01*
G01X1995593Y4986700D01*
G03X1988927Y4945273I25324J-25324D01*
G03X1947500Y4938607I-16103J-31989D01*
G01X1889518Y4880626D01*
G03X1889518Y4829977I25324J-25324D01*
G01X1992889Y4726606D01*
G03X2010426Y4646819I71150J-26182D01*
G01X2208433Y4448841D01*
G03X2288201Y4431294I53607J53610D01*
G01X2391577Y4327918D01*
G03X2425266Y4318419I25324J25324D01*
G03X2459325Y4307986I34059J50381D01*
G01X2540000Y4307986D01*
G03X2583002Y4325798I0J60814D01*
G01X2691158Y4433954D01*
G03X2690309Y4409834I64742J-14354D01*
G03X2672711Y4391249I15490J-32291D01*
G01X2653577Y4345055D01*
G03X2651038Y4327693I33088J-13705D01*
G03X2640557Y4313621I22607J-27777D01*
G01X2621423Y4267427D01*
G03X2640805Y4220634I33088J-13705D01*
G01X2690695Y4199969D01*
G03X2737489Y4219351I13705J33088D01*
G01X2756623Y4265545D01*
G03X2759162Y4282907I-33088J13705D01*
G03X2769643Y4296979I-22607J27777D01*
G01X2776429Y4313361D01*
G01X2798902Y4335835D01*
G03X2816714Y4378837I-43002J43002D01*
G01X2816714Y4393157D01*
G03X2811397Y4455899I-60814J26443D01*
G01X2849979Y4417317D01*
G03X2845620Y4409637I28728J-21385D01*
G01X2814240Y4333880D01*
G03X2823936Y4293055I33088J-13705D01*
G03X2788212Y4271043I-2636J-35717D01*
G01X2756833Y4195286D01*
G03X2776215Y4148493I33088J-13705D01*
G01X2911276Y4092549D01*
G03X2958012Y4025547I75753J3039D01*
G01X3216709Y3918413D01*
G03X3297120Y3932727I29011J70044D01*
G01X3432187Y3876781D01*
G03X3478980Y3896163I13705J33088D01*
G01X3487046Y3915634D01*
G01X3544937Y3915634D01*
G03X3587939Y3933446I0J60814D01*
G01X3637102Y3982610D01*
G03X3654914Y4025612I-43002J43002D01*
G01X3654914Y4037498D01*
G03X3658472Y4033057I53486J39202D01*
G03X3658286Y4029412I35628J-3645D01*
G01X3658286Y3979412D01*
G03X3662584Y3962400I35814J0D01*
G03X3658286Y3945388I31516J-17012D01*
G01X3658286Y3895388D01*
G03X3694100Y3859574I35814J0D01*
G01X3748100Y3859574D01*
G03X3783914Y3895388I0J35814D01*
G01X3783914Y3945388D01*
G03X3779616Y3962400I-35814J0D01*
G03X3783914Y3979412I-31516J17012D01*
G01X3783914Y4029412D01*
G03X3781914Y4041213I-35814J0D01*
G01X3781914Y4064000D01*
G03X3775040Y4092086I-60814J0D01*
G01X3800177Y4092086D01*
G01X3800177Y4021807D01*
G03X3824758Y3987800I35814J0D01*
G03X3800177Y3953793I11233J-34007D01*
G01X3800177Y3871794D01*
G03X3835991Y3835980I35814J0D01*
G01X3982179Y3835980D01*
G03X4050998Y3791963I68824J31797D01*
G01X4331001Y3791984D01*
G03X4399814Y3835980I-2J75814D01*
G01X4546009Y3835980D01*
G03X4575882Y3852039I0J35814D01*
G03X4616196Y3869792I-2688J60754D01*
G01X4649028Y3902624D01*
G03X4717763Y3858264I62672J21676D01*
G03X4777271Y3914400I-6063J66036D01*
G03X4815005Y3907869I24028J26557D01*
G01X4864895Y3928534D01*
G03X4884277Y3975327I-13705J33088D01*
G01X4865143Y4021521D01*
G03X4854662Y4035593I-33088J-13705D01*
G03X4852123Y4052955I-35627J3656D01*
G01X4832989Y4099149D01*
G03X4786195Y4118531I-33088J-13705D01*
G01X4736305Y4097866D01*
G03X4714326Y4067821I13705J-33088D01*
G01X4696314Y4049809D01*
G01X4696314Y4127710D01*
G01X4749590Y4180986D01*
G01X4816605Y4180986D01*
G01X4845612Y4110957D01*
G03X4881336Y4088945I33088J13705D01*
G03X4871640Y4048120I23392J-27119D01*
G01X4903020Y3972363D01*
G03X4949813Y3952981I33088J13705D01*
G01X5084874Y4008925D01*
G03X5165298Y3994594I51417J55714D01*
G01X5423980Y4101766D01*
G03X5470718Y4168747I-29014J70042D01*
G01X5567365Y4208779D01*
G03X5578277Y4213299I-17707J58179D01*
G01X5605785Y4224693D01*
G03X5627867Y4259163I-13705J33088D01*
G01X5643702Y4274998D01*
G03X5661514Y4318000I-43002J43002D01*
G01X5661514Y4526782D01*
G01X5679769Y4508527D01*
G03X5686699Y4498768I32255J15565D01*
G01X5722055Y4463413D01*
G03X5737123Y4454423I25324J25324D01*
G03X5746113Y4439355I34314J10256D01*
G01X5781468Y4403999D01*
G03X5832117Y4403999I25324J25324D01*
G01X5870301Y4442183D01*
G03X5870301Y4492832I-25324J25324D01*
G01X5834945Y4528187D01*
G03X5819877Y4537177I-25324J-25324D01*
G03X5810887Y4552245I-34314J-10256D01*
G01X5775532Y4587601D01*
G03X5768473Y4593082I-25324J-25324D01*
G03X5765936Y4616057I-66173J4318D01*
G01X5795600Y4586393D01*
G03X5837027Y4579727I25324J25324D01*
G03X5843693Y4538300I31989J-16103D01*
G01X5901674Y4480318D01*
G03X5952323Y4480318I25324J25324D01*
G01X6055694Y4583689D01*
G03X6135481Y4601226I26182J71150D01*
G01X6333459Y4799233D01*
G03X6351006Y4879001I-53610J53607D01*
G01X6454382Y4982377D01*
G03X6464164Y5014786I-25324J25324D01*
G01X6481902Y5032523D01*
G03X6499714Y5075525I-43002J43002D01*
G01X6499714Y5130800D01*
G03X6495270Y5153620I-60814J0D01*
G03X6552539Y5240884I-5570J66080D01*
G01X6591073Y5224923D01*
G03X6637866Y5244305I13705J33088D01*
G01X6658531Y5294195D01*
G03X6639149Y5340989I-33088J13705D01*
G01X6592955Y5360123D01*
G03X6575593Y5362662I-13705J-33088D01*
G03X6561521Y5373143I-27777J-22607D01*
G01X6515327Y5392277D01*
G03X6468534Y5372895I-13705J-33088D01*
G01X6462831Y5359125D01*
G01X6446698Y5342993D01*
G03X6428886Y5299991I43002J-43002D01*
G01X6428886Y5246143D01*
G03X6424408Y5231296I60814J-26443D01*
G01X6398114Y5257590D01*
G01X6398114Y5410410D01*
G01X6434708Y5447004D01*
G03X6448863Y5436420I27861J22504D01*
G01X6524620Y5405040D01*
G03X6565445Y5414736I13705J33088D01*
G03X6587457Y5379012I35717J-2636D01*
G01X6663214Y5347633D01*
G03X6710007Y5367015I13705J33088D01*
G01X6765951Y5502076D01*
G03X6832953Y5548812I-3039J75753D01*
G01X6940087Y5807509D01*
G03X6925773Y5887920I-70044J29011D01*
G01X6981719Y6022987D01*
G03X6969614Y6065716I-33088J13705D01*
G01X6969614Y6083300D01*
G03X6951802Y6126302I-60814J0D01*
G01X6946818Y6131286D01*
G03X7012043Y6185191I82J66314D01*
G03X6971204Y6259300I-65143J12409D01*
G01X6956018Y6274486D01*
G01X6988512Y6274486D01*
G03X7024326Y6310300I0J35814D01*
G01X7024326Y6364300D01*
G03X6988512Y6400114I-35814J0D01*
G01X6938512Y6400114D01*
G03X6921500Y6395816I0J-35814D01*
G03X6904488Y6400114I-17012J-31516D01*
G01X6854488Y6400114D01*
G03X6818674Y6364300I0J-35814D01*
G01X6818674Y6265012D01*
G03X6818958Y6259146I60814J0D01*
G01X6741014Y6337090D01*
G01X6741014Y6413710D01*
G01X6758061Y6430758D01*
G03X6792794Y6403677I34733J8733D01*
G01X6874793Y6403677D01*
G03X6908800Y6428258I0J35814D01*
G03X6942807Y6403677I34007J11233D01*
G01X7024806Y6403677D01*
G03X7060620Y6439491I0J35814D01*
G01X7060620Y6585679D01*
G03X7104637Y6654498I-31797J68824D01*
G01X7104616Y6934501D01*
G03X7060620Y7003314I-75814J-2D01*
G01X7060620Y7149509D01*
G03X7044561Y7179382I-35814J0D01*
G03X7026808Y7219696I-60754J-2688D01*
G01X6977202Y7269302D01*
G03X6934200Y7287114I-43002J-43002D01*
G01X6806990Y7287114D01*
G01X6781718Y7312386D01*
G03X6808243Y7317886I82J66314D01*
G01X6835263Y7317886D01*
G03X6878265Y7335698I0J60814D01*
G01X6900739Y7358171D01*
G01X6917121Y7364957D01*
G03X6931193Y7375438I-13705J33088D01*
G03X6948555Y7377977I3656J35627D01*
G01X6994749Y7397111D01*
G03X7014131Y7443905I-13705J33088D01*
G01X6993466Y7493795D01*
G03X6946673Y7513177I-33088J-13705D01*
G01X6900479Y7494043D01*
G03X6886407Y7483562I13705J-33088D01*
G03X6869045Y7481023I-3656J-35627D01*
G01X6822851Y7461889D01*
G03X6803073Y7441509I13705J-33088D01*
G03X6728314Y7417902I-21273J-62809D01*
G01X6728314Y7440907D01*
G03X6747986Y7443133I5967J35313D01*
G01X6823743Y7474512D01*
G03X6845755Y7510236I-13705J33088D01*
G03X6886580Y7500540I27119J23392D01*
G01X6962337Y7531920D01*
G03X6981719Y7578713I-13705J33088D01*
G01X6925775Y7713774D01*
G03X6940106Y7794198I-55714J51417D01*
G01X6832934Y8052880D01*
G03X6765953Y8099618I-70042J-29014D01*
G01X6710007Y8234685D01*
G03X6663214Y8254067I-33088J-13705D01*
G01X6643742Y8246002D01*
G01X6624409Y8265336D01*
G03X6680728Y8348461I-7709J65864D01*
G03X6590257Y8392014I-64028J-17261D01*
G01X6550447Y8392014D01*
G01X6556101Y8397668D01*
G03X6556101Y8448317I-25324J25324D01*
G01X6517917Y8486501D01*
G03X6496755Y8496748I-25324J-25324D01*
G01X6505182Y8505174D01*
G03X6505182Y8555823I-25324J25324D01*
G01X6401811Y8659194D01*
G03X6384274Y8738981I-71150J26182D01*
G01X6186267Y8936959D01*
G03X6106499Y8954506I-53607J-53610D01*
G01X6003123Y9057882D01*
G03X5969434Y9067381I-25324J-25324D01*
G03X5935375Y9077814I-34059J-50381D01*
G01X5887218Y9077814D01*
G01X5904404Y9095000D01*
G03X5926991Y9203591I-24304J61700D01*
G03X5818400Y9181004I-46891J-46891D01*
G01X5784116Y9146720D01*
G01X5798677Y9181873D01*
G03X5779295Y9228666I-33088J13705D01*
G01X5729405Y9249331D01*
G03X5682611Y9229949I-13705J-33088D01*
G01X5663477Y9183755D01*
G03X5660938Y9166393I33088J-13705D01*
G03X5650457Y9152321I22607J-27777D01*
G01X5636318Y9118186D01*
G01X5617132Y9137372D01*
G01X5618560Y9140820D01*
G03X5608864Y9181645I-33088J13705D01*
G03X5644588Y9203657I2636J35717D01*
G01X5675967Y9279414D01*
G03X5656585Y9326207I-33088J13705D01*
G01X5521524Y9382151D01*
G03X5474788Y9449153I-75753J-3039D01*
G01X5216091Y9556287D01*
G03X5135680Y9541973I-29011J-70044D01*
G01X5045394Y9579370D01*
G01X5018662Y9606102D01*
G03X4975660Y9623914I-43002J-43002D01*
G01X4838700Y9623914D01*
G03X4795698Y9606102I0J-60814D01*
G01X4763742Y9574146D01*
G03X4727846Y9648211I-64742J14354D01*
G03X4647514Y9630294I-28846J-59711D01*
G01X4647514Y9655512D01*
G03X4611700Y9691326I-35814J0D01*
G01X4557700Y9691326D01*
G03X4521886Y9655512I0J-35814D01*
G01X4521886Y9605512D01*
G03X4526184Y9588500I35814J0D01*
G03X4521886Y9571488I31516J-17012D01*
G01X4521886Y9535014D01*
G01X4520990Y9535014D01*
G01X4512208Y9543796D01*
G03X4474389Y9561387I-43002J-43002D01*
G03X4455642Y9575800I-29979J-19593D01*
G03X4480223Y9609807I-11233J34007D01*
G01X4480223Y9691806D01*
G03X4444409Y9727620I-35814J0D01*
G01X4298221Y9727620D01*
G03X4229402Y9771637I-68824J-31797D01*
G01X3949399Y9771616D01*
G03X3880586Y9727620I2J-75814D01*
G01X3734391Y9727620D01*
G03X3704557Y9711620I0J-35814D01*
G01X3694506Y9711620D01*
G03X3651504Y9693808I0J-60814D01*
G01X3614598Y9656902D01*
G03X3596786Y9613900I43002J-43002D01*
G01X3596786Y9410490D01*
G01X3462198Y9275902D01*
G03X3444386Y9232900I43002J-43002D01*
G01X3444386Y8917896D01*
G01X3161899Y8917896D01*
G01X3370402Y9126398D01*
G03X3388214Y9169400I-43002J43002D01*
G01X3388214Y9354957D01*
G03X3388140Y9357952I-60814J0D01*
G03X3402667Y9402286I-18561J30629D01*
G01X3384186Y9446904D01*
G03X3394280Y9445034I11504J33916D01*
G01X3414444Y9424870D01*
G03X3507226Y9375723I65356J11230D01*
G03X3531256Y9477931I-27426J60377D01*
G03X3522802Y9488520I-51456J-32413D01*
G01X3466320Y9545002D01*
G01X3459534Y9561385D01*
G03X3449053Y9575457I-33088J-13705D01*
G03X3446514Y9592818I-35627J3656D01*
G01X3427379Y9639012D01*
G03X3380586Y9658394I-33088J-13705D01*
G01X3330696Y9637729D01*
G03X3312155Y9620224I13705J-33088D01*
G03X3267087Y9636019I-31363J-17292D01*
G01X3132026Y9580075D01*
G03X3051602Y9594406I-51417J-55714D01*
G01X2792920Y9487234D01*
G03X2746182Y9420253I29014J-70042D01*
G01X2611115Y9364307D01*
G03X2591733Y9317514I13705J-33088D01*
G01X2599798Y9298042D01*
G01X2585898Y9284142D01*
G03X2568086Y9241140I43002J-43002D01*
G01X2568086Y9131300D01*
G03X2585898Y9088298I60814J0D01*
G01X2669686Y9004510D01*
G01X2669686Y8978690D01*
G01X2633597Y8942601D01*
G03X2635107Y9012778I-55497J36299D01*
G03X2621102Y9034602I-57007J-21178D01*
G01X2562531Y9093173D01*
G03X2555601Y9102932I-32255J-15565D01*
G01X2520245Y9138287D01*
G03X2505177Y9147277I-25324J-25324D01*
G03X2496187Y9162345I-34314J-10256D01*
G01X2460832Y9197701D01*
G03X2410183Y9197701I-25324J-25324D01*
G01X2371999Y9159517D01*
G03X2362822Y9124586I25324J-25324D01*
G01X2340626Y9146782D01*
G03X2289977Y9146782I-25324J-25324D01*
G01X2186606Y9043411D01*
G03X2106819Y9025874I-26182J-71150D01*
G01X1908841Y8827867D01*
G03X1891294Y8748099I53610J-53607D01*
G01X1787918Y8644723D01*
G03X1778136Y8612314I25324J-25324D01*
G01X1773098Y8607277D01*
G03X1755286Y8564275I43002J-43002D01*
G01X1755286Y8496300D01*
G03X1773098Y8453298I60814J0D01*
G01X1920386Y8306010D01*
G01X1920386Y8246419D01*
G03X1860002Y8308360I-66186J-4119D01*
G01X1817308Y8351054D01*
G03X1812853Y8355014I-35931J-35931D01*
G03X1800449Y8363589I-26110J-24514D01*
G01X1754255Y8382723D01*
G03X1736893Y8385262I-13705J-33088D01*
G03X1722821Y8395743I-27777J-22607D01*
G01X1676627Y8414877D01*
G03X1629834Y8395495I-13705J-33088D01*
G01X1609169Y8345605D01*
G03X1628551Y8298811I33088J-13705D01*
G01X1674745Y8279677D01*
G03X1692107Y8277138I13705J33088D01*
G03X1706179Y8266657I27777J22607D01*
G01X1752373Y8247523D01*
G03X1777851Y8246787I13705J33088D01*
G01X1788140Y8236498D01*
G03X1793258Y8216155I66060J5802D01*
G01X1717680Y8247460D01*
G03X1676855Y8237764I-13705J-33088D01*
G03X1654843Y8273488I-35717J2636D01*
G01X1579086Y8304867D01*
G03X1532293Y8285485I-13705J-33088D01*
G01X1476349Y8150424D01*
G03X1409347Y8103688I3039J-75753D01*
G01X1302213Y7844991D01*
G03X1316527Y7764580I70044J-29011D01*
G01X1260581Y7629513D01*
G03X1272686Y7586784I33088J-13705D01*
G01X1272686Y7496175D01*
G03X1290498Y7453173I60814J0D01*
G01X1431157Y7312514D01*
G01X1374213Y7312514D01*
G03X1362412Y7314514I-11801J-33814D01*
G01X1312412Y7314514D01*
G03X1295400Y7310216I0J-35814D01*
G03X1278388Y7314514I-17012J-31516D01*
G01X1228388Y7314514D01*
G03X1192574Y7278700I0J-35814D01*
G01X1192574Y7224700D01*
G03X1228388Y7188886I35814J0D01*
G01X1278388Y7188886D01*
G03X1295400Y7193184I0J35814D01*
G03X1312412Y7188886I17012J31516D01*
G01X1362412Y7188886D01*
G03X1374213Y7190886I0J35814D01*
G01X1404434Y7190886D01*
G03X1408361Y7185323I56066J35414D01*
G01X1342107Y7185323D01*
G03X1308100Y7160742I0J-35814D01*
G03X1274093Y7185323I-34007J-11233D01*
G01X1192094Y7185323D01*
G03X1156280Y7149509I0J-35814D01*
G01X1156280Y7003321D01*
G03X1112263Y6934502I31797J-68824D01*
G01X1112284Y6654499D01*
G03X1156280Y6585686I75814J2D01*
G01X1156280Y6439491D01*
G03X1171164Y6410429I35814J0D01*
G03X1188898Y6370498I60736J3071D01*
G01X1277798Y6281598D01*
G03X1320800Y6263786I43002J43002D01*
G01X1524210Y6263786D01*
G01X1615586Y6172410D01*
G01X1615586Y5981490D01*
G01X1587693Y5953597D01*
G01X1579207Y5974085D01*
G03X1532414Y5993467I-33088J-13705D01*
G01X1468138Y5966843D01*
G01X1468779Y5967475D01*
G01X1535604Y6034300D01*
G03X1558191Y6142891I-24304J61700D01*
G03X1449600Y6120304I-46891J-46891D01*
G01X1405888Y6076592D01*
G01X1363279Y6058943D01*
G03X1349207Y6048462I13705J-33088D01*
G03X1331845Y6045923I-3656J-35627D01*
G01X1285651Y6026789D01*
G03X1266269Y5979995I13705J-33088D01*
G01X1286934Y5930105D01*
G03X1328567Y5909031I33088J13705D01*
G01X1318063Y5904680D01*
G03X1298681Y5857887I13705J-33088D01*
G01X1354625Y5722826D01*
G03X1340294Y5642402I55714J-51417D01*
G01X1447466Y5383720D01*
G03X1514447Y5336982I70042J29014D01*
G01X1570393Y5201915D01*
G03X1617186Y5182533I33088J13705D01*
G01X1636658Y5190598D01*
G01X1650558Y5176698D01*
G03X1693560Y5158886I43002J43002D01*
G01X1761181Y5158886D01*
G03X1700826Y5077185I4119J-66186D01*
G03X1791743Y5031886I64474J15515D01*
G01X1818853Y5031886D01*
G01X1787799Y5000832D01*
G01X1462014Y1295400D02*
G03X1230386Y1295400I-115814J0D01*
G03X1462014Y1295400I115814J0D01*
G01X1716014Y1295400D02*
G03X1484386Y1295400I-115814J0D01*
G03X1716014Y1295400I115814J0D01*
G01X1716014Y3581400D02*
G03X1484386Y3581400I-115814J0D01*
G03X1716014Y3581400I115814J0D01*
G01X1970014Y3581400D02*
G03X1738386Y3581400I-115814J0D01*
G03X1970014Y3581400I115814J0D01*
G01X2224014Y1295400D02*
G03X1992386Y1295400I-115814J0D01*
G03X2224014Y1295400I115814J0D01*
G01X2224014Y3581400D02*
G03X1992386Y3581400I-115814J0D01*
G03X2224014Y3581400I115814J0D01*
G01X2478014Y1295400D02*
G03X2246386Y1295400I-115814J0D01*
G03X2478014Y1295400I115814J0D01*
G01X2478014Y3581400D02*
G03X2246386Y3581400I-115814J0D01*
G03X2478014Y3581400I115814J0D01*
G01X2732014Y1295400D02*
G03X2500386Y1295400I-115814J0D01*
G03X2732014Y1295400I115814J0D01*
G01X2986014Y1295400D02*
G03X2754386Y1295400I-115814J0D01*
G03X2986014Y1295400I115814J0D01*
G01X3240014Y1295400D02*
G03X3008386Y1295400I-115814J0D01*
G03X3240014Y1295400I115814J0D01*
G01X4002014Y1295400D02*
G03X3770386Y1295400I-115814J0D01*
G03X4002014Y1295400I115814J0D01*
G01X4256014Y3581400D02*
G03X4024386Y3581400I-115814J0D01*
G03X4256014Y3581400I115814J0D01*
G01X4256014Y1295400D02*
G03X4024386Y1295400I-115814J0D01*
G03X4256014Y1295400I115814J0D01*
G01X4510014Y3581400D02*
G03X4278386Y3581400I-115814J0D01*
G03X4510014Y3581400I115814J0D01*
G01X4510014Y1295400D02*
G03X4278386Y1295400I-115814J0D01*
G03X4510014Y1295400I115814J0D01*
G01X4764014Y3581400D02*
G03X4532386Y3581400I-115814J0D01*
G03X4764014Y3581400I115814J0D01*
G01X4764014Y1295400D02*
G03X4532386Y1295400I-115814J0D01*
G03X4764014Y1295400I115814J0D01*
G01X5018014Y3581400D02*
G03X4786386Y3581400I-115814J0D01*
G03X5018014Y3581400I115814J0D01*
G01X5018014Y1295400D02*
G03X4786386Y1295400I-115814J0D01*
G03X5018014Y1295400I115814J0D01*
G01X5272014Y3581400D02*
G03X5040386Y3581400I-115814J0D01*
G03X5272014Y3581400I115814J0D01*
G01X5471014Y799890D02*
G01X5471014Y1196838D01*
G03X5410200Y1411214I-60814J98562D01*
G03X5349386Y1196838I0J-115814D01*
G01X5349386Y774700D01*
G03X5367198Y731698I60814J0D01*
G01X5508930Y589966D01*
G03X5551932Y572154I43002J43002D01*
G01X6418215Y572154D01*
G03X7486381Y632968I532352J60814D01*
G03X6418215Y693782I-535814J0D01*
G01X5577122Y693782D01*
G01X5471014Y799890D01*
G01X6286710Y4391514D02*
G01X5905500Y4391514D01*
G03X5862498Y4373702I0J-60814D01*
G01X5367198Y3878402D01*
G03X5349386Y3835400I43002J-43002D01*
G01X5349386Y3679962D01*
G03X5410200Y3465586I60814J-98562D01*
G03X5471014Y3679962I0J115814D01*
G01X5471014Y3810210D01*
G01X5930690Y4269886D01*
G01X5939779Y4269886D01*
G03X5933720Y4264380I54621J-66186D01*
G01X5844820Y4175480D01*
G03X5819686Y4114800I60680J-60680D01*
G01X5819686Y4042268D01*
G03X5817901Y3833213I85814J-105268D01*
G03X6023686Y3870087I87599J103787D01*
G01X6023686Y3837000D01*
G03X6059500Y3801186I35814J0D01*
G01X6086386Y3801186D01*
G01X6086386Y3696739D01*
G03X6056861Y3667214I5814J-35339D01*
G01X5995974Y3667214D01*
G03X5802386Y3581400I-77774J-85814D01*
G03X5995974Y3495586I115814J0D01*
G01X6056861Y3495586D01*
G03X6092200Y3465586I35339J5814D01*
G01X6252200Y3465586D01*
G03X6288014Y3501400I0J35814D01*
G01X6288014Y3661400D01*
G03X6258014Y3696739I-35814J0D01*
G01X6258014Y3801186D01*
G01X6259500Y3801186D01*
G03X6295314Y3837000I0J35814D01*
G01X6295314Y4037000D01*
G03X6259500Y4072814I-35814J0D01*
G01X6059500Y4072814D01*
G03X6023686Y4037000I0J-35814D01*
G01X6023686Y4003913D01*
G03X5991314Y4042268I-118186J-66913D01*
G01X5991314Y4079255D01*
G01X6029945Y4117886D01*
G01X6454155Y4117886D01*
G01X6480086Y4091955D01*
G01X6480086Y4054968D01*
G03X6565900Y3813886I85814J-105268D01*
G03X6651714Y4054968I0J135814D01*
G01X6651714Y4127500D01*
G03X6626580Y4188180I-85814J0D01*
G01X6550380Y4264380D01*
G03X6489700Y4289514I-60680J-60680D01*
G01X6356718Y4289514D01*
G01X7294702Y5227498D01*
G03X7312514Y5270500I-43002J43002D01*
G01X7312514Y8550326D01*
G03X7066013Y9591382I-153347J513402D01*
G03X7190886Y8528853I93154J-527654D01*
G01X7190886Y5295690D01*
G01X6286710Y4391514D01*
G01X5780014Y3581400D02*
G03X5548386Y3581400I-115814J0D01*
G03X5780014Y3581400I115814J0D01*
G01X5780014Y1295400D02*
G03X5548386Y1295400I-115814J0D01*
G03X5780014Y1295400I115814J0D01*
G01X6034014Y1295400D02*
G03X5802386Y1295400I-115814J0D01*
G03X6034014Y1295400I115814J0D01*
G01X6038432Y937240D02*
G03X6310060Y937240I135814J0D01*
G03X6038432Y937240I-135814J0D01*
G01X6092200Y1411214D02*
G03X6056386Y1375400I0J-35814D01*
G01X6056386Y1215400D01*
G03X6092200Y1179586I35814J0D01*
G01X6252200Y1179586D01*
G03X6288014Y1215400I0J35814D01*
G01X6288014Y1375400D01*
G03X6252200Y1411214I-35814J0D01*
G01X6092200Y1411214D01*
G01X1920386Y8238181D02*
G01X1920386Y8216690D01*
G01X1909697Y8206001D01*
G03X1920386Y8238181I-55497J36299D01*
G01X2407782Y9073092D02*
G03X2422423Y9064523I24897J25745D01*
G03X2430992Y9049882I34314J10256D01*
G03X2405273Y9047373I-9616J-34499D01*
G03X2407782Y9073092I-31989J16103D01*
G01X4246702Y8209102D02*
G03X4203700Y8226914I-43002J-43002D01*
G01X3187490Y8226914D01*
G01X2943714Y8470690D01*
G01X2943714Y8826710D01*
G01X2996990Y8879986D01*
G01X3091682Y8879986D01*
G01X3083244Y8871548D01*
G03X3065570Y8832634I43002J-43002D01*
G03X3097264Y8578442I60676J-121507D01*
G03X3232060Y8796268I28982J132686D01*
G01X3442386Y8796268D01*
G01X3442386Y8742236D01*
G03X3478200Y8706422I35814J0D01*
G01X3532200Y8706422D01*
G03X3547179Y8709704I0J35814D01*
G01X3618704Y8709704D01*
G03X3650390Y8690582I31686J16692D01*
G01X3760390Y8690582D01*
G03X3796204Y8726396I0J35814D01*
G01X3796204Y8786396D01*
G03X3760390Y8822210I-35814J0D01*
G01X3723304Y8822210D01*
G03X3691268Y8831332I-32036J-51692D01*
G01X3568014Y8831332D01*
G01X3568014Y8885365D01*
G03X3566014Y8897166I-35814J0D01*
G01X3566014Y9207710D01*
G01X3700602Y9342298D01*
G03X3718414Y9385300I-43002J43002D01*
G01X3718414Y9427741D01*
G03X3734391Y9423980I15977J32053D01*
G01X3743436Y9423980D01*
G03X3766806Y9326413I53864J-38680D01*
G03X3859974Y9363632I30494J58887D01*
G03X3870204Y9397390I-50584J33758D01*
G01X3870204Y9423980D01*
G01X3880574Y9423980D01*
G03X3948202Y9379968I68826J31792D01*
G01X3949347Y9379968D01*
G01X3949881Y9379979D01*
G01X4229402Y9379958D01*
G03X4298223Y9423980I-5J75814D01*
G01X4444409Y9423980D01*
G03X4457918Y9426626I0J35814D01*
G03X4495800Y9413386I37882J47574D01*
G01X4749800Y9413386D01*
G03X4792802Y9431198I0J60814D01*
G01X4863890Y9502286D01*
G01X4922240Y9502286D01*
G03X4932136Y9461955I33288J-13212D01*
G03X4896412Y9439943I-2636J-35717D01*
G01X4865033Y9364186D01*
G01X4864275Y9362192D01*
G01X4797633Y9295550D01*
G03X4838700Y9134386I41067J-75350D01*
G01X4843643Y9134386D01*
G03X4904323Y9159520I0J85814D01*
G01X5010125Y9265323D01*
G01X5019471Y9261451D01*
G03X5065108Y9194909I75753J3033D01*
G01X5066167Y9194471D01*
G01X5066664Y9194276D01*
G01X5324900Y9087289D01*
G03X5405329Y9101624I29008J70045D01*
G01X5534290Y9048206D01*
G01X5608498Y8973998D01*
G03X5651500Y8956186I43002J43002D01*
G01X5851714Y8956186D01*
G03X5846400Y8951807I20010J-29703D01*
G01X5788418Y8893826D01*
G03X5781953Y8852006I25324J-25324D01*
G01X5632049Y8702102D01*
G03X5403740Y8593808I-92803J-99162D01*
G03X5644515Y8517126I135507J9132D01*
G01X5654246Y8517126D01*
G03X5714926Y8542260I0J85814D01*
G01X5887124Y8714458D01*
G03X5908483Y8660868I75809J-835D01*
G01X5909294Y8660058D01*
G01X5909679Y8659688D01*
G01X6107315Y8462023D01*
G03X6187108Y8444487I53605J53612D01*
G01X6276486Y8355109D01*
G01X6276486Y8343900D01*
G03X6294298Y8300898I60814J0D01*
G01X6383198Y8211998D01*
G03X6426200Y8194186I43002J43002D01*
G01X6518648Y8194186D01*
G01X6448863Y8165280D01*
G03X6427167Y8137614I13705J-33088D01*
G01X6311900Y8137614D01*
G03X6311900Y7965986I0J-85814D01*
G01X6473359Y7965986D01*
G03X6470640Y7904109I67775J-33976D01*
G01X6471079Y7903050D01*
G01X6471293Y7902561D01*
G01X6578242Y7644310D01*
G03X6645250Y7597574I70041J29017D01*
G01X6659478Y7563225D01*
G01X6624498Y7528245D01*
G03X6606686Y7485243I43002J-43002D01*
G01X6606686Y7340600D01*
G03X6624498Y7297598I60814J0D01*
G01X6738798Y7183298D01*
G03X6762510Y7168627I43002J43002D01*
G03X6758652Y7160324I30285J-19117D01*
G01X6660619Y7160324D01*
G03X6556020Y7025920I-43919J-73724D01*
G01X6568111Y7013830D01*
G03X6628790Y6988696I60680J60680D01*
G01X6735758Y6988696D01*
G03X6712968Y6935698I53015J-54196D01*
G01X6712968Y6934553D01*
G01X6712979Y6934019D01*
G01X6712958Y6654498D01*
G03X6756980Y6585677I75814J5D01*
G01X6756980Y6575304D01*
G01X6755790Y6575304D01*
G03X6712788Y6557492I0J-60814D01*
G01X6637198Y6481902D01*
G03X6619386Y6438900I43002J-43002D01*
G01X6619386Y6311900D01*
G03X6637198Y6268898I60814J0D01*
G01X6747223Y6158873D01*
G01X6745992Y6159325D01*
G01X6735937Y6169380D01*
G03X6675257Y6194514I-60680J-60680D01*
G01X6565900Y6194514D01*
G03X6565900Y6022886I0J-85814D01*
G01X6639712Y6022886D01*
G01X6649123Y6013475D01*
G01X6645251Y6004129D01*
G03X6578709Y5958492I3033J-75753D01*
G01X6578271Y5957433D01*
G01X6578076Y5956936D01*
G01X6471089Y5698700D01*
G03X6485424Y5618271I70045J-29008D01*
G01X6471772Y5585314D01*
G01X6426200Y5585314D01*
G03X6383198Y5567502I0J-60814D01*
G01X6294298Y5478602D01*
G03X6276486Y5435600I43002J-43002D01*
G01X6276486Y5232400D01*
G03X6284901Y5201534I60814J0D01*
G03X6270714Y5207113I-19900J-29777D01*
G01X6270714Y5219700D01*
G03X6172214Y5304571I-85814J0D01*
G01X6172214Y5376792D01*
G03X6154798Y5602506I-50814J109608D01*
G01X6136740Y5620564D01*
G03X6182214Y5844792I-15340J119836D01*
G01X6182214Y6959600D01*
G03X6164402Y7002602I-60814J0D01*
G01X5992575Y7174429D01*
G03X5927229Y7397902I-63676J102671D01*
G03X5868085Y7172708I1670J-120802D01*
G01X5868085Y7152102D01*
G03X5885897Y7109100I60814J0D01*
G01X6060586Y6934410D01*
G01X6060586Y6836141D01*
G03X6050102Y6850202I-53486J-28941D01*
G01X5739713Y7160591D01*
G01X5739713Y7172708D01*
G03X5678899Y7397914I-60814J104392D01*
G03X5618085Y7172708I0J-120814D01*
G01X5618085Y7135401D01*
G03X5635897Y7092399I60814J0D01*
G01X5946286Y6782010D01*
G01X5946286Y6670824D01*
G03X5780135Y6661528I-78886J-79524D01*
G03X5806586Y6497232I87265J-70228D01*
G01X5806586Y6464090D01*
G01X5674214Y6331718D01*
G01X5674214Y6337300D01*
G03X5656402Y6380302I-60814J0D01*
G01X5578214Y6458490D01*
G01X5578214Y6497232D01*
G03X5517400Y6703314I-60814J94068D01*
G03X5456586Y6497232I0J-112014D01*
G01X5456586Y6433300D01*
G03X5474398Y6390298I60814J0D01*
G01X5552586Y6312110D01*
G01X5552586Y5562600D01*
G03X5570398Y5519598I60814J0D01*
G01X5646598Y5443398D01*
G03X5689600Y5425586I43002J43002D01*
G01X5746586Y5425586D01*
G01X5746586Y5401400D01*
G03X5782400Y5365586I35814J0D01*
G01X5816586Y5365586D01*
G01X5816586Y5342348D01*
G01X5743952Y5269714D01*
G01X5593615Y5269714D01*
G01X5593615Y5283912D01*
G03X5557801Y5319726I-35814J0D01*
G01X5543615Y5319726D01*
G01X5543615Y5340299D01*
G03X5528732Y5376230I-50814J0D01*
G01X5511814Y5393148D01*
G01X5511814Y5418364D01*
G03X5525726Y5446700I-21902J28336D01*
G01X5525726Y5596788D01*
G03X5507914Y5639790I-60814J0D01*
G01X5466676Y5681028D01*
G03X5455136Y5885973I-94576J97472D01*
G03X5253914Y5845413I-83036J-107473D01*
G01X5253914Y5878500D01*
G03X5218100Y5914314I-35814J0D01*
G01X5018100Y5914314D01*
G03X4982286Y5878500I0J-35814D01*
G01X4982286Y5839314D01*
G01X4953000Y5839314D01*
G03X4909998Y5821502I0J-60814D01*
G01X4711910Y5623414D01*
G01X4495800Y5623414D01*
G03X4473137Y5619034I0J-60814D01*
G01X4843602Y5989498D01*
G03X4861414Y6032500I-43002J43002D01*
G01X4861414Y8077200D01*
G03X4843602Y8120202I-60814J0D01*
G01X4259402Y8704402D01*
G03X4216400Y8722214I-43002J-43002D01*
G01X4055979Y8722214D01*
G03X4056224Y8726396I-35569J4182D01*
G01X4056224Y8786396D01*
G03X4020410Y8822210I-35814J0D01*
G01X4016224Y8822210D01*
G01X4016224Y8874290D01*
G03X4014330Y8888034I-50814J0D01*
G03X4018533Y8887786I4203J35567D01*
G01X4169157Y8887786D01*
G03X4204971Y8923600I0J35814D01*
G01X4204971Y9161200D01*
G03X4169157Y9197014I-35814J0D01*
G01X4018533Y9197014D01*
G03X3982719Y9161200I0J-35814D01*
G01X3982719Y9128214D01*
G01X3860800Y9128214D01*
G03X3810330Y8972997I0J-85814D01*
G03X3824869Y8942969I50470J5903D01*
G01X3914596Y8853242D01*
G01X3914596Y8822210D01*
G01X3910410Y8822210D01*
G03X3874596Y8786396I0J-35814D01*
G01X3874596Y8726396D01*
G03X3879162Y8708898I35814J0D01*
G03X3874596Y8691400I31248J-17498D01*
G01X3874596Y8631400D01*
G03X3879162Y8613902I35814J0D01*
G03X3874596Y8596404I31248J-17498D01*
G01X3874596Y8536404D01*
G03X3904596Y8501065I35814J0D01*
G01X3904596Y8442814D01*
G01X3901513Y8442814D01*
G03X3889712Y8444814I-11801J-33814D01*
G01X3839712Y8444814D01*
G03X3822700Y8440516I0J-35814D01*
G03X3805688Y8444814I-17012J-31516D01*
G01X3755688Y8444814D01*
G03X3719874Y8409000I0J-35814D01*
G01X3719874Y8355000D01*
G03X3755688Y8319186I35814J0D01*
G01X3805688Y8319186D01*
G03X3822700Y8323484I0J35814D01*
G03X3839712Y8319186I17012J31516D01*
G01X3889712Y8319186D01*
G03X3901513Y8321186I0J35814D01*
G01X3937000Y8321186D01*
G03X3980002Y8338998I0J60814D01*
G01X3990600Y8349596D01*
G01X4044242Y8349596D01*
G03X4152053Y8338386I57858J32404D01*
G03X4126404Y8443700I-49953J43614D01*
G01X4116692Y8453412D01*
G03X4073690Y8471224I-43002J-43002D01*
G01X4026224Y8471224D01*
G01X4026224Y8501065D01*
G03X4056224Y8536404I-5814J35339D01*
G01X4056224Y8596404D01*
G03X4055979Y8600586I-35814J0D01*
G01X4191210Y8600586D01*
G01X4739786Y8052010D01*
G01X4739786Y6057690D01*
G01X4704634Y6022537D01*
G03X4709014Y6045200I-56434J22663D01*
G01X4709014Y7721600D01*
G03X4691202Y7764602I-60814J0D01*
G01X4246702Y8209102D01*
G01X3614576Y8536404D02*
G03X3650390Y8500590I35814J0D01*
G01X3760390Y8500590D01*
G03X3796204Y8536404I0J35814D01*
G01X3796204Y8596404D01*
G03X3760390Y8632218I-35814J0D01*
G01X3650390Y8632218D01*
G03X3614576Y8596404I0J-35814D01*
G01X3614576Y8536404D01*
G01X4354829Y8923600D02*
G03X4390643Y8887786I35814J0D01*
G01X4541267Y8887786D01*
G03X4577081Y8923600I0J35814D01*
G01X4577081Y9161200D01*
G03X4541267Y9197014I-35814J0D01*
G01X4390643Y9197014D01*
G03X4354829Y9161200I0J-35814D01*
G01X4354829Y8923600D01*
G54D11*
G01X1360704Y5802399D02*
G01X1336769Y5792484D01*
G01X1192348Y7074510D02*
G01X1166440Y7074510D01*
G01X1233094Y7149255D02*
G01X1233094Y7175163D01*
G01X1309924Y5968853D02*
G01X1285988Y5958938D01*
G01X1322551Y6003033D02*
G01X1312636Y6026969D01*
G01X1228642Y7251700D02*
G01X1202734Y7251700D01*
G01X1253388Y7224954D02*
G01X1253388Y7199046D01*
G01X1253388Y7278446D02*
G01X1253388Y7304354D01*
G01X1536914Y8202391D02*
G01X1512979Y8212306D01*
G01X1603162Y8255855D02*
G01X1613077Y8279791D01*
G01X1652824Y8356747D02*
G01X1628888Y8366662D01*
G01X1665451Y8322567D02*
G01X1655536Y8298631D01*
G01X1685922Y8371987D02*
G01X1695836Y8395923D01*
G01X1832395Y4956595D02*
G01X1814076Y4938276D01*
G01X1868806Y4955181D02*
G01X1887125Y4936861D01*
G01X1830981Y4993006D02*
G01X1812661Y5011325D01*
G01X2262448Y9068245D02*
G01X2244128Y9086565D01*
G01X1968055Y4802448D02*
G01X1949735Y4784128D01*
G01X1944013Y4884113D02*
G01X1925693Y4902432D01*
G01X2679553Y4243624D02*
G01X2669638Y4219688D01*
G01X2713733Y4256251D02*
G01X2737669Y4246336D01*
G01X2664313Y4276722D02*
G01X2640377Y4286636D01*
G01X2416595Y9153105D02*
G01X2398276Y9171424D01*
G01X2453006Y9154519D02*
G01X2471325Y9172839D01*
G01X2859309Y4153114D02*
G01X2849394Y4129179D01*
G01X2805845Y4219362D02*
G01X2781909Y4229277D01*
G01X3211599Y9573996D02*
G01X3201684Y9597931D01*
G01X3369444Y9614739D02*
G01X3359529Y9638675D01*
G01X3403624Y9602112D02*
G01X3427560Y9612027D01*
G01X3910990Y3872048D02*
G01X3910990Y3846140D01*
G01X3836245Y3912794D02*
G01X3810337Y3912794D01*
G01X3721100Y3895642D02*
G01X3721100Y3869734D01*
G01X3747846Y3920388D02*
G01X3773754Y3920388D01*
G01X3694354Y3920388D02*
G01X3668446Y3920388D01*
G01X3755942Y8382000D02*
G01X3730034Y8382000D01*
G01X3780688Y8355254D02*
G01X3780688Y8329346D01*
G01X3780688Y8408746D02*
G01X3780688Y8434654D01*
G01X3650644Y8566404D02*
G01X3624736Y8566404D01*
G01X3760136Y8566404D02*
G01X3786044Y8566404D01*
G01X3705390Y8596150D02*
G01X3705390Y8622058D01*
G01X3705390Y8536658D02*
G01X3705390Y8510750D01*
G01X4369410Y9691552D02*
G01X4369410Y9717460D01*
G01X4444155Y9650806D02*
G01X4470063Y9650806D01*
G01X4390897Y9042400D02*
G01X4364989Y9042400D01*
G01X4541013Y9042400D02*
G01X4566921Y9042400D01*
G01X4465955Y9160946D02*
G01X4465955Y9186854D01*
G01X4465955Y8923854D02*
G01X4465955Y8897946D01*
G01X4584700Y9655258D02*
G01X4584700Y9681166D01*
G01X4557954Y9630512D02*
G01X4532046Y9630512D01*
G01X4611446Y9630512D02*
G01X4637354Y9630512D01*
G01X4826147Y3951524D02*
G01X4836062Y3927588D01*
G01X4841387Y3984622D02*
G01X4865323Y3994536D01*
G01X5005301Y4015004D02*
G01X5015216Y3991069D01*
G01X4920652Y4024044D02*
G01X4896716Y4014130D01*
G01X5573491Y9321586D02*
G01X5583406Y9345521D01*
G01X5626955Y9255338D02*
G01X5650891Y9245423D01*
G01X5740547Y9205676D02*
G01X5750462Y9229612D01*
G01X5706367Y9193049D02*
G01X5682431Y9202964D01*
G01X5755787Y9172578D02*
G01X5779723Y9162664D01*
G01X5825705Y4448595D02*
G01X5844024Y4430276D01*
G01X5827119Y4485006D02*
G01X5845439Y4503325D01*
G01X5789294Y4447181D02*
G01X5770975Y4428861D01*
G01X6426645Y8583352D02*
G01X6444965Y8601672D01*
G01X5979852Y4558855D02*
G01X5998172Y4540535D01*
G01X5898187Y4534813D02*
G01X5879868Y4516493D01*
G01X6511505Y8441905D02*
G01X6529824Y8460224D01*
G01X6614876Y5283053D02*
G01X6638812Y5273138D01*
G01X6602249Y5317233D02*
G01X6612164Y5341169D01*
G01X6581778Y5267813D02*
G01X6571864Y5243877D01*
G01X6705386Y5450109D02*
G01X6729321Y5440194D01*
G01X6639138Y5396645D02*
G01X6629223Y5372709D01*
G01X6919696Y7634201D02*
G01X6943631Y7644116D01*
G01X6910656Y7549552D02*
G01X6920570Y7525616D01*
G01X6970476Y7455047D02*
G01X6994412Y7464962D01*
G01X6937378Y7470287D02*
G01X6927464Y7494223D01*
G01X6957849Y7420867D02*
G01X6967764Y7396931D01*
G01X6988258Y6337300D02*
G01X7014166Y6337300D01*
G01X6963512Y6364046D02*
G01X6963512Y6389954D01*
G01X6963512Y6310554D02*
G01X6963512Y6284646D01*
G01X7024552Y6514490D02*
G01X7050460Y6514490D01*
G01X6983806Y6439745D02*
G01X6983806Y6413837D01*
G01X469900Y4652354D02*
G01X469900Y4626446D01*
G01X469900Y4821846D02*
G01X469900Y4847754D01*
G01X385154Y4737100D02*
G01X359246Y4737100D01*
G01X554646Y4737100D02*
G01X580554Y4737100D01*
G01X469900Y4906354D02*
G01X469900Y4880446D01*
G01X469900Y5075846D02*
G01X469900Y5101754D01*
G01X385154Y4991100D02*
G01X359246Y4991100D01*
G01X554646Y4991100D02*
G01X580554Y4991100D01*
G01X469900Y4398354D02*
G01X469900Y4372446D01*
G01X469900Y4567846D02*
G01X469900Y4593754D01*
G01X385154Y4483100D02*
G01X359246Y4483100D01*
G01X554646Y4483100D02*
G01X580554Y4483100D01*
G01X384900Y3922271D02*
G01X358992Y3922271D01*
G01X584392Y3922271D02*
G01X610300Y3922271D01*
G01X484646Y4022017D02*
G01X484646Y4047925D01*
G01X484646Y3822524D02*
G01X484646Y3796616D01*
G01X738454Y3924300D02*
G01X712546Y3924300D01*
G01X838200Y3824554D02*
G01X838200Y3798646D01*
G01X838200Y4024046D02*
G01X838200Y4049954D01*
G04 Copper End*

G04 Pad Start*
G54D12*
G01X3780688Y8382000D03*
G01X3864712Y8382000D03*
G01X4453788Y4940300D03*
G01X4537812Y4940300D03*
G01X4453788Y4800600D03*
G01X4537812Y4800600D03*
G01X4453788Y5384800D03*
G01X4537812Y5384800D03*
G01X5464912Y5473700D03*
G01X5380888Y5473700D03*
G01X5037988Y5473700D03*
G01X5122012Y5473700D03*
G54D13*
G01X4584700Y9630512D03*
G01X4584700Y9546488D03*
G54D14*
G01X4465955Y9042400D03*
G01X4093845Y9042400D03*
G54D15*
G01X5731077Y9182814D03*
G01X5698923Y9105186D03*
G54D16*
G01X6494007Y8424407D03*
G01X6434593Y8364993D03*
G54D17*
G01X6947614Y7445577D03*
G01X6869986Y7413423D03*
G54D12*
G01X6963512Y6337300D03*
G01X6879488Y6337300D03*
G54D19*
G01X6592014Y5292523D03*
G01X6514386Y5324677D03*
G54D20*
G01X5808207Y4466093D03*
G01X5748793Y4525507D03*
G54D21*
G01X4816677Y3974386D03*
G01X4784523Y4052014D03*
G54D13*
G01X2832100Y5253888D03*
G01X2832100Y5337912D03*
G01X2984500Y5253888D03*
G01X2984500Y5337912D03*
G54D22*
G01X2197100Y5848502D03*
G01X2197100Y5708498D03*
G01X2946400Y5848502D03*
G01X2946400Y5708498D03*
G54D13*
G01X3721100Y3920388D03*
G01X3721100Y4004412D03*
G54D15*
G01X2689023Y4266486D03*
G01X2721177Y4344114D03*
G54D16*
G01X1849893Y4974093D03*
G01X1909307Y5033507D03*
G54D17*
G01X1332786Y5978323D03*
G01X1410414Y6010477D03*
G54D12*
G01X1253388Y7251700D03*
G01X1337412Y7251700D03*
G54D19*
G01X1675686Y8347277D03*
G01X1753314Y8315123D03*
G54D20*
G01X2434093Y9135607D03*
G01X2493507Y9076193D03*
G54D21*
G01X3378914Y9591877D03*
G01X3411068Y9514250D03*
G54D23*
G01X5678899Y7277100D03*
G01X5928898Y7277100D03*
G01X2135599Y7302500D03*
G01X2385598Y7302500D03*
G54D24*
G01X6172200Y3581400D03*
G54D25*
G01X5918200Y3581400D03*
G01X5664200Y3581400D03*
G01X5410200Y3581400D03*
G01X5156200Y3581400D03*
G01X4902200Y3581400D03*
G01X4648200Y3581400D03*
G01X4394200Y3581400D03*
G01X4140200Y3581400D03*
G01X3886200Y3581400D03*
G01X3632200Y3581400D03*
G01X3378200Y3581400D03*
G01X3124200Y3581400D03*
G01X2870200Y3581400D03*
G01X2616200Y3581400D03*
G01X2362200Y3581400D03*
G01X2108200Y3581400D03*
G01X1854200Y3581400D03*
G01X1600200Y3581400D03*
G01X1346200Y3581400D03*
G01X1092200Y3581400D03*
G01X838200Y3581400D03*
G54D24*
G01X6172200Y1295400D03*
G54D25*
G01X5918200Y1295400D03*
G01X5664200Y1295400D03*
G01X5410200Y1295400D03*
G01X5156200Y1295400D03*
G01X4902200Y1295400D03*
G01X4648200Y1295400D03*
G01X4394200Y1295400D03*
G01X4140200Y1295400D03*
G01X3886200Y1295400D03*
G01X3632200Y1295400D03*
G01X3378200Y1295400D03*
G01X3124200Y1295400D03*
G01X2870200Y1295400D03*
G01X2616200Y1295400D03*
G01X2362200Y1295400D03*
G01X2108200Y1295400D03*
G01X1854200Y1295400D03*
G01X1600200Y1295400D03*
G01X1346200Y1295400D03*
G01X1092200Y1295400D03*
G01X838200Y1295400D03*
G54D26*
G01X6159500Y3937000D03*
G54D27*
G01X5905500Y3937000D03*
G54D26*
G01X1092200Y3924300D03*
G54D27*
G01X838200Y3924300D03*
G54D28*
G01X5867400Y5486400D03*
G54D23*
G01X5867400Y5740400D03*
G01X6121400Y5486400D03*
G01X6121400Y5740400D03*
G54D28*
G01X2171700Y6324600D03*
G54D23*
G01X2171700Y6578600D03*
G01X2425700Y6324600D03*
G01X2425700Y6578600D03*
G54D26*
G01X5118100Y5778500D03*
G54D27*
G01X5372100Y5778500D03*
G54D26*
G01X3657600Y5257800D03*
G54D27*
G01X3403600Y5257800D03*
G54D23*
G01X469900Y6769100D03*
G01X723900Y6769100D03*
G01X469900Y6515100D03*
G01X723900Y6515100D03*
G01X469900Y6261100D03*
G01X723900Y6261100D03*
G01X469900Y6007100D03*
G01X723900Y6007100D03*
G01X469900Y5753100D03*
G01X723900Y5753100D03*
G01X469900Y5499100D03*
G01X723900Y5499100D03*
G01X469900Y5245100D03*
G01X723900Y5245100D03*
G01X469900Y4991100D03*
G01X723900Y4991100D03*
G01X469900Y4737100D03*
G01X723900Y4737100D03*
G01X469900Y4483100D03*
G54D28*
G01X723900Y4483100D03*
G54D29*
G01X2705100Y5669178D03*
G01X2705100Y5862422D03*
G01X2438400Y5656478D03*
G01X2438400Y5849722D03*
G54D30*
G01X4369410Y9650806D03*
G01X4369410Y9500794D03*
G01X3809390Y9500794D03*
G01X3809390Y9650806D03*
G54D31*
G01X5557899Y9283942D03*
G01X5500491Y9145348D03*
G01X4983101Y9359658D03*
G01X5040509Y9498252D03*
G54D32*
G01X6397834Y8554541D03*
G01X6291759Y8448466D03*
G01X5895766Y8844459D03*
G01X6001841Y8950534D03*
G54D33*
G01X6882052Y7618609D03*
G01X6743458Y7561201D03*
G01X6529148Y8078591D03*
G01X6667742Y8135999D03*
G54D34*
G01X6983806Y6514490D03*
G01X6833794Y6514490D03*
G01X6833794Y7074510D03*
G01X6983806Y7074510D03*
G54D35*
G01X6667742Y5465701D03*
G01X6529148Y5523109D03*
G01X6743458Y6040499D03*
G01X6882052Y5983091D03*
G54D36*
G01X5951041Y4587666D03*
G01X5844966Y4693741D03*
G01X6240959Y5089734D03*
G01X6347034Y4983659D03*
G54D37*
G01X4989709Y4052648D03*
G01X4932301Y4191242D03*
G01X5449691Y4405552D03*
G01X5507099Y4266958D03*
G54D30*
G01X3910990Y3912794D03*
G01X3910990Y4062806D03*
G01X4471010Y4062806D03*
G01X4471010Y3912794D03*
G54D31*
G01X2874901Y4190758D03*
G01X2932309Y4329352D03*
G01X3449699Y4115042D03*
G01X3392291Y3976448D03*
G54D32*
G01X1996866Y4831259D03*
G01X2102941Y4937334D03*
G01X2498934Y4541341D03*
G01X2392859Y4435266D03*
G54D33*
G01X1398348Y5817991D03*
G01X1536942Y5875399D03*
G01X1751252Y5358009D03*
G01X1612658Y5300601D03*
G54D34*
G01X1233094Y7074510D03*
G01X1383106Y7074510D03*
G01X1383106Y6514490D03*
G01X1233094Y6514490D03*
G54D35*
G01X1574558Y8186799D03*
G01X1713152Y8129391D03*
G01X1498842Y7612001D03*
G01X1360248Y7669409D03*
G54D36*
G01X2291259Y9039434D03*
G01X2397334Y8933359D03*
G01X2001341Y8537366D03*
G01X1895266Y8643441D03*
G54D37*
G01X3227191Y9536352D03*
G01X3284599Y9397758D03*
G01X2767209Y9183448D03*
G01X2709801Y9322042D03*
G54D38*
G01X3505200Y8857082D03*
G01X3505200Y8770518D03*
G01X4826000Y5339182D03*
G01X4826000Y5252618D03*
G01X4826000Y4998618D03*
G01X4826000Y5085182D03*
G54D39*
G01X2938882Y5067300D03*
G01X2852318Y5067300D03*
G54D40*
G01X4449702Y6934200D03*
G54D41*
G01X3449704Y6934200D03*
G54D42*
G01X3705390Y8566404D03*
G01X3705390Y8756396D03*
G01X3965410Y8756396D03*
G01X3965410Y8661400D03*
G01X3965410Y8566404D03*
G54D43*
G01X4395597Y5143906D03*
G01X4395597Y5193894D03*
G54D44*
G01X4408094Y5256403D03*
G01X4458106Y5256403D03*
G01X4508094Y5256403D03*
G01X4558106Y5256403D03*
G54D43*
G01X4570603Y5193894D03*
G01X4570603Y5143906D03*
G54D44*
G01X4558106Y5081397D03*
G01X4508094Y5081397D03*
G01X4458106Y5081397D03*
G01X4408094Y5081397D03*
G54D45*
G01X5022799Y5268887D03*
G01X5022799Y5218900D03*
G01X5022799Y5168913D03*
G01X5022799Y5118900D03*
G01X5022799Y5068888D03*
G01X5492801Y5068913D03*
G01X5492801Y5118900D03*
G01X5492801Y5168887D03*
G01X5492801Y5218900D03*
G01X5492801Y5268913D03*
G54D46*
G01X2465159Y5069700D03*
G01X2515146Y5069700D03*
G01X2565159Y5069700D03*
G01X2615146Y5069700D03*
G54D47*
G01X2690000Y5144910D03*
G01X2690000Y5194897D03*
G01X2690000Y5244910D03*
G01X2690000Y5294897D03*
G54D46*
G01X2614994Y5369700D03*
G01X2565006Y5369700D03*
G01X2514994Y5369700D03*
G01X2465159Y5369700D03*
G54D47*
G01X2390000Y5294897D03*
G01X2390000Y5244910D03*
G01X2390000Y5194897D03*
G01X2390000Y5144910D03*
G54D48*
G01X2540013Y5219687D03*
G54D49*
G01X5867400Y6591300D03*
G01X5517400Y6591300D03*
G54D50*
G01X984267Y608525D03*
G01X7159167Y9063728D03*
G01X811867Y9110882D03*
G01X6950567Y632968D03*
G54D27*
G01X6565900Y3949700D03*
G01X484646Y3922271D03*
G01X1780046Y789325D03*
G01X3126246Y8711128D03*
G01X5056646Y4758430D03*
G01X4370846Y4559185D03*
G01X2110246Y5338985D03*
G01X2859546Y4834939D03*
G01X4027946Y4979485D03*
G01X5539246Y8602940D03*
G01X6174246Y937240D03*
G04 Pad End*

G04 Via Start*
G54D51*
G01X5702300Y4597400D03*
G01X5880100Y9156700D03*
G01X5778500Y9296400D03*
G01X6616700Y8331200D03*
G01X6578600Y8496300D03*
G01X6781800Y7378700D03*
G01X6972300Y7353300D03*
G01X6946900Y6197600D03*
G01X7073900Y6337300D03*
G01X6489700Y5219700D03*
G01X6680200Y5232400D03*
G01X5880100Y4406900D03*
G01X4876800Y3886200D03*
G01X4711700Y3924300D03*
G01X3632200Y3886200D03*
G01X3708400Y4076700D03*
G01X2755900Y4419600D03*
G01X1765300Y5092700D03*
G01X1727200Y4927600D03*
G01X1231900Y5892800D03*
G01X1511300Y6096000D03*
G01X1460500Y7226300D03*
G01X1549400Y8407400D03*
G01X3479800Y9436100D03*
G01X2578100Y8978900D03*
G01X3797300Y9385300D03*
G01X4432300Y9321800D03*
G01X4394200Y9817100D03*
G01X4699000Y9588500D03*
G01X3822700Y4432300D03*
G01X177800Y4292600D03*
G01X88900Y4737100D03*
G01X2692400Y4051300D03*
G01X2755900Y4635500D03*
G01X2311400Y5397500D03*
G01X2298700Y5143500D03*
G01X2514600Y4902200D03*
G01X2540000Y4991100D03*
G01X3111500Y5359400D03*
G01X4102100Y5575300D03*
G01X4445000Y5511800D03*
G01X4660900Y5193894D03*
G01X4635500Y5295900D03*
G01X4622800Y4940300D03*
G01X4343400Y4991100D03*
G01X4749800Y5181600D03*
G01X5346700Y5156200D03*
G01X5372100Y5372100D03*
G01X5143500Y5384800D03*
G01X5168900Y5168900D03*
G01X3632200Y4254500D03*
G01X3556000Y4292600D03*
G01X3619500Y4508500D03*
G01X3429000Y4432300D03*
G01X4432300Y4191000D03*
G01X1562100Y8661400D03*
G01X1270000Y4406900D03*
G01X3390900Y5486400D03*
G01X520700Y3263900D03*
G01X609600Y3352800D03*
G01X952500Y5892800D03*
G01X1917700Y5791200D03*
G01X1701800Y6451600D03*
G01X1638300Y7480300D03*
G01X2133600Y8382000D03*
G01X1854200Y8242300D03*
G01X2832100Y9042400D03*
G01X3860800Y9042400D03*
G01X4102100Y8382000D03*
G01X4838700Y9220200D03*
G01X6311900Y8051800D03*
G01X6616700Y7086600D03*
G01X6565900Y6108700D03*
G01X6184900Y5219700D03*
G01X5346700Y4559300D03*
G01X3225800Y5803900D03*
G04 Via End*

G04 Track Start*
G54D27*
G01X484646Y3922271D02*
G01X484646Y4468354D01*
G01X469900Y4483100D01*
G01X469900Y4737100D01*
G01X469900Y4991100D01*
G01X838200Y3924300D02*
G01X486676Y3924300D01*
G01X484646Y3922271D01*
G01X1092200Y3924300D02*
G01X1092200Y3581400D01*
G54D52*
G01X4369410Y9500794D02*
G01X4469206Y9500794D01*
G01X4495800Y9474200D01*
G01X4749800Y9474200D02*
G01X4838700Y9563100D01*
G01X4975660Y9563100D01*
G01X5040508Y9498252D01*
G01X4495800Y9474200D02*
G01X4749800Y9474200D01*
G01X5500492Y9145348D02*
G01X5523152Y9145348D01*
G01X5935375Y9017000D02*
G01X6001841Y8950534D01*
G01X5523152Y9145348D02*
G01X5651500Y9017000D01*
G01X5935375Y9017000D01*
G01X6291759Y8448466D02*
G01X6337300Y8402925D01*
G01X6337300Y8343900D01*
G01X6548740Y8255000D02*
G01X6667742Y8135999D01*
G01X6337300Y8343900D02*
G01X6426200Y8255000D01*
G01X6548740Y8255000D01*
G01X6667500Y7485243D02*
G01X6743458Y7561201D01*
G01X6667500Y7340600D02*
G01X6667500Y7485243D01*
G01X6781800Y7226300D02*
G01X6667500Y7340600D01*
G01X6983806Y7074510D02*
G01X6983806Y7176694D01*
G01X6934200Y7226300D01*
G01X6781800Y7226300D01*
G01X6833794Y6514490D02*
G01X6755790Y6514490D01*
G01X6680200Y6438900D02*
G01X6680200Y6311900D01*
G01X6755790Y6514490D02*
G01X6680200Y6438900D01*
G01X6908800Y6009840D02*
G01X6882052Y5983092D01*
G01X6908800Y6083300D02*
G01X6908800Y6009840D01*
G01X6680200Y6311900D02*
G01X6908800Y6083300D01*
G01X6529148Y5523108D02*
G01X6527757Y5524500D01*
G01X6426200Y5524500D01*
G01X6337300Y5435600D01*
G01X6337300Y5232400D01*
G01X6438900Y5075525D02*
G01X6347034Y4983659D01*
G01X6438900Y5130800D02*
G01X6438900Y5075525D01*
G01X6337300Y5232400D02*
G01X6438900Y5130800D01*
G01X5814307Y4724400D02*
G01X5844966Y4693741D01*
G01X5715000Y4724400D02*
G01X5814307Y4724400D01*
G01X5507099Y4266958D02*
G01X5549658Y4266958D01*
G01X5600700Y4318000D01*
G01X5600700Y4610100D01*
G01X5715000Y4724400D01*
G01X5748793Y4525507D02*
G01X5702300Y4572000D01*
G01X5702300Y4597400D01*
G01X4881743Y4241800D02*
G01X4932301Y4191242D01*
G01X4724400Y4241800D02*
G01X4881743Y4241800D01*
G01X4635500Y4152900D02*
G01X4724400Y4241800D01*
G01X4471010Y3912794D02*
G01X4573194Y3912794D01*
G01X4635500Y3975100D01*
G01X4635500Y4152900D01*
G01X3910990Y4115410D02*
G01X3910990Y4062806D01*
G01X3873500Y4152900D02*
G01X3910990Y4115410D01*
G01X3644900Y4152900D02*
G01X3873500Y4152900D01*
G01X3594100Y4102100D02*
G01X3644900Y4152900D01*
G01X2932308Y4420992D02*
G01X2932308Y4329352D01*
G01X2832100Y4521200D02*
G01X2932308Y4420992D01*
G01X2692400Y4521200D02*
G01X2832100Y4521200D01*
G01X2392859Y4435266D02*
G01X2459325Y4368800D01*
G01X2540000Y4368800D01*
G01X2692400Y4521200D01*
G01X2102941Y4937334D02*
G01X2108200Y4942593D01*
G01X2108200Y5041900D01*
G01X1693560Y5219700D02*
G01X1612658Y5300601D01*
G01X1789975Y5219700D02*
G01X1693560Y5219700D01*
G01X1834788Y5264512D02*
G01X1789975Y5219700D01*
G01X1885588Y5264512D02*
G01X1834788Y5264512D01*
G01X2108200Y5041900D02*
G01X1885588Y5264512D01*
G01X1536942Y5875399D02*
G01X1595499Y5875399D01*
G01X1676400Y6197600D02*
G01X1549400Y6324600D01*
G01X1320800Y6324600D02*
G01X1231900Y6413500D01*
G01X1231900Y6513297D01*
G01X1233094Y6514490D01*
G01X1595499Y5875399D02*
G01X1676400Y5956300D01*
G01X1676400Y6197600D01*
G01X1549400Y6324600D02*
G01X1320800Y6324600D01*
G01X1524610Y7074510D02*
G01X1383106Y7074510D01*
G01X1574800Y7124700D02*
G01X1524610Y7074510D01*
G01X1360248Y7669408D02*
G01X1360248Y7621348D01*
G01X1333500Y7594600D01*
G01X1333500Y7496175D02*
G01X1574800Y7254875D01*
G01X1574800Y7124700D01*
G01X1333500Y7594600D02*
G01X1333500Y7496175D01*
G01X1765343Y8077200D02*
G01X1713152Y8129392D01*
G01X1866900Y8077200D02*
G01X1765343Y8077200D01*
G01X1981200Y8331200D02*
G01X1981200Y8191500D01*
G01X1866900Y8077200D01*
G01X1895266Y8643441D02*
G01X1816100Y8564275D01*
G01X1816100Y8496300D01*
G01X1981200Y8331200D01*
G01X2466093Y8864600D02*
G01X2397334Y8933359D01*
G01X2730500Y8953500D02*
G01X2641600Y8864600D01*
G01X2466093Y8864600D01*
G01X2709801Y9322042D02*
G01X2628900Y9241140D01*
G01X2730500Y9029700D02*
G01X2730500Y8953500D01*
G01X2628900Y9241140D02*
G01X2628900Y9131300D01*
G01X2730500Y9029700D01*
G01X3505200Y9232900D02*
G01X3505200Y8857082D01*
G01X3657600Y9385300D02*
G01X3505200Y9232900D01*
G01X3809390Y9650806D02*
G01X3694506Y9650806D01*
G01X3657600Y9613900D01*
G01X3657600Y9385300D01*
G01X3505200Y8770518D02*
G01X3691268Y8770518D01*
G01X3705390Y8756396D01*
G01X3505200Y8857082D02*
G01X3154782Y8857082D01*
G01X3126246Y8828546D02*
G01X3126246Y8711128D01*
G01X3154782Y8857082D02*
G01X3126246Y8828546D01*
G01X3705390Y8566404D02*
G01X3705390Y8410410D01*
G01X3733800Y8382000D02*
G01X3780688Y8382000D01*
G01X3705390Y8410410D02*
G01X3733800Y8382000D01*
G01X3965410Y8566404D02*
G01X3965410Y8410410D01*
G01X3937000Y8382000D02*
G01X3864712Y8382000D01*
G01X3965410Y8410410D02*
G01X3937000Y8382000D01*
G01X5698923Y9105186D02*
G01X5723609Y9080500D01*
G01X5803900Y9080500D02*
G01X5880100Y9156700D01*
G01X5723609Y9080500D02*
G01X5803900Y9080500D01*
G01X5557899Y9283942D02*
G01X5613158Y9283942D01*
G01X5714286Y9182814D02*
G01X5731077Y9182814D01*
G01X5613158Y9283942D02*
G01X5714286Y9182814D01*
G01X5731077Y9182814D02*
G01X5778500Y9230237D01*
G01X5778500Y9296400D01*
G01X6397834Y8554541D02*
G01X6464300Y8488075D01*
G01X6464300Y8454113D02*
G01X6494007Y8424407D01*
G01X6464300Y8488075D02*
G01X6464300Y8454113D01*
G01X6434593Y8364993D02*
G01X6468387Y8331200D01*
G01X6616700Y8331200D01*
G01X6494007Y8424407D02*
G01X6565900Y8496300D01*
G01X6578600Y8496300D01*
G01X6882052Y7618608D02*
G01X6921500Y7579160D01*
G01X6921500Y7471691D02*
G01X6947614Y7445577D01*
G01X6921500Y7579160D02*
G01X6921500Y7471691D01*
G01X6869986Y7413423D02*
G01X6835263Y7378700D01*
G01X6781800Y7378700D01*
G01X6947614Y7445577D02*
G01X6972300Y7420891D01*
G01X6972300Y7353300D01*
G01X6983806Y6514490D02*
G01X6983806Y6425006D01*
G01X6963512Y6404712D02*
G01X6963512Y6337300D01*
G01X6983806Y6425006D02*
G01X6963512Y6404712D01*
G01X6879488Y6337300D02*
G01X6879488Y6265012D01*
G01X6946900Y6197600D01*
G01X6963512Y6337300D02*
G01X7073900Y6337300D01*
G01X6667742Y5410442D02*
G01X6667742Y5465701D01*
G01X6616700Y5359400D02*
G01X6667742Y5410442D01*
G01X6592014Y5292523D02*
G01X6616700Y5317209D01*
G01X6616700Y5359400D01*
G01X6514386Y5324677D02*
G01X6489700Y5299991D01*
G01X6489700Y5219700D01*
G01X6592014Y5292523D02*
G01X6620077Y5292523D01*
G01X6680200Y5232400D01*
G01X5951041Y4587666D02*
G01X5871875Y4508500D01*
G01X5850613Y4508500D02*
G01X5808207Y4466093D01*
G01X5871875Y4508500D02*
G01X5850613Y4508500D01*
G01X5808207Y4466093D02*
G01X5867400Y4406900D01*
G01X5880100Y4406900D01*
G01X4816677Y3974386D02*
G01X4863386Y3974386D01*
G01X4941648Y4052648D02*
G01X4989708Y4052648D01*
G01X4863386Y3974386D02*
G01X4941648Y4052648D01*
G01X4816677Y3974386D02*
G01X4816677Y3946323D01*
G01X4876800Y3886200D01*
G01X4784523Y4052014D02*
G01X4711700Y3979191D01*
G01X4711700Y3924300D01*
G01X3721100Y3920388D02*
G01X3903396Y3920388D01*
G01X3910990Y3912794D01*
G01X3721100Y4004412D02*
G01X3721100Y4064000D01*
G01X3708400Y4076700D01*
G01X2874901Y4190758D02*
G01X2836560Y4229100D01*
G01X2726409Y4229100D02*
G01X2689023Y4266486D01*
G01X2836560Y4229100D02*
G01X2726409Y4229100D01*
G01X2721177Y4344114D02*
G01X2755900Y4378837D01*
G01X2755900Y4419600D01*
G01X1996866Y4831259D02*
G01X1854032Y4974093D01*
G01X1849893Y4974093D01*
G01X1909307Y5033507D02*
G01X1850113Y5092700D01*
G01X1765300Y5092700D01*
G01X1849893Y4974093D02*
G01X1803400Y4927600D01*
G01X1727200Y4927600D01*
G01X1398348Y5817992D02*
G01X1398348Y5866052D01*
G01X1332786Y5931614D02*
G01X1332786Y5978323D01*
G01X1398348Y5866052D02*
G01X1332786Y5931614D01*
G01X1332786Y5978323D02*
G01X1247263Y5892800D01*
G01X1231900Y5892800D01*
G01X1410414Y6010477D02*
G01X1425777Y6010477D01*
G01X1511300Y6096000D01*
G01X1233094Y7074510D02*
G01X1233094Y7189394D01*
G01X1253388Y7209688D02*
G01X1253388Y7251700D01*
G01X1233094Y7189394D02*
G01X1253388Y7209688D01*
G01X1337412Y7251700D02*
G01X1435100Y7251700D01*
G01X1460500Y7226300D01*
G01X1574558Y8186799D02*
G01X1600200Y8212440D01*
G01X1600200Y8267700D01*
G01X1675686Y8347277D02*
G01X1615563Y8407400D01*
G01X1549400Y8407400D01*
G01X1600200Y8267700D02*
G01X1689100Y8356600D01*
G54D27*
G01X469900Y4991100D02*
G01X342900Y4991100D01*
G01X165100Y5168900D01*
G54D53*
G01X1519057Y8242300D02*
G01X1574558Y8186799D01*
G01X1016000Y8242300D02*
G01X1519057Y8242300D01*
G01X165100Y7391400D02*
G01X1016000Y8242300D01*
G54D27*
G01X165100Y5168900D02*
G01X165100Y7391400D01*
G54D53*
G01X469900Y5245100D02*
G01X469900Y5499100D01*
G01X469900Y5753100D01*
G01X469900Y6007100D02*
G01X469900Y6261100D01*
G01X469900Y6515100D01*
G01X469900Y6769100D01*
G54D52*
G01X2291259Y9039434D02*
G01X2357725Y9105900D01*
G01X2404387Y9105900D02*
G01X2434093Y9135607D01*
G01X2357725Y9105900D02*
G01X2404387Y9105900D01*
G01X3227192Y9536352D02*
G01X3275252Y9536352D01*
G01X3330777Y9591877D02*
G01X3378914Y9591877D01*
G01X3275252Y9536352D02*
G01X3330777Y9591877D01*
G01X3411068Y9514250D02*
G01X3479800Y9445518D01*
G01X3479800Y9436100D01*
G01X2493507Y9076193D02*
G01X2578100Y8991600D01*
G01X2578100Y8978900D01*
G01X3809390Y9500794D02*
G01X3809390Y9397390D01*
G01X3797300Y9385300D01*
G01X4369410Y9650806D02*
G01X4484294Y9650806D01*
G01X4504588Y9630512D02*
G01X4584700Y9630512D01*
G01X4484294Y9650806D02*
G01X4504588Y9630512D01*
G54D53*
G01X4465955Y9042400D02*
G01X4465955Y9288145D01*
G01X4432300Y9321800D01*
G01X4394200Y9817100D02*
G01X4394200Y9690100D01*
G01X4381500Y9677400D01*
G54D52*
G01X4584700Y9546488D02*
G01X4656988Y9546488D01*
G01X4699000Y9588500D01*
G01X2171700Y6578600D02*
G01X2171700Y7073900D01*
G01X2135599Y7110001D02*
G01X2135599Y7302500D01*
G01X2171700Y7073900D02*
G01X2135599Y7110001D01*
G01X2425700Y6578600D02*
G01X2425700Y7099300D01*
G01X2385598Y7139402D02*
G01X2385598Y7302500D01*
G01X2425700Y7099300D02*
G01X2385598Y7139402D01*
G01X2197100Y5848502D02*
G01X2197100Y6121400D01*
G01X2171700Y6146800D01*
G01X2171700Y6324600D01*
G01X2705100Y5862422D02*
G01X2705100Y6159500D01*
G01X2540000Y6324600D02*
G01X2425700Y6324600D01*
G01X2705100Y6159500D02*
G01X2540000Y6324600D01*
G01X2705100Y5862422D02*
G01X2932481Y5862422D01*
G01X2946400Y5848502D01*
G01X2438400Y5849722D02*
G01X2198319Y5849722D01*
G01X2197100Y5848502D01*
G01X2946400Y5848502D02*
G01X2946400Y5969000D01*
G01X3911600Y6934200D02*
G01X4449702Y6934200D01*
G01X2946400Y5969000D02*
G01X3911600Y6934200D01*
G01X2171700Y6324600D02*
G01X2298700Y6451600D01*
G01X3449704Y6866004D02*
G01X3449704Y6934200D01*
G01X2298700Y6451600D02*
G01X3035300Y6451600D01*
G01X3449704Y6866004D01*
G01X6121400Y5740400D02*
G01X6121400Y6959600D01*
G01X5928898Y7152102D02*
G01X5928898Y7277100D01*
G01X6121400Y6959600D02*
G01X5928898Y7152102D01*
G01X5867400Y5740400D02*
G01X5867400Y6248400D01*
G01X6007100Y6388100D01*
G01X5678899Y7135401D02*
G01X5678899Y7277100D01*
G01X6007100Y6388100D02*
G01X6007100Y6807200D01*
G01X5678899Y7135401D01*
G01X5867400Y5486400D02*
G01X5689600Y5486400D01*
G01X5517400Y6433300D02*
G01X5517400Y6591300D01*
G01X5689600Y5486400D02*
G01X5613400Y5562600D01*
G01X5613400Y6337300D01*
G01X5517400Y6433300D01*
G01X6121400Y5486400D02*
G01X6121400Y5549900D01*
G01X5803900Y5613400D02*
G01X5702300Y5715000D01*
G01X5867400Y6438900D02*
G01X5867400Y6591300D01*
G01X6121400Y5549900D02*
G01X6057900Y5613400D01*
G01X5803900Y5613400D01*
G01X5702300Y5715000D02*
G01X5702300Y6273800D01*
G01X5867400Y6438900D01*
G54D53*
G01X6172200Y3581400D02*
G01X6172200Y3924300D01*
G01X6159500Y3937000D01*
G01X5918200Y3581400D02*
G01X6172200Y3581400D01*
G54D52*
G01X723900Y4737100D02*
G01X1104900Y4737100D01*
G01X952500Y4991100D02*
G01X723900Y4991100D01*
G01X723900Y5245100D02*
G01X825500Y5245100D01*
G01X3721100Y3920388D02*
G01X3666388Y3920388D01*
G01X3632200Y3886200D01*
G01X3578956Y3698144D02*
G01X3663950Y3613150D01*
G01X3886200Y3632200D02*
G01X3886200Y3581400D01*
G01X3463335Y3759200D02*
G01X3759200Y3759200D01*
G01X3886200Y3632200D01*
G01X3822700Y4432300D02*
G01X3822700Y5054600D01*
G01X4216400Y8661400D02*
G01X3965410Y8661400D01*
G01X3378200Y1295400D02*
G01X3378200Y1600200D01*
G01X1955800Y3022600D01*
G01X3632200Y1536700D02*
G01X3632200Y1295400D01*
G01X2057400Y3111500D02*
G01X3632200Y1536700D01*
G01X1854200Y1295400D02*
G01X1854200Y2705100D01*
G01X1638300Y2921000D01*
G01X431800Y2921000D01*
G01X1955800Y3022600D02*
G01X444500Y3022600D01*
G01X431800Y2921000D02*
G01X177800Y3175000D01*
G01X177800Y4292600D01*
G01X444500Y3022600D02*
G01X254000Y3213100D01*
G01X88900Y4584700D02*
G01X88900Y4737100D01*
G01X254000Y3213100D02*
G01X254000Y4419600D01*
G01X88900Y4584700D01*
G01X723900Y5753100D02*
G01X927100Y5549900D01*
G01X927100Y5410200D01*
G01X1104900Y4737100D02*
G01X1930400Y3911600D01*
G01X2362200Y3911600D01*
G01X2616200Y3657600D01*
G01X2616200Y3581400D01*
G01X1955800Y3987800D02*
G01X952500Y4991100D01*
G01X2413000Y3987800D02*
G01X1955800Y3987800D01*
G01X825500Y5245100D02*
G01X1993900Y4076700D01*
G01X2438400Y4076700D01*
G01X723900Y5499100D02*
G01X2070100Y4152900D01*
G01X2463800Y4152900D01*
G01X2654300Y4051300D02*
G01X2692400Y4051300D01*
G01X927100Y5410200D02*
G01X2120900Y4216400D01*
G01X2489200Y4216400D01*
G01X2654300Y4051300D01*
G01X2593093Y4635500D02*
G01X2498934Y4541341D01*
G54D54*
G01X2390000Y5244910D02*
G01X2336991Y5244910D01*
G01X2311400Y5270500D01*
G01X2311400Y5397500D01*
G01X2515222Y5194897D02*
G01X2390000Y5194897D01*
G01X2514994Y5369700D02*
G01X2514994Y5244706D01*
G01X2540013Y5219687D01*
G01X2110246Y5293854D02*
G01X2110246Y5338985D01*
G01X2259190Y5144910D02*
G01X2110246Y5293854D01*
G01X2298700Y5143500D02*
G01X2292941Y5143500D01*
G01X2291532Y5144910D01*
G01X2390000Y5144910D02*
G01X2291532Y5144910D01*
G01X2259190Y5144910D01*
G01X2514600Y4902200D02*
G01X2465159Y4951641D01*
G01X2465159Y5069700D01*
G01X2515146Y5069700D02*
G01X2515146Y5194821D01*
G01X2565159Y5069700D02*
G01X2565159Y5194541D01*
G01X2540013Y5219687D01*
G01X2565159Y5069700D02*
G01X2565159Y5016259D01*
G01X2540000Y4991100D01*
G01X2615146Y5069700D02*
G01X2849918Y5069700D01*
G01X2852318Y5067300D01*
G01X2540000Y4991100D02*
G01X2565400Y4991100D01*
G01X2654300Y4663676D02*
G01X2682476Y4635500D01*
G54D52*
G01X2755900Y4635500D02*
G01X2682476Y4635500D01*
G01X2593093Y4635500D01*
G54D54*
G01X2565400Y4991100D02*
G01X2654300Y4902200D01*
G01X2654300Y4663676D01*
G01X2852318Y5067300D02*
G01X2852318Y4842167D01*
G01X2859546Y4834939D01*
G01X2690000Y5244910D02*
G01X2768410Y5244910D01*
G01X2781300Y5257800D01*
G01X2828188Y5257800D02*
G01X2832100Y5253888D01*
G01X2690000Y5294897D02*
G01X2756903Y5294897D01*
G01X2794000Y5257800D02*
G01X2828188Y5257800D01*
G01X2781300Y5257800D02*
G01X2794000Y5257800D01*
G01X2756903Y5294897D02*
G01X2794000Y5257800D01*
G01X2614994Y5369700D02*
G01X2614994Y5485194D01*
G01X2705100Y5575300D02*
G01X2705100Y5669178D01*
G01X2614994Y5485194D02*
G01X2705100Y5575300D01*
G01X2565006Y5369700D02*
G01X2565006Y5486794D01*
G01X2438400Y5613400D02*
G01X2438400Y5656478D01*
G01X2565006Y5486794D02*
G01X2438400Y5613400D01*
G01X2514994Y5369700D02*
G01X2514994Y5447906D01*
G01X2197100Y5600700D02*
G01X2197100Y5708498D01*
G01X2514994Y5447906D02*
G01X2451100Y5511800D01*
G01X2286000Y5511800D01*
G01X2197100Y5600700D01*
G54D52*
G01X2832100Y5253888D02*
G01X2984500Y5253888D01*
G01X3399688Y5253888D01*
G01X3403600Y5257800D01*
G01X2832100Y5337912D02*
G01X2984500Y5337912D01*
G01X3090012Y5337912D01*
G01X3111500Y5359400D01*
G01X2938882Y5067300D02*
G01X3746500Y5067300D01*
G01X4102100Y5422900D02*
G01X4102100Y5575300D01*
G01X4445000Y5511800D02*
G01X4445000Y5393588D01*
G01X4453788Y5384800D01*
G01X3746500Y5067300D02*
G01X4102100Y5422900D01*
G01X4826000Y5339182D02*
G01X4826000Y5473700D01*
G01X4495800Y5562600D02*
G01X4445000Y5511800D01*
G01X4826000Y5473700D02*
G01X4737100Y5562600D01*
G01X4495800Y5562600D01*
G01X5118100Y5778500D02*
G01X4953000Y5778500D01*
G01X4737100Y5562600D01*
G54D54*
G01X4408094Y5256403D02*
G01X4408094Y5297094D01*
G01X4445000Y5334000D02*
G01X4445000Y5393588D01*
G01X4408094Y5297094D02*
G01X4445000Y5334000D01*
G01X4458106Y5256403D02*
G01X4458106Y5380482D01*
G01X4508094Y5256403D02*
G01X4558106Y5256403D01*
G01X4558106Y5322494D01*
G01X4537812Y5342788D02*
G01X4537812Y5384800D01*
G01X4558106Y5322494D02*
G01X4537812Y5342788D01*
G01X4570603Y5193894D02*
G01X4660900Y5193894D01*
G01X4558106Y5256403D02*
G01X4596003Y5256403D01*
G01X4635500Y5295900D01*
G01X4822215Y5081397D02*
G01X4826000Y5085182D01*
G01X4558106Y5081397D02*
G01X4822215Y5081397D01*
G01X4508094Y5081397D02*
G01X4508094Y5041494D01*
G01X4458106Y4944618D02*
G01X4453788Y4940300D01*
G01X4458106Y5081397D02*
G01X4458106Y4991506D01*
G01X4458106Y4944618D01*
G01X4508094Y5041494D02*
G01X4458106Y4991506D01*
G01X4453788Y4800600D02*
G01X4453788Y4940300D01*
G01X4533087Y5016500D02*
G01X4508094Y5041494D01*
G01X4737100Y5016500D02*
G01X4533087Y5016500D01*
G01X4826000Y4998618D02*
G01X4754982Y4998618D01*
G01X4737100Y5016500D01*
G01X4537812Y4940300D02*
G01X4537812Y4800600D01*
G01X4537812Y4940300D02*
G01X4622800Y4940300D01*
G01X5022799Y5218900D02*
G01X4915700Y5218900D01*
G01X4881982Y5252618D02*
G01X4826000Y5252618D01*
G01X4915700Y5218900D02*
G01X4881982Y5252618D01*
G01X5022799Y5168913D02*
G01X4851413Y5168913D01*
G01X4826000Y5143500D02*
G01X4826000Y5085182D01*
G01X4851413Y5168913D02*
G01X4826000Y5143500D01*
G01X4408094Y5081397D02*
G01X4408094Y5055794D01*
G01X4343400Y4991100D01*
G01X4749800Y5181600D02*
G01X4820818Y5252618D01*
G01X4826000Y5252618D01*
G01X4343400Y4991100D02*
G01X4343400Y4586631D01*
G01X4370846Y4559185D01*
G01X4826000Y5085182D02*
G01X4871618Y5085182D01*
G01X5056646Y4900154D02*
G01X5056646Y4758430D01*
G01X4871618Y5085182D02*
G01X5056646Y4900154D01*
G01X5492801Y5268913D02*
G01X5332413Y5268913D01*
G01X5245624Y5182124D02*
G01X5245624Y5068888D01*
G01X5022799Y5068888D02*
G01X5245624Y5068888D01*
G01X5492775Y5068888D01*
G01X5332413Y5268913D02*
G01X5245624Y5182124D01*
G01X5492801Y5268913D02*
G01X5492801Y5340299D01*
G01X5461000Y5372100D01*
G01X5461000Y5469788D01*
G01X5464912Y5473700D01*
G01X5492801Y5168887D02*
G01X5359387Y5168887D01*
G01X5346700Y5156200D01*
G01X5492801Y5218900D02*
G01X5765000Y5218900D01*
G01X5867400Y5321300D02*
G01X5867400Y5486400D01*
G01X5765000Y5218900D02*
G01X5867400Y5321300D01*
G01X5492801Y5118900D02*
G01X5944400Y5118900D01*
G01X6121400Y5295900D02*
G01X6121400Y5486400D01*
G01X5944400Y5118900D02*
G01X6121400Y5295900D01*
G01X5122012Y5473700D02*
G01X5380888Y5473700D01*
G01X5380888Y5380888D01*
G01X5372100Y5372100D01*
G01X5122012Y5473700D02*
G01X5122012Y5406288D01*
G01X5143500Y5384800D01*
G01X5022799Y5268887D02*
G01X5037988Y5284076D01*
G01X5037988Y5473700D01*
G01X5022799Y5118900D02*
G01X5118900Y5118900D01*
G01X5168900Y5168900D01*
G01X4370846Y4559185D02*
G01X4370846Y4485146D01*
G01X3619500Y4356100D02*
G01X3556000Y4292600D01*
G01X4370846Y4485146D02*
G01X4241800Y4356100D01*
G01X3619500Y4356100D01*
G01X5056646Y4758430D02*
G01X4578116Y4279900D01*
G01X3657600Y4279900D02*
G01X3632200Y4254500D01*
G01X4578116Y4279900D02*
G01X3657600Y4279900D01*
G54D52*
G01X3449699Y4115042D02*
G01X3449699Y4411601D01*
G01X3429000Y4432300D01*
G01X4471010Y4062806D02*
G01X4471010Y4152290D01*
G01X4432300Y4191000D01*
G54D54*
G01X1562100Y8661400D02*
G01X1112618Y9110882D01*
G01X811867Y9110882D01*
G54D52*
G01X5410200Y3581400D02*
G01X5410200Y3835400D01*
G01X7251700Y8971194D02*
G01X7159167Y9063728D01*
G01X5410200Y3835400D02*
G01X5905500Y4330700D01*
G01X6311900Y4330700D01*
G01X7251700Y5270500D01*
G01X7251700Y8971194D01*
G54D53*
G01X6565900Y3949700D02*
G01X6565900Y4127500D01*
G01X6489700Y4203700D01*
G01X5994400Y4203700D01*
G01X5905500Y4114800D01*
G01X5905500Y3937000D01*
G54D52*
G01X723900Y4483100D02*
G01X1193800Y4483100D01*
G01X1270000Y4406900D01*
G01X3390900Y5486400D02*
G01X3670300Y5765800D01*
G01X2882900Y8445500D02*
G01X2882900Y8851900D01*
G01X2971800Y8940800D01*
G01X3327400Y9354957D02*
G01X3284599Y9397758D01*
G01X3670300Y5765800D02*
G01X4368800Y5765800D01*
G01X4203700Y8166100D02*
G01X3162300Y8166100D01*
G01X2882900Y8445500D01*
G01X4368800Y5765800D02*
G01X4648200Y6045200D01*
G01X4648200Y7721600D01*
G01X4203700Y8166100D01*
G01X2971800Y8940800D02*
G01X3098800Y8940800D01*
G01X3327400Y9169400D01*
G01X3327400Y9354957D01*
G01X3822700Y5054600D02*
G01X4800600Y6032500D01*
G01X4800600Y8077200D01*
G01X4216400Y8661400D01*
G01X520700Y3263900D02*
G01X673100Y3111500D01*
G01X2057400Y3111500D01*
G54D54*
G01X1346200Y3581400D02*
G01X1346200Y3289300D01*
G01X609600Y3289300D02*
G01X609600Y3352800D01*
G01X952500Y5892800D02*
G01X952500Y5969000D01*
G01X914400Y6007100D02*
G01X723900Y6007100D01*
G01X1346200Y3289300D02*
G01X1244600Y3187700D01*
G01X711200Y3187700D01*
G01X609600Y3289300D01*
G01X952500Y5969000D02*
G01X914400Y6007100D01*
G54D52*
G01X1751252Y5358008D02*
G01X1802008Y5358008D01*
G01X1917700Y5473700D02*
G01X1917700Y5791200D01*
G01X1802008Y5358008D02*
G01X1917700Y5473700D01*
G54D53*
G01X2197100Y5708498D02*
G01X2000402Y5708498D01*
G01X1917700Y5791200D01*
G01X1383106Y6514490D02*
G01X1638910Y6514490D01*
G01X1701800Y6451600D01*
G01X1498842Y7612001D02*
G01X1506599Y7612001D01*
G01X1638300Y7480300D01*
G01X2001341Y8537366D02*
G01X2133600Y8405107D01*
G01X2133600Y8382000D01*
G54D54*
G01X1753314Y8315123D02*
G01X1781377Y8315123D01*
G01X1854200Y8242300D01*
G54D53*
G01X2767208Y9183448D02*
G01X2832100Y9118557D01*
G01X2832100Y9042400D01*
G01X4093845Y9042400D02*
G01X3860800Y9042400D01*
G54D54*
G01X3965410Y8756396D02*
G01X3965410Y8874290D01*
G01X3860800Y8978900D02*
G01X3860800Y9042400D01*
G01X3965410Y8874290D02*
G01X3860800Y8978900D01*
G54D52*
G01X3965410Y8410410D02*
G01X4073690Y8410410D01*
G01X4102100Y8382000D01*
G54D53*
G01X4983101Y9359658D02*
G01X4843643Y9220200D01*
G01X4838700Y9220200D01*
G01X5895766Y8844459D02*
G01X5654246Y8602940D01*
G01X5539246Y8602940D01*
G01X6529148Y8078592D02*
G01X6502357Y8051800D01*
G01X6311900Y8051800D01*
G01X6833794Y7074510D02*
G01X6628790Y7074510D01*
G01X6616700Y7086600D01*
G01X6743458Y6040499D02*
G01X6675257Y6108700D01*
G01X6565900Y6108700D01*
G01X6240959Y5089734D02*
G01X6184900Y5145793D01*
G01X6184900Y5219700D01*
G54D54*
G01X4395597Y5143906D02*
G01X4192367Y5143906D01*
G01X4027946Y4979485D01*
G54D53*
G01X5449692Y4405552D02*
G01X5449692Y4456308D01*
G01X5346700Y4559300D01*
G54D52*
G01X5464912Y5473700D02*
G01X5464912Y5596788D01*
G01X5372100Y5689600D02*
G01X5372100Y5778500D01*
G01X5464912Y5596788D02*
G01X5372100Y5689600D01*
G54D53*
G01X2946400Y5708498D02*
G01X3130398Y5708498D01*
G01X3225800Y5803900D01*
G54D52*
G01X6950567Y632968D02*
G01X5551932Y632968D01*
G01X5410200Y774700D02*
G01X5410200Y1295400D01*
G01X5551932Y632968D02*
G01X5410200Y774700D01*
G01X984267Y608525D02*
G01X4786825Y608525D01*
G01X5156200Y977900D02*
G01X5156200Y1295400D01*
G01X4786825Y608525D02*
G01X5156200Y977900D01*
G01X2819400Y3403600D02*
G01X2743200Y3479800D01*
G01X2743200Y3657600D01*
G01X2413000Y3987800D01*
G01X3378200Y3581400D02*
G01X3378200Y3454400D01*
G01X3327400Y3403600D01*
G01X2819400Y3403600D01*
G01X3431444Y3698144D02*
G01X3578956Y3698144D01*
G01X2438400Y4076700D02*
G01X2766956Y3748144D01*
G01X3381444Y3748144D01*
G01X3431444Y3698144D01*
G01X2463800Y4152900D02*
G01X2807500Y3809200D01*
G01X3413335Y3809200D01*
G01X3463335Y3759200D01*
G01X3392292Y3976448D02*
G01X3544937Y3976448D01*
G01X3594100Y4025612D01*
G01X3594100Y4102100D01*
G01X2874901Y4190758D02*
G01X2794000Y4109857D01*
G01X3619500Y3873500D02*
G01X3632200Y3886200D01*
G01X3344230Y3873500D02*
G01X3348062Y3869668D01*
G01X3462544Y3869668D01*
G01X3466375Y3873500D01*
G01X3619500Y3873500D01*
G01X2971800Y3873500D02*
G01X3344230Y3873500D01*
G01X2794000Y4109857D02*
G01X2794000Y4051300D01*
G01X2971800Y3873500D01*
G01X3910990Y3912794D02*
G01X3910990Y3810610D01*
G01X4749800Y3759200D02*
G01X4876800Y3886200D01*
G01X3910990Y3810610D02*
G01X3962400Y3759200D01*
G01X4749800Y3759200D01*
G54D54*
G01X4458106Y5081397D02*
G01X4458106Y5256403D01*
G04 Track End*

M02*

