G04 Layer: BoardOutlineLayer*
G04 EasyEDA Pro v2.2.45.4, 2026-01-14 12:02:54*
G04 Gerber Generator version 0.3*
G04 Scale: 100 percent, Rotated: No, Reflected: No*
G04 Dimensions in millimeters*
G04 Leading zeros omitted, absolute positions, 4 integers and 5 decimals*
G04 Generated by one-click*
%FSLAX45Y45*%
%MOMM*%
%ADD10C,0.254*%
%ADD11C,0.0254*%
%ADD12C,0.3746*%
G75*


G04 PolygonModel Start*
G54D10*
G01X300000Y0D02*
G01X7700000Y0D01*
G01X8000000Y300000D02*
G01X8000000Y9700000D01*
G01X7700000Y10000000D02*
G01X300000Y10000000D01*
G01X0Y9700000D02*
G01X0Y300000D01*
G01X0Y300000D02*
G03X300000Y0I300000J0D01*
G01X7700000Y0D02*
G03X8000000Y300000I0J300000D01*
G01X8000000Y9699746D02*
G03X7700000Y10000000I-300000J254D01*
G01X300000Y10000000D02*
G03X0Y9700000I0J-300000D01*
G54D11*
G01X4269397Y9455772D02*
G02X4229400Y9415772I-40000J0D01*
G01X4229400Y9415793D01*
G01X3949400Y9415793D01*
G01X3948768Y9415777D01*
G02X3909400Y9455772I632J39995D01*
G01X3909400Y9455757D01*
G01X3909400Y9455800D01*
G01X3909400Y9695805D01*
G02X3949400Y9735802I40000J-3D01*
G01X4229400Y9735802D01*
G01X4229400Y9735823D01*
G02X4269397Y9695823I-3J-40000D01*
G01X4269397Y9455772D01*
G01X5390863Y9142027D02*
G02X5338603Y9120378I-36955J15307D01*
G01X5338611Y9120397D01*
G01X5079925Y9227548D01*
G01X5079335Y9227776D01*
G02X5058269Y9279792I15890J36708D01*
G01X5058264Y9279778D01*
G01X5058280Y9279818D01*
G01X5150126Y9501553D01*
G02X5202387Y9523198I36954J-15310D01*
G01X5461073Y9416047D01*
G01X5461081Y9416066D01*
G02X5482726Y9363805I-15310J-36954D01*
G01X5390863Y9142027D01*
G01X6189205Y8487350D02*
G02X6132638Y8487349I-28284J28284D01*
G01X6132653Y8487363D01*
G01X5934663Y8685353D01*
G01X5934205Y8685789D01*
G02X5934649Y8741907I28728J27833D01*
G01X5934638Y8741896D01*
G01X5934668Y8741926D01*
G01X6104377Y8911635D01*
G02X6160944Y8911633I28282J-28286D01*
G01X6358933Y8713644D01*
G01X6358948Y8713658D01*
G02X6358946Y8657092I-28286J-28282D01*
G01X6189205Y8487350D01*
G01X6663591Y7636372D02*
G02X6611329Y7658017I-15307J36955D01*
G01X6611348Y7658025D01*
G01X6504197Y7916711D01*
G01X6503941Y7917289D01*
G02X6525826Y7968965I37193J14721D01*
G01X6525812Y7968960D01*
G01X6525852Y7968976D01*
G01X6747587Y8060822D01*
G02X6799847Y8039173I15305J-36956D01*
G01X6906998Y7780487D01*
G01X6907017Y7780495D01*
G02X6885368Y7728235I-36956J-15305D01*
G01X6663591Y7636372D01*
G01X6788772Y6614503D02*
G02X6748772Y6654500I0J40000D01*
G01X6748793Y6654500D01*
G01X6748793Y6934500D01*
G01X6748777Y6935132D01*
G02X6788772Y6974500I39995J-632D01*
G01X6788757Y6974500D01*
G01X6788800Y6974500D01*
G01X7028805Y6974500D01*
G02X7068802Y6934500I-3J-40000D01*
G01X7068802Y6654500D01*
G01X7068823Y6654500D01*
G02X7028823Y6614503I-40000J3D01*
G01X6788772Y6614503D01*
G01X6525827Y5632737D02*
G02X6504178Y5684997I15307J36955D01*
G01X6504197Y5684989D01*
G01X6611348Y5943675D01*
G01X6611576Y5944265D01*
G02X6663592Y5965331I36708J-15890D01*
G01X6663578Y5965336D01*
G01X6663618Y5965320D01*
G01X6885353Y5873474D01*
G02X6906998Y5821213I-15310J-36954D01*
G01X6799847Y5562527D01*
G01X6799866Y5562519D01*
G02X6747605Y5540874I-36954J15310D01*
G01X6525827Y5632737D01*
G01X5883850Y4796295D02*
G02X5883849Y4852862I28284J28284D01*
G01X5883863Y4852847D01*
G01X6081853Y5050837D01*
G01X6082289Y5051295D01*
G02X6138407Y5050851I27833J-28728D01*
G01X6138396Y5050862D01*
G01X6138426Y5050832D01*
G01X6308135Y4881123D01*
G02X6308133Y4824556I-28286J-28282D01*
G01X6110144Y4626567D01*
G01X6110158Y4626552D01*
G02X6053592Y4626554I-28282J28286D01*
G01X5883850Y4796295D01*
G01X5007472Y4271109D02*
G02X5029117Y4323371I36955J15307D01*
G01X5029125Y4323352D01*
G01X5287811Y4430503D01*
G01X5288389Y4430759D01*
G02X5340065Y4408874I14721J-37193D01*
G01X5340060Y4408888D01*
G01X5340076Y4408848D01*
G01X5431922Y4187113D01*
G02X5410273Y4134853I-36956J-15305D01*
G01X5151587Y4027702D01*
G01X5151595Y4027683D01*
G02X5099335Y4049332I-15305J36956D01*
G01X5007472Y4271109D01*
G01X4011003Y4107828D02*
G02X4051000Y4147828I40000J0D01*
G01X4051000Y4147807D01*
G01X4331000Y4147807D01*
G01X4331632Y4147823D01*
G02X4371000Y4107828I-632J-39995D01*
G01X4371000Y4107843D01*
G01X4371000Y4107800D01*
G01X4371000Y3867795D01*
G02X4331000Y3827798I-40000J3D01*
G01X4051000Y3827798D01*
G01X4051000Y3827777D01*
G02X4011003Y3867777I3J40000D01*
G01X4011003Y4107828D01*
G01X3041937Y4332673D02*
G02X3094197Y4354322I36955J-15307D01*
G01X3094189Y4354303D01*
G01X3352875Y4247152D01*
G01X3353465Y4246924D01*
G02X3374531Y4194908I-15890J-36708D01*
G01X3374536Y4194922D01*
G01X3374520Y4194882D01*
G01X3282674Y3973147D01*
G02X3230413Y3951502I-36954J15310D01*
G01X2971727Y4058653D01*
G01X2971719Y4058634D01*
G02X2950074Y4110895I15310J36954D01*
G01X3041937Y4332673D01*
G01X2205495Y4898450D02*
G02X2262062Y4898451I28284J-28284D01*
G01X2262047Y4898437D01*
G01X2460037Y4700447D01*
G01X2460495Y4700011D01*
G02X2460051Y4643893I-28728J-27833D01*
G01X2460062Y4643904D01*
G01X2460032Y4643874D01*
G01X2290323Y4474165D01*
G02X2233756Y4474167I-28282J28286D01*
G01X2035767Y4672156D01*
G01X2035752Y4672142D01*
G02X2035754Y4728708I28286J28282D01*
G01X2205495Y4898450D01*
G01X1616809Y5800228D02*
G02X1669071Y5778583I15307J-36955D01*
G01X1669052Y5778575D01*
G01X1776203Y5519889D01*
G01X1776459Y5519311D01*
G02X1754574Y5467635I-37193J-14721D01*
G01X1754588Y5467640D01*
G01X1754548Y5467624D01*
G01X1532813Y5375778D01*
G02X1480553Y5397427I-15305J36956D01*
G01X1373402Y5656113D01*
G01X1373383Y5656105D01*
G02X1395032Y5708365I36956J15305D01*
G01X1616809Y5800228D01*
G01X1428128Y6974497D02*
G02X1468128Y6934500I0J-40000D01*
G01X1468107Y6934500D01*
G01X1468107Y6654500D01*
G01X1468123Y6653868D01*
G02X1428128Y6614500I-39995J632D01*
G01X1428143Y6614500D01*
G01X1428100Y6614500D01*
G01X1188095Y6614500D01*
G02X1148098Y6654500I3J40000D01*
G01X1148098Y6934500D01*
G01X1148077Y6934500D01*
G02X1188077Y6974497I40000J-3D01*
G01X1428128Y6974497D01*
G01X1716473Y8019763D02*
G02X1738122Y7967503I-15307J-36955D01*
G01X1738103Y7967511D01*
G01X1630952Y7708825D01*
G01X1630724Y7708235D01*
G02X1578708Y7687169I-36708J15890D01*
G01X1578722Y7687164D01*
G01X1578682Y7687180D01*
G01X1356947Y7779026D01*
G02X1335302Y7831287I15310J36954D01*
G01X1442453Y8089973D01*
G01X1442434Y8089981D01*
G02X1494695Y8111626I36954J-15310D01*
G01X1716473Y8019763D01*
G01X2358450Y8830805D02*
G02X2358451Y8774238I-28284J-28284D01*
G01X2358437Y8774253D01*
G01X2160447Y8576263D01*
G01X2160011Y8575805D01*
G02X2103893Y8576249I-27833J28728D01*
G01X2103904Y8576238D01*
G01X2103874Y8576268D01*
G01X1934165Y8745977D01*
G02X1934167Y8802544I28286J28282D01*
G01X2132156Y9000533D01*
G01X2132142Y9000548D01*
G02X2188708Y9000546I28282J-28286D01*
G01X2358450Y8830805D01*
G01X3209428Y9317891D02*
G02X3187783Y9265629I-36955J-15307D01*
G01X3187775Y9265648D01*
G01X2929089Y9158497D01*
G01X2928511Y9158241D01*
G02X2876835Y9180126I-14721J37193D01*
G01X2876840Y9180112D01*
G01X2876824Y9180152D01*
G01X2784978Y9401887D01*
G02X2806627Y9454147I36956J15305D01*
G01X3065313Y9561298D01*
G01X3065305Y9561317D01*
G02X3117565Y9539668I15305J-36956D01*
G01X3209428Y9317891D01*

M02*

